<?xml version="1.0" encoding="UTF-8"?>
<svg version="1.1" viewBox="0 0 600 976" xmlns="http://www.w3.org/2000/svg">
 <g fill="#9e4944">
  <path d="m3.8302 194.02v541.16l1.2224 2.5e-4h624.69l3.4e-4 -541.16-625.92-4.6e-4"/>
 </g>
 <g fill="#848163">
  <path d="m465.65 270.84q8.9871 0.15638 6.737 2.7791-12.688 27.954-17.167 52.53l-23.511 140.13q-3.8689 18.516-9.0139 29.876-2.8338 7.4998-14.202 20.285-1.8292 2.9624-2.7389 6.0815-3.6754 13.704 0.71467 27.31 7.5684 23.051 34.233 35.132 15.665 7.3596 43.472 13.631l90.53 16.144q10.597 2.9813 6.3062 15.855-0.70226 1.6914-2.7851 2.178-12.238-1.1787-37.271 2.4816-131.81 22.576-164.43 26.385-55.625 7.5376-157.09 17.178l-33.778-12.034-101.95-55.169q4.0976-36.211 9.9504-45.621-28.101-19.08-19.992-26.148l-20.656 1.6229q3.9606-12.811 5.0768-23.659 4.2333-87.219 10.841-115.08 3.529-17.93 10.07-40.406l25.492-81.533q1.2842-3.1335 7.1926-3.7902 9.9412-1.3571 34.431-1.9872-4.3684-0.77135 242.46-2.0636 44.649-0.46815 76.882-2.1026m0.5089-2.1725q-33.221 1.6519-74.82 2.0908l-245.55 2.1103q-26.69 0.7655-34.38 2.0247-5.5302 0.42435-8.1684 4.1443-33.405 101.3-36.267 123.49-6.5897 27.873-10.83 115.09-0.75228 8.7245-5.1728 24.629-1.3351 2.9217 19.961-0.04254-4.8397 6.7294 19.998 24.621-4.6443 7.8972-9.536 45.715 9.6804 4.4125 103.45 56.134l29.014 10.649q-1.5582 1.682-0.21529 2.0975l6.8837 0.21267 0.28658-0.77334q106.68-10.142 163.23-18.045 25.921-3.0006 157.26-25.414 25.02-3.6674 37.245-2.4861 3.2859-0.584 4.442-3.1063 5.3293-14.443-6.8231-18.92l-14.91-3.3935q-61.729-9.2199-77.609-13.271-27.726-6.3172-43.338-13.916-24.218-11.137-31.746-33.612-3.634-12.436-1.157-23.299 0.78513-3.8936 3.0482-7.7291 10.927-12.554 13.184-18.107 4.0053-7.783 7.5301-20.856 3.144-11.746 6.4416-30.969 17.277-113.32 19.908-121.13 4.505-24.575 17.157-52.512 0.7763-5.8644-7.4158-5.4126"/>
 </g>
 <g fill="#848163">
  <path d="m471.58 271.02l0.25488 0.11206q1.7258 0.98608 0.71601 3.5866-12.072 25.141-17.588 54.754l-18.943 116.19q-3.4711 20.368-6.4996 31.782-3.2308 12.573-7.7283 21.55l-12.753 17.372q-2.2404 3.3272-3.4608 8.4318-2.5857 12.057 1.0417 24.082 7.5434 23.289 32.705 34.96 16.955 8.084 44.146 14.156 16.131 4.0654 77.437 13.229l15.072 3.4846q10.443 4.8202 4.8293 16.969-1.4711 1.4858-2.1489 1.4858-0.06514 0-0.1229-0.0137-2.9809-0.2681-6.6584-0.2681-12.642 0-33.516 3.1685-132.84 22.86-166.39 26.608-53.504 7.1447-152.76 16.594l-31.901-11.255-104.46-56.371q5.1084-37.647 10.194-45.643-28.3-19.214-18.984-25.459h-7.4e-4l-21.56 1.2498q4.2754-14.18 5.2155-24.542 4.1875-87.072 10.843-114.88 2.5947-20.93 35.995-122.52 1.0784-2.6801 8.758-3.4907 9.8274-1.2317 38.253-1.9092l320-3.4241z"/>
 </g>
 <g fill="#848163">
  <path d="m432.08 582.1q0.73742 0.3175 0.08477 0.02534m0.6132 0.18621l144.88 44.006q1.1979-1.3777 1.4291-2.9357 0.4262-7.7792-0.0876-11.124l-0.51647-2.5029-5.0235-14.451-3.7461-4.6148-5.9088-5.8876-4.4516-2.4051q-2.492-0.84088-5.7748-2.7751-3.7719-1.1828-6.5316-2.7831l-6.6122-1.6093q-0.5707-0.0715-1.1296-0.0555l-6.862 0.23765-6.6624-0.92205q-1.1652-0.01856-2.2386 0.1203-7.3818 1.3505-9.386 1.2512-1.2934-0.00485-1.974-0.10009-4.6566-0.79181-5.3298-0.70661l-8.8289 0.13751q-3.9836-0.0686-10.923-0.58636-1.6999-0.06415-3.4273 0.0213-2.6301 0.12476-15.224 1.4409l-4.0119 0.52314q-4.8868 0.63634-14.063 3.0187-7.018 1.032-9.9172 1.8324l-7.5995 0.87524"/>
 </g>
 <g fill="#848163">
  <path d="m497.47 556.51l88.029 77.045q-0.1623 0.31988 1.3554 0.20184 0.78417-0.2079 0.62813-1.7889 0.1814-0.62907-1.3449-6.3998-0.2338-1.4207 0.07315-7.9034-0.02145-1.2689-0.302-3.2203-0.22852-1.5367-0.59668-2.6778-1.6275-3.776-2.7514-7.8506-0.33494-0.85344-0.42936-4.5451l-1.1142-4.8673q-0.31235-1.6472-2.6126-5.7047l-0.80811-2.3639q-0.28663-0.15287-1.9921-8.8784-0.36987-1.4484-1.091-3.2256-0.8552-2.2764-5.6659-7.9704-1.4721-1.7459-13.439-9.5062-8.9888-3.7882-9.6367-3.373l-12.026-0.10393q-8.1498-0.9624-8.4998-0.64832 0.2761-0.32545-13.057 2.124-8.6449 0.1839-14.593 1.6245"/>
 </g>
 <g fill="#d8d1bf">
  <path d="m556.49 600.24l-14.242 2.0476 5.4637 1.189q0.67396 0.18305 1.8704 0.1359 1.1745-0.15384 1.8621-0.54276l5.0101-2.7851m-14.29 1.9907q-4.2289-0.61547-11.311-0.0096-1.6377 0.12814-4.5631 0.5886-10.446 2.1977-13.955 2.4599-1.9854 0.23797-6.487 0.4617-3.7418 0.21126-13.85 0.49807-2.9447 0.12873-5.6149 0.35919l-15.31 1.9075-11.289 1.2239q-4.639 0.57863-8.4763 1.2697l-38.654 7.0859q-4.8336 0.79484-9.3296 1.1268-11.597 0.6764-21.468 0.73095-2.8151-0.01972-6.4009-0.28495-11.828-1.3264-14.614-1.3106l-20.93-0.0129q-49.404 3.2174-60.836 4.7826-8.5493 1.1151-14.252 4.89-17.362 10.312-24.407 17.124l301.52-42.857"/>
 </g>
 <g fill="#d8d1bf">
  <path d="m549.62 616.36q-55.121 3.0629-96.95 7.1798-7.5343 0.8905-16.331 2.2439-48.603 7.9763-55.807 8.8844-3.9989 0.73177-38.811 4.7406l-27.449 3.9172q-7.4388 1.1176-14.95 2.9433-14.261 3.6046-22.718 7.9544-1.2226 0.2931-14.28 10.423l-9.7954 5.8022q-3.4823 2.841-3.1398 5.142l300.19-59.222"/>
 </g>
 <g fill="#d8d1bf">
  <path d="m212.15 617.42l-15.055-8.6874q-1.8944-1.0577-3.8788-1.8822-1.456-0.60962-3.1586-1.1203l-11.177-3.1384-15.098-5.1976q-4.14-1.2957-8.6064-2.1014-1.0852-0.3084-11.617-1.5059-3.375-0.49784-6.0906-1.1196-5.9471-1.3954-27.797-8.1568-4.4869-1.2086-6.3424-1.0024l111.5 41.759q1.6832-4.8028-2.5752-7.7786"/>
 </g>
 <g fill="#d8d1bf">
  <path d="m196.8 625.04q-0.40976-0.27766-0.96798-0.479-8.5852-2.8917-9.5428-3.4052-2.0831-0.8008-9.7919-4.5422-2.2443-1.0036-4.4056-1.8241 0.04692-0.20354-15.607-5.061-36.438-11.112-37.634-11.179-15.483-4.0393-18.167-3.4602l98.68 38.694q-1.6225-4.2722-1.5411-7.4086-0.27823-0.83905-0.97595-1.3026"/>
 </g>
 <g fill="#d8d1bf">
  <path d="m185.01 640.64q-1.3902-0.9458-3.4453-2.0706l-5.932-3.0691q-8.5454-4.8529-9.4644-5.1653-13.582-5.573-15.961-6.1384-6.2701-2.0222-15.023-3.9172-2.494-0.61825-12.303-2.1272-14.51-3.4442-22.484-4.5799l91.241 38.056 0.07982 0.02225q-0.42082-0.48969-0.68122-1.0002-0.17535-0.32696-0.31339-0.808l-0.12116-2.7522q-0.13115-0.7864-0.66665-1.6883-1.6367-2.4596-4.8494-4.7108"/>
 </g>
 <g fill="#d8d1bf">
  <path d="m442.09 281.73q-2.3286 0.2491-0.31232 0.042m-1.0668 0.10417q-6.0352 0.49463-22.29-0.38027-5.8914-0.35526-11.117-0.84528l-17.981-1.8421q-6.2821-0.50904-14.636-0.81748l-55.418-1.1017q-12.281-0.18418-20.189-0.01309-7.8804 0.18869-17.454 0.84161l-35.842 2.826q-6.9146 0.56324-29.897 3.9484-16.263 1.552-21.376 2.532-3.7878 0.61933-7.4584 1.7515l-10.51 4.0547q-6.313 1.5316-7.5622 2.124-4.0866 1.4567-16.574 7.5074-1.4841 0.71825-2.5999 1.7528-3.7655 4.4466-5.6658 5.9108-1.0495 1.0807-4.597 1.9403l-2.4464 2.4439 303.58-32.627"/>
 </g>
 <g fill="#d8d1bf">
  <path d="m446 304.14l-12.069 1.4748q7.2948 0.55109 11.872-1.3848m-11.889 1.3837q-4.6502-0.1095-16.803-3.1128-3.2552-0.55142-7.7435-0.92754l-38.998-1.9227q-6.4702-0.28157-11.948-0.2856-5.5526 0.00577-9.4816 0.2382-63.8 4.1231-74.945 4.3331-8.9703 0.54999-15.831 1.4861-9.3285 1.2279-21.826 3.543-36.525 7.5619-43.791 8.7964-5.304 0.97388-17.564 2.2032-2.6227 0.34018-5.5439 0.86255l-18.204 3.9923q-7.0436 1.8335-19.671 8.9434l-8.0293 2.6932q-1.0666-0.18997-8.0511 8.0195l318.21-38.833"/>
 </g>
 <g fill="#d8d1bf">
  <path d="m144.39 330.77q-7.8136 0.6001-17.251 5.2813-4.2096 1.8778-12.151 9.1168-0.83195 0.3364-7.7997 9.5088l-4.7276 8.0448-4.8883 6.8246q-2.4091 3.5431-5.6511 12.201-4.1485 11.393-6.067 18.55-1.6809 6.9609-3.4699 21.274-0.94963 8.0127-0.89226 15.688 0.028412 3.1729 0.25771 6.3157l0.99177 10.663q0.21099 3.9723-0.02637 7.7963-0.15188 2.6459-0.66891 5.7148-3.9533 17.136-5.2406 28.317-1.7479 14.155-0.17392 16.099l67.737-181.34"/>
 </g>
 <g fill="#d8d1bf">
  <path d="m149.91 353.74q-3.331-0.60647-5.0066 1.61-10.255 12.714-12.097 16.554-2.275 3.9503-4.0988 7.8252l-10.465 23.36q-12.103 23.732-14.752 30.861-3.1115 7.788-5.4058 19.442-3.0351 15.396-4.1552 29.158-0.59825 3.8735-1.7832 8.5447-4.2915 16.799-13.022 38.572l70.721-175.77"/>
 </g>
 <g fill="#d8d1bf">
  <path d="m485.6 320.93l-8.3803 45.468-36.551 102.13-35.802 60.623q0.60486 1.4988 1.2382 1.4988 0.02967 0 0.05939-0.0033 39.5 8.0864 149.91 33.122l-89.424 20.015-112.89 4.4995-131.14 8.1228q-106.31-43.262-126.18-43.262-0.15903 0-0.31252 0.00275 40.437-54.905 72.509-212.94l32.655-1.2793 110.46-8.0629 67.169-7.3134 106.5-2.6106 0.18237-0.00445zm2.1443-3.607l-109.3 2.6938-67.17 7.3129q-126.06 9.6867-141.92 9.6867-2.8721 0-2.1299-0.31772h-0.00168q-0.98367 0.06344-1.4122 0.64359-23.323 105.52-37.793 142.8-24.759 66.894-41.124 76.619 1.5192-0.89605 4.7576-0.89605 23.034 0 133.05 45.333h2e-5q0.41483-0.2026 0.81445-0.36365 1.9475-0.74195 5.2074-1.0712h0.0023l-0.58894-0.2608 123.7-7.662 112.89-4.502 97.927-22.18q3.9933-2.7294-9.6164-5.4202l-145.52-32.161 34.527-57.918 36.57-102.13 8.9065-48.285q0.22883-1.302-1.6276-1.9156l-0.14344-0.0058z"/>
 </g>
 <g fill="#d8d1bf">
  <path d="m486.55 320.11l-0.06546 0.00162-107.95 2.6684-66.907 7.2882-110.96 8.0956-32.531 1.2587q-33.575 163.37-74.107 214.73 0.89903-0.13114 2.0527-0.13114 21.149 0 127.88 44.075l130.45-9.0555 112.45-4.4872 92.454-20.73-153.52-34.36 35.675-60.852 36.381-101.6 8.6958-46.901z"/>
 </g>
 <g fill="#f1e59f">
  <path d="m447.88 551.92l3.2451 3.3104q-0.19488 0.481-0.10004 1.0577 0.13772 0.74095 0.77417 1.2215l1.4318 8.8787q-4.1414-7.3388-5.0878-10.009-0.51596-1.4038-0.55441-2.2182-0.01532-0.34166 0.01489-0.5484 0.14371-0.56005 0.27231-1.6638m10.18 22.738q0.26371 0.28325 0.01778 0.03087m-3.2162 1.1596q0.00635 0.7467-0.00812 0.0318m-8.3603-30.111q-1.5366 0.11524-1.9052 1.5787l-0.87198 6.3981q-0.05029 1.3979 0.521 3.1541 0.91013 3.5232 9.9496 18.873l0.42762 0.7046q0.23035 0.3683 0.41214 0.6058-0.06363-0.06417-0.00671 0.01243 0.1488 0.19367 0.31992 0.3396 0.64318 0.55257 1.3892 0.56537 1.9771-0.1219 2.0374-2.3332-0.01315-0.21355-0.03393-0.0841l-1.3049-7.6438-2.0249-12.462q0.18134-0.59271-0.00399-1.1806-0.56998-1.15-0.72361-1.214-0.25885-0.26911-0.59915-0.42506l-6.2391-6.3481q-0.54825-0.5193-1.3261-0.5405"/>
 </g>
 <g fill="#f1e59f">
  <path d="m445.27 550.78l7.513 4.5216q1.8729 13.039 2.4434 16.577-7.7522-13.91-8.8453-16.357-0.63043-1.3211-0.83819-2.0991l-0.26764-2.5911-0.00528-0.051z"/>
 </g>
 <g fill="#010200">
  <path d="m451.83 556.66q0.53699 1.957 0.03516 0.13415m-67.501-214.88q4.1456 0.43344 8.9803 15.355l8.5138 30.343 7.0022 23.478q12.202 40.024 42.936 138.29l1.5574 6.2833q-2.8183-0.74963-3.799 2.1056-1.9186-1.1648-3.1994-0.9879l-51.743-170.92 0.52487-0.50973q-7.016-17.394-9.8259-26.787-4.54-14.789-1.0201-16.648m65.204 216.02q1.441 1.4484 0.02814 0.02875m-2.2783-0.01985q-0.22168 1.4714-0.03333 0.2209m-62.832-218.48q-6.5329 0.5557-1.8877 17.138 2.4764 8.7579 7.6044 21.822 23.364 76.594 53.473 176.8 1.7902 6.2003 2.8707 5.4539 1.1327-0.28576 1.2234-1.604 1.6589 0.9846 2.5256 0.7166 1.0038-0.14267 2.005-2.2953 2.7383 0.96153 3.3847-0.20936 0.31444-0.41384 0.19397-1.3649l-1.5402-6.3611q-32.706-104.71-42.936-138.32-6.1197-19.585-16.113-55.715-5.0742-15.835-10.77-16.058"/>
 </g>
 <g fill="#010200">
  <path d="m384.08 341.75q4.5206 0.04202 9.3951 15.258 0.39701 0.3402 8.5898 30.58l7.077 23.723q10.972 36.057 42.82 137.91l1.6537 6.7453q-0.71814-0.2981-1.3303-0.2981-1.7294 0-2.6129 2.3793-1.8533-1.0742-2.933-1.0742-0.28769 0-0.52045 0.0762l-51.788-171.06 0.54043-0.48178q-6.9862-17.319-9.8009-26.683-4.6432-15.187-1.0925-17.069l0.00187-5.2e-4z"/>
 </g>
 <g fill="#181502">
  <path d="m290.58 543.21q-5.8652 3.0001-10.879 9.6113-3.0484 3.5816-5.4852 11.714-0.46452 0.7934-0.76564 7.3472-0.2099 0.66778 1.6156 9.6846 0.68649 2.8427 4.5094 4.0038 0.9967 0.3574 5.1888 0.576l3.5125-0.29686q4.8471-0.11988 6.3243-0.34088 1.4516-0.10492 4.265-1.106l1.719-0.28736 3.1306-1.0836q5.8589-1.112 6.8538-1.5334 2.3027-0.1474 4.8988-0.78474l5.2297-0.27025q0.93894-0.08899 1.7993-0.33165 2.3006-0.60274 8.2772-2.9522l7.7169-3.909q2.3606-1.1094 3.3709-4.3836 0.47987-5.2917-0.32455-7.2515-0.75342-2.1728-4.5856-6.538l-46.266-11.841"/>
 </g>
 <g fill="#181502">
  <path d="m260 537.21l-0.67279-0.1273q-0.67278-0.12735-1.505-0.2033-0.83225-0.07584-2.0281-0.4039-1.1959-0.32807-2.3072-0.4064-1.1114-0.0783-1.8878-0.17893-0.7764-0.10071-1.5867-0.09137-0.81034 0.00934-1.6201 0.07916-0.80981 0.06984-2.7789 0.14144-1.9691 0.07163-2.5821 0.10154-0.61305 0.02991-1.3256 0.24542-0.71256 0.21554-1.7638 0.68904-1.0513 0.47356-1.9024 0.65325-0.85108 0.17969-2.0342 0.38195-1.1831 0.20234-2.4589 0.355-1.2758 0.1525-2.2236 0.3615-0.94782 0.2089-1.6671 0.65985-0.7193 0.45085-1.5811 0.94489-0.86178 0.49401-1.5811 0.94486-0.71929 0.45095-1.4883 0.99465-0.76903 0.5437-1.495 1.23-0.72605 0.68625-1.3593 1.4223-0.63327 0.73593-1.081 1.5713-0.44775 0.8355-0.90223 1.9062-0.45452 1.0708-0.71674 2.0056-0.26222 0.93484-0.28246 1.641-0.02021 0.70604 0.10207 1.3691 0.12228 0.66296 0.29433 1.2331 0.17202 0.57016 0.43682 1.1901 0.2648 0.6198 0.53634 1.0044 0.27154 0.38445 0.73533 0.63304l1.2059 0.6463q0.74206 0.39771 1.2556 0.55356 0.51354 0.1557 1.1198 0.3612 0.6063 0.2054 1.7692 0.70915 1.1628 0.50385 2.1967 0.57995 1.0338 0.0762 1.5971 0.13904 0.5633 0.06296 1.2691 0.08276 0.70581 0.0199 1.4546 0.18225 0.74885 0.16235 1.5474 0.23185 0.79859 0.0696 1.9749 0.1026 1.1763 0.03305 2.1604 0.20205 0.98406 0.16901 1.6401 0.28165 0.65605 0.1126 1.4976 0.32474 0.84156 0.21206 1.4976 0.3247 0.65608 0.11261 1.7329 0.33136 1.0768 0.21863 1.9837 0.30677 0.90686 0.08819 1.6608 0.17243 0.75398 0.0843 2.1879 0.37566 1.4339 0.29144 2.3682 0.55324 0.93431 0.2618 1.5904 0.37444 0.65604 0.11261 1.2194 0.17559 0.56328 0.06293 1.1763 0.03297 0.61303-0.02985 0.75555-0.07294 0.14252-0.04316 0.80533-0.16586 0.66277-0.12266 1.3426-0.2944 0.67992-0.17176 1.5313-0.8522 0.85144-0.6802 1.2427-1.1875 0.39127-0.5072 0.95787-1.2718 0.5666-0.7645 1.0624-1.169 0.49579-0.40446 1.0912-1.2146 0.5954-0.8101 1.4344-2.1528 0.83902-1.3426 1.3739-2.3405 0.53485-0.99795 1.198-2.2352 0.66317-1.2374 1.2663-2.3626 0.60309-1.1252 1.3074-2.4393 0.70434-1.3141 0.96698-1.8041l-13.715-7.8287z"/>
 </g>
 <g fill="#91897e">
  <path d="m277.55 560.58l-8.0121 8.2993q0.26124-0.20296 1.3976-0.65816 2.7348-0.92374 5.306-1.9714 1.757-0.76892 1.9521-0.8761 0.2583-0.10996 0.4211-0.28036 0.2905-0.3041 0.34283-0.8577 0.02771-0.83264-0.14557-1.577-0.17481-0.79934-0.55933-1.422-0.38556-0.64895-0.68969-0.65633"/>
 </g>
 <g fill="#91897e">
  <path d="m277.88 562.64l-7.9948 6.3683q0.60696-0.12547 1.4256-0.27297l1.3524-0.3691q0.20499-0.05874 1.0952-0.17055 0.27135-0.05359 0.54985-0.16095 0.5526-0.2307 1.0436-0.5122 0.1944-0.11445 0.33898-0.2254 0.11815-0.0841 0.4008-0.3518 0.11194-0.0906 0.24585-0.1733 0.13905-0.086 0.29483-0.1646 0.621-0.28804 0.87759-0.4316 0.41883-0.2316 0.54285-0.3365 0.49313-0.34 0.48566-1.1448-0.05528-0.5737-0.26208-1.3553-0.14008-0.4391-0.39292-0.69586"/>
 </g>
 <g fill="#91897e">
  <path d="m285.18 541.79l-0.00351 3e-4m-35.219-28.096q1.8818-0.04107 6.094 0.85211 19.417 4.9138 22.714 5.3473 6.6512 1.2339 12.194 1.3125 4.8529 0.06737 10.384-0.90505 2.8761-0.50025 6.5128-1.4408 14.244-4.1485 14.744-4.0597 4.016-0.85267 6.6901-0.32077 3.0779 0.57 6.0644 3.0893 1.3522 0.81856 8.1922 9.1231 1.422 1.4546 3.066 2.3099 1.091 0.57795 2.5482 0.9537 7.2357 1.0408 8.3983 1.8364 1.0307 0.13935 10.75 6.575 1.9886 1.1466 3.186 1.5422 1.1216 0.42394 2.5408 0.4594 0.81265 0.1048 3.919-0.64215 0.17982-0.06445 0.68257 0.1377 3.2419 4.0404 3.4935 12.929-0.09991 6.8737-3.7076 10.201-3.1984 3.0401-10.389 4.7914-3.3014 1.0806-22.317 3.2048-2.3577-0.0112-3.6711-1.1492-7.011-7.4114-8.0693-7.6556-2.2012-1.417-4.473-1.5504-1.5448-0.1101-3.5439 0.2554l-12.453 3.0615q-3.7204 0.7737-8.2524 1.1773-11.22 0.9884-29.075 0.37375-0.2317-11.623 1.7178-15.366 1.3939-3.6888 8.8298-6.2655 0.84267-0.78885 0.43109-1.7246-0.5051-1.1923-3.1754-0.9213-1.4223 0.1058-2.6901 0.3617-6.1421 1.4739-7.5879 1.6014-3.1216 0.41413-5.8104 0.22967-5.9409-0.3706-9.7289-3.1832-5.2894-3.6197-11.321-19.375-2.4669-7.5605 3.0641-7.1657m0.04923-2.5987q-14.564 0.41143 3.7678 28.489 8.1285 9.3348 25.359 5.1724-3.7766 2.741-4.7437 8.069-1.4698 10.961-0.1276 15.237 0.4772 0.2293 0.66894 0.19097l16.974 0.06807q7.923-0.0899 13.444-0.5879 4.2914-0.37616 7.7564-1.0452 2.3331-0.344 12.467-3.0621 2.3432-0.50965 3.7626-0.4015 1.8738 0.0344 4.096 1.7156 0.9408 0.5389 5.9151 5.9532 1.0395 0.99467 1.9038 1.516 2.0482 1.2373 4.5837 1.1813 20.423-2.2482 23.798-3.514 7.6449-2.0365 11.109-5.6731 4.1754-4.3799 4.0356-12.384-0.72674-10.846-4.6175-14.296-0.5829-0.45743-1.7363-0.5792-0.2297-0.1763-3.9151 0.6125-1.1151 0.065-2.0689-0.2874-0.99787-0.31686-2.798-1.364-9.6262-6.3898-10.941-6.6732-1.1883-0.5286-2.6327-0.8986-0.7568-0.2557-5.7096-0.9797-1.1868-0.22783-2.3788-0.7985-1.369-0.68733-2.55-1.9058-6.8463-8.368-8.5649-9.4472-3.326-2.732-6.8619-3.4419-2.5915-0.61179-6.7591 0.08317-1.6057 0.26814-3.997 0.8887-13.408 3.9694-16.474 4.4587-6.3167 1.2865-11.631 1.2161-5.1243-0.0363-11.917-1.2817-2.7855-0.32616-22.707-5.349-4.079-0.87034-6.3825-0.8818"/>
 </g>
 <g fill="#91897e">
  <path d="m250 513.25q1.4048 0 3.308 0.321 1.8481 0.29614 4.5224 0.9207 16.201 4.1591 20.118 4.7984 7.6144 1.4475 13.146 1.4744 0.18271 0.00136 0.36586 0.00136 5.5191 0 11.47-1.2157 3.1829-0.493 17.127-4.6106 2.1841-0.57379 4.2077-0.88465 1.3891-0.23144 2.6775-0.23144 2.4552 0 4.5451 0.84034 2.5232 1.0251 4.7769 3.1133 1.0221 0.6627 7.5079 8.5108 1.3904 1.4503 3.0202 2.3078 1.0779 0.57562 2.5329 0.94456 7.0909 0.9877 8.541 1.9025 1.0069 0.1507 10.677 6.5475 1.9681 1.138 3.1821 1.5299 0.85174 0.41 2.213 0.41 1.7096 0 4.2228-0.6467 0.77218 0.0726 1.181 0.61113 3.921 6.6663 3.0206 15.822-0.94242 6.8616-6.6269 9.7361-3.8126 2.0833-9.9133 3.2844-2.0405 0.61328-19.918 2.7038-0.01996 4e-5 -0.03982 4e-5 -2.3702 0-3.6065-0.90226-0.71235-0.45874-1.4578-1.1795-4.9599-5.4474-6.273-6.2437-2.5475-1.8805-4.9232-2.0199-0.36528-0.0406-0.79972-0.0406-1.2197 0-2.9845 0.32017l-12.106 2.9949q-4.0826 0.8392-8.4708 1.2132-6.6751 0.606-16.39 0.606-5.9576 0-13.058-0.2279-0.38367-11.891 1.6898-15.994 0.78372-1.7242 2.3869-3.0824 1.3848-1.3824 6.4725-3.2807 0.70766-0.4821 0.38239-1.3137-0.16476-0.6446-1.899-0.6446-0.52244 0-1.1873 0.0585l-2.365 0.346q-5.7284 1.3805-7.278 1.5522-2.3018 0.32392-4.3802 0.32392-0.70929 0-1.3925-0.03772-6.2614-0.35169-10.071-3.103-4.8895-3.1004-10.651-16.822-3.4919-8.4076-0.35826-10.147l0.00992-0.0055q0.98605-0.562 2.8449-0.562z"/>
 </g>
 <g fill="#91897e">
  <path d="m352.83 511.12q-6.8592 0.27319-8.5635 1.4316l-7.6608 3.4728-5.2044 2.9664q-1.6555 1.0473-3.2253 2.3711-2.6904 1.8828-7.6173 10.147-1.6098 2.6295-2.4996 9.3369l48.883 15.437q0.39845-0.53274 2.3164-1.4962 1.4409-0.78264 3.4278-1.2383l2.366-1.4836 3.5735-1.6931q1.7491-1.0478 2.9299-3.752 1.8116-6.7424 1.6309-8.8484 0.10105-1.4055-0.2309-3.8975l0.03757-11.01q-0.26505-3.3765-0.42912-3.4283-0.90056-2.2462-2.3687-3.3786-0.26285-0.1818-0.62687-0.2928-2.8563-0.57825-2.9944-0.726l-1.412-0.5881q-1.4138-1.0474-1.9178-1.1429l-3.7515-0.6775q-0.62014-0.16445-2.7735-1.0295l-1.064-0.2331-4.0896-0.24337-8.6384-0.00385"/>
 </g>
 <g fill="#b6b6ba">
  <path d="m233.3 475.8q-3.5908-0.11767-2.5579 1.2117 1.9921 2.7116 3.5087 6.6797l6.1386 8.3003q0.69432 0.84387 1.692 5.2397 0.71109 1.8055 2.2356 4.9371l2.7914 3.9q0.74578 1.0794 1.383 2.5794 1.0435 1.2183 1.2036 1.5799l2.6885 5.637q0.28851 0.433 2.8352 1.7657 2.0185 1.0042 4.0818 1.5444l3.1676 1.8458q6.513 1.5888 6.0663 1.6408 1.0123 1.2221 4.3813 3.3761 0.94418 0.54765 4.2843 1.4037l2.843 1.7305q0.50573 0.1928 1.4376 0.1978l4.2678-0.0484q0.52716 0.0201 2.9156-0.7638 6.3592-0.5893 8.7737-1.4563 6.4948-0.3697 6.5806-0.4806 9.9665-2.2459 9.9417-2.5413 1.414-0.3666 1.2374-1.914-0.57855-5.2881-1.5672-6.6122l-26.768 6.1423q-0.21083-1.2503-0.527-1.7422-1.2556-1.2484-1.4901-2.339l-1.2194-1.3263-1.3209-2.2089-2.4869-5.4945q-0.74197-1.7786-0.9377-2.4746-0.4478-3.127-1.5122-6.075l-2.8225-5.9969q-3.0095-8.3412-3.17-9.2147-0.3659-0.93381-0.86355-1.3602-0.47522-0.3714-0.93546-0.3733l-1.6501 0.03355-2.5721-0.419q-3.0566 0.10906-3.1026-0.09272-1.8476-0.53758-4.6242-2.5118l-8.5383-2.48q-8.4033-1.864-15.722-1.8194"/>
 </g>
 <g fill="#b6b6ba">
  <path d="m288.98 516.16q-0.76801-0.0339-4.8073 0.29744l-4.5884 0.67602-3.9815 0.83364-5.4381 1.3487 8.7025 6.205 1.325 0.14285q2.0589 0.02353 3.4054 0.145 0.65784 0.0386 2.5163 0.28356 0.40347 0.04578 0.81164 0.07294l2.3889 0.0699q4.0347 0.36284 4.9533 0.31816 0.92947 0.02887 3.6334-0.14349 2.1592-0.01607 2.5698-0.04962 1.1964-0.05795 2.2217-0.21009 2.7078-0.46283 5.2341-0.96116 0.75047-0.138 2.4688-0.3628 0.63486-0.1034 1.1897-0.2301 2.5124-0.55617 2.2698-0.9644-0.96422-1.1046-1.6509-1.3634-0.26384-0.1521-1.815-0.6882l-1.7143-0.7719q-0.06909-0.04964-2.317-0.7882-0.8555-0.2573-1.7101-0.39407-0.28415-0.04483-0.61752-0.07043-1.0302-0.0213-1.3363-0.06226-0.41084-0.03308-0.9489-0.16931-2.1016-0.67033-4.1791-1.2447-1.997-0.78324-2.247-0.8335-0.87926-0.27204-1.7846-0.4746-0.63642-0.17304-3.2404-0.52804-0.4881-0.07286-1.2271-0.0825"/>
 </g>
 <g fill="#b6b6ba">
  <path d="m231.86 473.91q-3.5784-0.14286-3.3429 0.57693 1.0687 0.94267 1.5427 2.0879 1.3873 3.7181 1.9029 5.7973l0.99584 2.2738q1.1937 2.5133 3.9272 5.6792 1.9475 5.637 2.8396 7.3098-0.04408 0.32894 3.3367 5.0491 1.1634 2.1969 2.2464 4.914l4.8333 5.6768 0.57364 0.89836q0.77072 1.9964 0.99136 2.01 0.65657 0.59643 2.2828 1.1702 0.45386 0.2189 2.3209 0.5564l1.9775 1.0365 2.8135 0.8306q0.82462 0.3019 2.6516 1.4459l1.6283 0.7143q1.2508 0.4852 4.709 1.3308 2.4031 1.0175 4.8939 1.8056 2.1348 0.866 8.7437 1.4476 0.31171 0.02008 0.23784-0.05226l-25.186-43.784q-0.44031-0.28746-0.96457-0.44043-1.5862-0.29363-3.2545-0.87098-4.112-0.54335-4.5863-0.84817l-2.863-1.6556q-2.25-0.71619-3.2404-1.2194-1.2522-0.56024-2.8573-1.6913l-0.88927-0.38026q-0.66257-0.23933-2.8729-0.55806-1.1748-0.65668-2.2854-0.85641-1.0384-0.25095-3.0528-0.25348"/>
 </g>
 <g fill="#b6b6ba">
  <path d="m272.69 519.36q0.75726 0.385 2.4261 2.5477 0.4072 0.54434 0.7136 1.0943 1.1266 2.4015 1.5615 2.9687 1.0022 1.4416 2.2543 2.6633 1.2272 1.1442 2.1809 1.5212 0.42873 0.17844 1.0488 0.3093 0.17043 0.0506 0.94357 0.08545l0.74986 0.12435q-0.16255 0.06253 4.0077 0.0285 0.31678 0.02933 3.774-0.2352l3.6486-7e-4 1.5782-0.116q2.1475-0.054 3.1452-0.12035 1.1321-0.06145 1.6003-0.15795 0.56754-0.09767 1.4209-0.32496 1.3471-0.35654 2.4138-0.73534l0.97288-0.2268 4.6861-1.5636 1.3662-0.34514 5.2042-1.8133q1.123-0.60816 1.9731-0.7761l-47.629-4.9232"/>
 </g>
 <g fill="#91897e">
  <path d="m284.89 517.17l8.5695 12.098 16.356-6.4298-24.925-5.6688z"/>
 </g>
 <g fill="#fffefb">
  <path d="m381.36 480.83l-17.042 32.189q0.62247-0.61556 2.0783-1.3155l0.96204-0.35251q2.065-0.37857 3.0782-0.81119 1.2091-0.47018 2.7206-1.4904 1.6204-1.017 7.5273-5.9473 1.7013-1.4172 2.424-2.7664 0.47928-0.91309 1.0464-2.7286 0.17541-0.53333 0.25128-1.2445 0.14783-1.5556 0.14102-2.5109l-0.20607-4.9732q-0.29448-2.1878-0.9762-3.9527 0.08422-0.13459-1.9878-4.0651"/>
 </g>
 <g fill="#fffefb">
  <path d="m373.39 451.6q-2.021 0.33023-2.5782 0.67956-2.4285 1.387-3.5272 2.3623-0.21157 0.15125-0.60229 0.20276l9.4384 29.316q0.0617-0.31696 0.24667-0.79813 1.3901-3.2032 1.7605-4.4136 0.5141-1.5 0.94873-3.578 1.041-5.3109 0.67187-8.6091-0.51196-5.609-0.61258-5.6621l-0.75212-4.0046q-0.25856-1.0959-0.65523-2.0678-0.98565-2.2399-1.8359-2.9129-1.1512-0.76058-2.4949-0.51565"/>
 </g>
 <g fill="#040300">
  <path d="m340.95 366.22q-0.50126-0.0822-2.4192 0.56713l-4.999 2.2454-1.6966 1.6052-2.4562 1.5482q-0.62556 0.48407-2.5106 2.8003-1.3284 0.89675-1.9493 1.7677-0.85941 0.99904-1.5326 2.5587l-2.8588 3.9108-2.0738 4.3348q-1.3932 4.171-0.42657 6.4638 0.14022 0.48636 0.9031 1.76l36.907 12.521q1.6759-2.5389 2.5685-4.5265l0.83206-2.1495q1.0526-1.8932 1.9357-3.9253 0.2505-0.59882 0.43034-1.6208 0.08933-0.5629 0.07132-1.1446l-0.22971-4.2118q0.21215-3.2913 0.0944-3.1781-1.1721-4.8346-1.687-6.0458-0.27857-0.78562-0.52063-1.198l-0.75507-1.0984q-0.80774-1.7928-2.4339-4.1898-1.629-1.942-2.481-2.703l-3.3479-1.8496-2.1987-1.8813q-2.0813-0.93625-2.9469-1.542-4.1147-0.9775-4.2188-0.8181"/>
 </g>
 <g fill="#040300">
  <path d="m344.12 356c-0.7753 0.35072-1.4974 0.81932-2.1448 1.4092-4.0696 3.7083-3.6418 10.804 0.95554 15.85 3.866 4.2425 9.4493 5.6837 13.548 3.8296 0.7753-0.35074 1.4974-0.81936 2.1448-1.4092 4.0696-3.7084 3.6418-10.804-0.9555-15.849-3.866-4.2426-9.4494-5.6838-13.548-3.8296z"/>
 </g>
 <g fill="#ffdcba">
  <path d="m335.2 429.67q9.7e-4 0.22188-0.0086 0.22188-0.00657 0-0.01803-0.10356l0.02327-0.11832zm40.069 27.967q-0.64082 9.6476 1.6855 20.697 0.74914 3.0478 1.6621 4.6566 0.69418 1.56 3.7851 4.618 0.41779 0.4975 0.59165 1.7955 0.23913 4.8927-2.772 9.3508-1.937 2.9455-6.3662 4.5031l-18.45 4.2335q-3.6231 0.93109-16.963 6.4407l-3.9879 1.1542-10.233 1.4628q4.8817-5.3385 5.9958-8.4491 0.50018-1.2678 0.62472-2.7454 0.15107-0.74122-0.16488-5.4247 0.05532-1.1132 0.24679-1.3893-0.33941-0.48554 4.4947-3.3345 0.81537-0.7703 0.97364-1.4751 0.22232-0.82758 0.04214-1.6938-1.2721-3.5233-1.1534-4.5209-0.08664-1.6578 0.73153-7.1014 1.0187-7.7315 4.182-12.097 3.2952-4.6676 10.091-6.5695 3.1546-0.95193 7.2242-1.6165l17.742-2.492 0.01337-0.00284zm-63.561 62.035q0.31848 0 0.67214 0.0266l0.03849-1e-3h0.00311q-1.867 0.7973-3.5865 1.9438 0.13444-1.9694 2.8728-1.9694zm-1.9627 4.4115q0.81552 0.02375 0.81552 0.0238h-3e-5q-0.00217-5e-5 -0.8013-0.02324l-0.01727-5.6e-4zm22.894-140.06q1.2306 0 1.3753 0.67389-0.25955 6.6965 1.7864 8.2042 0.92546 1.146 2.9177 2.474l6.1154 3.4689 3.5698 4.0783 0.20031-0.20032h0.00348q-0.43548 0.567 0.23883 0.567 0.01926 0 0.0394-4.7e-4 0.31265 0.14069 0.58523 0.14069 0.79368 0 1.2476-1.1929l-1.7127-6.4369q-0.30438-1.7867 0.3761-3.301 1.0412-1.5646 2.5115-1.5646 1.1557 0 2.5766 0.96664 1.5339 1.2408 1.6607 5.3713 0.03289 1.7315-0.20618 3.4749-1.4999 5.7666-1.0483 5.7666 0.0025 0 0.00507-2e-4 0.14669 1.5438 2.0996 4.2 2.6995 3.6115 6.3734 6.4119 2.9972 2.287 8.7344 4.7685 5.1324 3.6083 7.8232 5.9767 5.539 4.7805 8.8012 10.401 3.8243 6.4428 5.5047 16.663 1.0818 4.6378 3.3652 31.547l1.9421 13.513q0.16978 4.6289-4.1061 8.0529-4.6753 3.7843-15.678 8.0784-12.226 4.65-18.799 5.9663-20.479 3.8281-27.952 3.8281-0.03687 0-0.07343-1.4e-4 -0.22537 0.0636-0.80392 0.0636-2.7803 0-13.717-1.4686-0.26512-0.00727-0.52997-0.00727-3.162 0-6.2912 1.036 0.55326-1.9163-0.0769-2.6083 2.9828-1.7224 8.7141-3.04l16.606-2.8171 18.851-7.0556q1.8466-0.832 15.707-3.4424 2.6982-0.64363 4.8006-1.5502 8.5667-3.8629 9.3491-14.8 0.03842-1.7684-0.63844-3.2807l-3.9056-4.8322q-0.9668-1.6047-1.6715-4.6459-0.926-4.031-1.421-9.6371-0.66703-7.8697 0.04834-11.626 0.03076-0.5307-0.59656-1.1523l-19.629 2.522q-5.0254 0.78629-8.711 1.9638-8.874 2.5613-12.66 10.41-2.382 4.5792-3.4064 14.735-0.67407 3.7598 1.0823 8.2346l-3.9515 2.8074q-0.73808 0.58943-1.2751 1.511-0.50946 0.97126-0.58178 2.1377 0.48126 6.5084-0.24148 7.6247-0.64414 2.3371-5.2832 7.519-2.0364 1.8294-4.1288 2.2816l-9.4443 0.84565q-1.7176 0.45265-2.7738 3.2128-2.7204-0.9314-3.9078-0.9314-0.5746 0-0.7902 0.21806-1.0431 0.09244-3.047 3.8794 0.07709-4.951-2.9294-4.951-0.14732 0-0.30202 0.01193l1.0478-5.5831q0.46649-1.2128 1.8191-1.7939 2.5509-0.96958 5.5214-0.96958 3.4496 0 7.465 1.3076 1.7564-0.20233 3.8722-2.3254 3.4747-3.5725 8.3389-11.195 5.2109-8.1294 7.3954-14.7 0.0402 2e-3 0.07935 2e-3 0.92755 0 1.2906-1.1039 1.938-17.724 3.0054-51.166l6.5872-5.3454q0.57877-0.59934 3.7765-0.93274 0.74286-0.25675 1.008-0.52708 1.119-0.9115 1.2438-3.1908-0.32291-2.9196-2.4918-2.9196-0.08341 0-0.16953 0.0043-0.03921-0.0597-0.16684-0.0597-1.0076 0-7.5256 3.7208-0.66022 0.22205-1.1406 0.22205-0.6239 0-0.94445-0.37458l-0.33145-0.67663q0.18228-2.0966-0.37546-2.7534-0.67627-0.85763-2.4324-1.0409 0.5232-1.858-0.24876-2.9223-0.25975-0.72568-3.3003-1.218 1.5195-4.8598 0.0059-6.7409l-5.9633-6.5578q-1.8601-2.406-2.7204-4.4681-4.0494-8.5843 12.298-11.751l0.1602-0.00195q0.09014-0.0032 0.1751-0.0032zm-0.1388-2.4818q-15.333 2.5703-15.743 10.709-0.13464 3.0785 2.3778 7.2183 0.87306 1.4341 2.2466 3.0726l4.415 4.5857q0.75302 0.8081 1.0134 1.4693 0.01889-0.00595 0.03584-0.00623h0.00325q0.48068 0.00794-0.67313 4.7026-0.01178 1.0285 0.21838 1.3688 0.4839 1.3219 3.4468 1.6774-0.35108 1.7871 0.08975 2.6514 0.45245 0.99606 2.5637 1.2915-0.13386 2.4916 1.1676 3.6891 1.1584 1.0607 2.6856 1.0607 0.58047 0 1.2142-0.15326 0.02011 0.00283 0.04441 0.00283 0.85238 0 6.8487-3.4884 0.5914-0.24026 0.80093-0.24026 0.20444 0 0.04537 0.2287-0.00338 1.1636-0.29848 1.4204-2.9943 0.34976-4.1761 1.0869-0.79396 0.15594-6.0272 5.0468-0.09854-0.0533-0.19305-0.0971h-0.00332q0.02767 0.27936 0.04797 0.62643 0.02041 0.38767-0.11115 0.73537-0.19876 0.55028-0.94229 1.1867l-0.90631 0.76108h0.00332q-0.30599 16.815-2.6078 47.941l-0.88553 0.8624q-2.3255 7.2201-6.2277 13.547-5.0052 8.3079-9.1703 12.962-2.0164 2.1258-2.9827 2.1258-0.00935 0-0.01858-2.1e-4 -3.6414-1.3377-7.0892-1.3377-3.7476 0-7.2663 1.5806-1.723 1.0483-2.3784 2.8112l-1.4446 7.4819q-0.07593 1.8105 1.9284 1.8105 0.55922 0 1.2804-0.1409 0.14588 5.5912 1.7681 5.5912 0.06439 0 0.1311-0.0088 0.09497 0.00645 0.18756 0.00645 1.0578 0 1.8043-0.84065l2.9562-4.0874 3.9554 0.94715q-1.8864 1.7132-1.0929 2.89 0.31633 0.57905 0.973 0.57905 0.90016 0 2.4398-1.0882h0.00308q-0.18838 2.1038 1.4424 2.3556 0.05915 0.15369 0.10694 0.15369 0.13763 0 0.18081-1.2754l0.07772 1.1558q4.592-1.1829 6.894-1.1829 0.30106 0 0.56296 0.0202 10.994 1.4464 13.189 1.4464 0.36155 0 0.48432-0.03925 0.4779 0.02 1.0239 0.02 7.619 0 28.493-3.8929 7.3629-1.4877 20.642-6.6474 11.038-4.4516 15.563-8.442 4.2749-3.5733 4.3967-9.2317 0.0071 0.00324 0.01355 0.00324 0.4252 0-1.9756-14.084-2.3194-27.348-3.412-31.819-1.6976-10.396-5.8335-17.407-3.3199-5.7568-9.2967-10.956-2.9007-2.5457-8.2062-6.247-5.8423-2.5347-8.5438-4.6462-3.2122-2.4335-5.8382-5.9177-1.6572-2.267-1.5902-3.2758 1.7251-5.6414 1.1426-10.668-0.44133-3.4191-2.2329-5.0636-2.0252-1.6931-4.1575-1.6931-1.6015 0-3.2634 0.95505-3.1123 2.3743-2.189 7.6967-8.5835-4.7138-8.8807-5.738-0.9194-1.0912-1.0487-2.099 0.05558-5.639-0.55282-5.9195-0.97522-1.7962-3.4625-1.7976l-0.18818-0.00198z"/>
 </g>
 <g fill="#ffdcba">
  <path d="m333.01 383.84q0.40538 0 0.81668 0.01555 0.36994 0.04797 0.6331 0.99585 0.00548 4.9439 0.26284 5.1661 0.28546 1.2904 1.3344 2.5684 0.91466 1.7182 8.9746 5.9045 0.00454-0.00122 0.00995-0.00122 0.31475 0 3.5534 4.1043 0.31142 0.34891 0.76535 0.41345 0.05332 0.00523 0.10397 0.00523 0.67093 0 0.8716-0.91352-2.7045-7.5897-1.4202-9.5298 1.1215-2.0318 2.956-2.0318 1.0848 0 2.419 0.71054 1.5893 0.99621 2.0506 3.8294 0.70698 4.2709-1.1016 10.953-0.08793 1.5119 2.0912 4.4836 2.6988 3.5965 6.3548 6.3588 2.9877 2.2428 8.6763 4.7246 4.4412 3.13 6.8793 5.177 5.1972 4.3187 8.4501 9.1176 5.489 7.8952 7.3111 21.373 0.71311 3.1188 2.9583 29.013l1.9263 12.658q0.27035 4.0392-1.5692 6.619-5.508 7.8491-35.575 16.536-15.324 3.0665-25.839 4.0346-2.3766 0.1866-4.4914 0.1866-1.4626 0-2.8-0.08925-8.7862-1.3518-11.055-1.3518-0.3403 0-0.53403 0.03039-0.19384-0.00594-0.39312-0.00594-2.7682 0-6.5831 1.1468 0.88678-2.8402-0.24839-3.1609 1.7392-1.0349 3.6044-1.7153 5.0094-2.1048 21.898-4.3607l19.539-7.2518 17.913-4.0465q6.0249-1.84 8.6542-6.2307 3.127-5.2575 2.647-10.341-0.17572-1.4169-0.91162-2.5055-3.4549-3.5656-3.6362-4.3644-0.93206-1.6626-1.6121-4.6632-2.2514-11.305-1.57-21.812-0.216-0.39429-0.99675-0.39481l-4.808 1.0816q-13.379 1.4436-16.573 2.1811-13.459 2.2639-17.657 10.527-2.8314 4.8295-3.8482 14.755-0.36825 2.8482-0.2092 4.5569l1.1369 4.8729-3.9508 2.7762q-0.99945 0.8226-1.3977 1.7155-0.32378 0.61518-0.42673 1.909 0.4437 6.1976-0.1073 7.1036-0.74979 2.637-3.9628 6.3018-2.0645 2.9182-5.083 3.9794-1.1357 0.6537-8.7998 0.75463-1.1846 0.16267-1.656 0.41067-1.396 0.41935-2.3124 3.1216-2.996-0.91272-4.2382-0.91272-0.66506 0-0.82736 0.26166-0.59942 0.31366-1.0355 0.9451l-2.2518 3.4439q0.03465-5.5009-2.4174-5.5009-0.4805 0-1.0565 0.21124l0.95017-5.5152q0.30841-1.2174 0.74616-1.698 0.95617-1.4075 4.8117-1.9813 1.0653-0.1791 2.2212-0.1791 3.196 0 7.0846 1.3694 1.642-0.00262 3.3486-1.5026 3.123-2.7435 8.3511-10.725 5.9521-9.1038 8.1817-16.029 0.12635 0.0298 0.24749 0.0298 0.48264 0 0.88306-0.4733 1.7855-12.201 3.1297-51.732 0.81543-0.2439 1.5485-0.87277l5.2102-4.4956 4.5667-1.2953q0.974-0.7149 1.2295-2.2395 0.30329-3.2017-2.1445-3.3142-0.03708-0.05506-0.15628-0.05506-0.97714 0-7.4734 3.6999-0.72242 0.23813-1.2709 0.23813-0.78113 0-1.2094-0.48307-0.35721-0.37933-0.45117-0.92004 0.1267-2.1661-0.25064-2.4878-0.20093-0.65357-2.6146-1.0968l0.25692-1.6988q0.00948-0.28878-0.05242-0.5755-0.3587-0.55996-0.27323-0.5651h0.00333q0.0117 6.5e-4 0.03036 0.00996-0.13263-0.67346-3.4474-1.3313l0.74439-4.1577q0.1073-1.0944-0.56956-2.3987l-6.0766-6.751q-1.6307-2.0759-2.6068-4.1977-1.8719-4.0819 0.01556-6.88l0.00336-0.00495q5.5395-5.5408 13.197-5.5408z"/>
 </g>
 <g fill="#fffefb">
  <path d="m375.95 425.75q0.0177 0 0.03546 1.3e-4l0.02786-8e-5 0.51901 0.0272q-1.4501 0.19672-2.7631 1.0848-0.98297 0.69385-1.8249 1.7008-3.6456 4.789-5.8752 8.8296 3.8844-7.6355 5.4888-9.2956 1.9407-2.3468 4.392-2.3468z"/>
 </g>
 <g fill="#fffefb">
  <path d="m375.93 423.23q-3.8171 0-6.744 3.7921-1.1555 1.4789-2.2995 3.5116-5.975 11.336-6.9866 12.743-2.24 3.6445-4.5379 6.0161-4.1926 4.41-10.207 5.9271-2.9443 0.5953-5.1192 0.5953-5.7496 0-6.1229-4.1604-0.41136-2.8803 1.0642-8.3347 0.87769-3.1238 1.7621-5.277 4.0429-8.5283 4.2224-9.4788 0.79779-2.3014 0.11371-3.0707-0.58628-0.61697-1.3024-0.61697-1.1244 0-2.5688 1.5208-1.4071 1.4232-2.5498 3.0659h0.0033q1e-4 0.00122 1.7e-4 0.00241 0.02041 0.38767-0.11115 0.73537-0.19876 0.55028-0.94229 1.1867l-0.29793 0.25018h0.0033q-0.66316 1.2125-1.204 2.5265-0.8352 2.0606-1.4709 5.0836-1.7682 11.236-1.9972 11.55l-2.8942 11.212q-0.6904 3.3338-0.51279 5.6953 0.13269 2.41 1.2726 4.5358 0.51217 0.92523 1.3025 1.9291l4.2324 5.1698q1.2124 1.8416 1.605 3.6463 0.80523 3.6361 0.14364 8.1083-0.39941 3.4337-2.4013 7.1862-0.24192 0.75794-0.31744 1.9605-0.22074 2.1548 0.91152 12.064 0.48788 6.4923 5.6094 6.4923 0.10498 0 0.2119-0.00274 0.0274 1.9e-4 0.0551 1.9e-4 3.0851 0 9.7878-2.4866 3.9195-1.3439 19.466-8.206 3.4498-1.5109 4.9554-2.5535 3.15-0.40124 5.0473-1.2563 3.2393-1.4104 4.4325-4.6608 2.9771-8.984 2.8631-9.0472h-0.00385q-0.00568 0.00229-0.01535 0.01611 0.56392-2.3607 0.12338-4.0067-0.3139-1.0174-0.87516-1.7477l-2.9885-3.398q-0.74284-0.95292-1.3132-2.1528-0.64978-1.4087-1.1905-3.4051-2.7901-12.863-3.3502-13.201-0.72143-1.721-1.6954-3.1036-4.92-5.8633-5.4779-7.1682-1.5993-2.7533-1.7961-5.373-0.60777-5.793 8.6295-17.473 1.1254-1.1296 2.4244-1.2961 0.16156-0.0906 0.74478-0.0906 1.5661 0 6.1726 0.6534 0.96932-0.02777 1.3765-0.91943 0.52897-1.521-2.3647-2.8376-3.554-1.7822-6.797-1.8504h-0.00983q-0.03582-3.5e-4 -0.07159-3.5e-4zm7.7424 3.1587q0.06418 1.1311 0.06418 1.1577h-1.5e-4q-0.00306-0.0261-0.06781-1.1148l-7e-5 -0.04282zm-45.66 2.836l-3.5424 7.705q-0.8911 2.1431-1.8244 5.3272 1.1272-8.3096 5.3613-13.03l0.00549-0.00248zm26.915 10.427q-2.745 5.9461-0.93264 10.887 0.77734 2.2289 2.1243 4.2449l4.6337 5.8571q0.72674 0.9673 1.3127 2.1361 0.71903 1.4671 1.1948 3.2237 2.6988 12.537 3.4936 13.689 0.54677 1.3606 1.4624 2.7025 0.39783 0.73063 3.2516 3.765 0.52334 0.64798 0.65634 1.2831 0.29214 1.1997-0.60068 4.0844l-2.2529 7.0186q-0.409 1.1594-1.0871 1.9557-1.1166 1.3543-3.6709 2.038 0.3339-3.5991-9.2588-8.7485-1.6694 0.26715-1.0626 1.959 6.5413 4.3814 7.0233 5.1525 1.475 1.5524-0.01936 2.1886-1.8547 0.18892-4.5464 0.18892-10.349 0-33.07-2.7928 0.05567-1.0533 0.26322-1.6142 1.4001-2.7918 1.709-4.0106 0.45056-1.5582 0.69665-3.1876 0.69074-4.7098 0.04404-8.317-0.45221-2.6919-1.853-4.9355-0.4673-1.0387-4.748-5.9308-0.72602-0.9556-1.0321-1.5592-0.77835-1.3712-0.92517-3.5641-0.11651-1.9937 0.49615-4.922l3.0628-11.975q0.08731 5.5714 4.3964 7.1697 2.1071 0.7424 4.6324 0.7424 3.4439 0 7.6656-1.3808 9.5833-2.9008 16.938-17.348zm-31.295 63.494q23.735 2.6572 32.19 2.6572 0.09641 0 0.19083-3.5e-4h0.00366q-23.145 10.527-28.054 10.527-0.39294 0-0.66901-0.0674-1.9676-0.10055-2.4448-2.0902-0.0109 0.057-0.02582 0.057-0.20786 0-1.1939-11.081l0.00315-0.00253z"/>
 </g>
 <g fill="#fffefb">
  <path d="m347.47 515.08q-0.67116 0.33765-0.3742 0.33765 0.2778 0 1.4028-0.2955-0.62222-0.00723-1.0251-0.04215z"/>
 </g>
 <g fill="#fffefb">
  <path d="m376.1 425.33q-2.7365 0-4.4465 2.0534-1.133 1.1532-2.6016 3.6278-7.0063 13.273-8.4407 15.047-2.8473 4.2905-6.2046 6.9473-6.0572 4.7665-14.33 4.9613-8.6232-0.10138-8.2782-7.8422 0.01495-1.9687 0.66272-5.0702 1.8618-7.7978 2.2581-8.5606 0.62594-1.7522 1.7728-3.3584 5.4031-6.4595 5.1417-6.4793h-0.00402q0.32947-0.67795 0.23846-0.73205-0.28476-0.1695-0.90982-0.1695-0.13832 0-0.2933 0.0083l-0.00102 7e-5q-3.8491 0.55636-6.0616 2.9662h0.00335q-0.00485 0.02443-0.00943 0.0462h0.00335q0.0315 0.30113 0.05397 0.68513 0.02041 0.38767-0.11115 0.73537-0.19876 0.55028-0.94229 1.1867l-1.0596 0.88978h0.00334q-0.64238 1.9229-0.9096 5.0199-0.16808 0.7764-0.29998 10.256-0.08185 1.8249-0.35712 3.5696-0.2602 1.6803-0.79934 3.5592l-2.2005 6.8067q-0.43268 1.6175-0.62503 3.4285-0.33591 3.085 0.65164 5.59 0.41453 0.98575 1.157 1.9861 4.8644 5.5675 5.381 6.973 1.4137 2.5169 1.8077 6.5587 0.38135 4.9609-0.97696 8.2105-0.61215 1.9294-4.2878 3.3386-0.30786 0.23075-0.49341 1.1757-0.18567 1.0277-0.02352 3.4322l0.85382 8.0943q2.8525 3.6446 3.9526 5.4941 0.13038-0.0183 0.29065-0.0291h0.00336q0.80725 0.02294 0.03787 0.6224-0.13892-0.2689-0.33163-0.59287h-0.00333q-1.1083 0.15697-0.04564 0.86217 0.22157-0.14555 0.3782-0.2674h0.00335q0.19802 0.3835 0.28643 0.6548-0.40075-0.2102-0.66632-0.3863h-0.00336q-0.68862 0.4523-2.003 1.1334l13.914-3.2354h0.00348q-1.1171 0.42894 0.23102 0.54644 0.80807-0.4065 3.018-1.3019h-0.00351l3.7233-0.86575h-0.00354q-1.7907 0.34631-3.1523 0.63845 3.6948-1.482 10.762-4.1403 0.82599-0.63337 1.9279-1.1762h0.00362q-3.2785 2.0927-5.4211 4.2852 17.735-9.2622 17.782-10.395 0.0198-1.363 0.74972-2.4971l3.2499-3.0298q0.7278-0.83359 1.2744-2.0801 1.6326-4.0815 1.2077-6.904-0.06903-0.5607-0.55263-1.1502-2.3577-2.0243-3.0467-3.1682-0.93975-1.3478-1.7355-3.5103-0.6694-1.843-1.3881-4.7788-0.2934-0.9209-2.8757-13.345-0.63596-2.7211-1.0458-3.562-0.23398-0.56586-0.5455-0.80655-0.84024 0.20328-1.4971 0.20328-0.84842 0-1.391-0.33913-1.0061-0.55348-2.0243-2.008-2.6455-3.9377-2.7849-8.9508-0.28958-6.2141 8.3602-17.06 2.2138-3.0934 6.0621-3.0934 0.98523 0 2.0776 0.20276-2.2781-0.91089-4.1007-0.91089zm-1.7494 75.577q0.44498 1.2262-2.8238 3.1951-0.51967 0.2339-1.0237 0.4692 3.1859-2.2567 3.8438-3.6643z"/>
 </g>
 <g fill="#ffdcba">
  <path d="m368.91 449.51q0.07895 1.2143 0.02854 1.9792 0.01573 0.30514 0.08653 0.59842l0.80476 2.2056q0.2204 0.93146 0.59781 2.1636 0.17293 0.51459 0.3851 0.92462 1.1782 2.2191 2.4537 4.0155 1.3876 1.5271 1.9583 2.2409 0.81586 0.91432 1.5687 1.2518 0.80607 0.39168 1.3996 0.0393 0.1229-0.10053 0.33265-0.40732l0.34715-0.6633 0.50667-0.59122q0.15616-0.24566 0.27408-0.59171 0.06559-0.194 0.12522-0.48281 0.12256-0.70752 0.34383-1.7732 0.0834-0.45932 0.10435-0.87079 0.03815-0.75131-0.16695-3.2472-0.02458-0.87323 0.00502-1.1941l-11.151-5.5951"/>
 </g>
 <g fill="#ffdcba">
  <path d="m386.81 495.73q-0.23357 0.17664-0.34589 0.30084-0.5802 0.80423-0.97631 1.0801l-0.62537 0.40604q-1.4546 0.66674-1.7015 0.8938l-1.0799 0.97402q-1.5787 1.1114-2.3706 1.8992l-0.60651 0.41112q-2.0236 1.1169-4.2037 2.5785l-2.1155 1.065q-1.5919 0.99-3.3908 1.8852-0.6766 0.32473-1.0959 0.4482-2.2118 0.4861-3.8799 1.0743-0.35696 0.0885-1.8134 0.84276l-2.1253 1.4694-1.0227 1.0037-2.249 1.85-0.31918 0.31667q-1.1849 1.5077-0.88837 2.0185-0.00659 0.35134 2.2044 0.9839 1.8978 0.49684 4.0668 0.5323 0.45283 0.019 3.971-0.2089 0.93134-0.12045 1.4729-0.37313l19.081-21.435"/>
 </g>
 <g fill="#ffdcba">
  <path d="m376.21 503.56l-4.2583 2.1626q-1.7965 0.78083-3.4713 1.6985l-2.0023 0.94924q-1.6372 0.58953-1.8254 0.70211-0.9147 0.41278-2.2548 1.2033l-2.1577 0.93759q-0.28127 0.14643-0.65894 0.45923l-2.3647 2.0448q-0.45765 0.5683-0.47908 2.2949-0.02267 0.61844 0.53556 0.7058 1.4877 0.2868 3.1553 0.14476 5.5714-0.78816 5.7235-1.0683l1.2726-0.89866 8.7817-11.33"/>
 </g>
 <g fill="#ffdcba">
  <path d="m369.96 507.42q-1.2858 0.42632-4.3979 1.2026l-2.5416 0.76523q-0.26364 0.08264-0.51523 0.18177-0.44794 0.17617-0.90377 0.41325l-2.8909 1.5826-0.8916 0.4328q-0.32367 0.17857-0.5094 0.39717-0.5899 0.6813-0.73245 1.6088-0.14417 0.96146 0.25933 1.3578 0.5594 0.53823 1.4006 0.8246 1.1529 0.3504 3.2138 0.79145l8.4966-9.5438"/>
 </g>
 <g fill="#ffdcba">
  <path d="m330.79 490.21q-0.04423 0.09167-0.06975 0.49447-0.01575 0.20108-0.06979 1.5759-0.10574 1.5022-0.14212 2.2847-0.02237 0.47339-0.03372 0.95755-0.02162 1.6601-0.0376 2.0746-0.022 0.76486-0.05087 1.0873-0.03702 0.4841-0.1156 0.97464-0.12207 0.71496-0.34355 1.8507-0.05147 0.28987-0.0806 0.51347-0.0586 0.34036-0.10933 1.558-0.03674 1.2545 0.02301 1.3723 0.06836 0.1349 0.15142 0.48193 0.02787 0.07897 0.06882 0.14954 0.11538 0.19563 0.28312 0.2337 0.31051 0.10181 0.42953-0.45617 0.08151-0.30533 0.1286-0.55554l0.13867-0.88941q0.04096-0.24505 0.0886-0.47305 0.04043-0.21518 0.22196-0.8734l0.16512-0.79576 0.24555-1.0013q0.11353-0.5019 0.19863-1.0505 0.17454-1.0918 0.21787-1.6808 0.05606-0.68008 0.11693-1.6832l0.22264-3.8872q0.02698-0.36486 0.06699-0.70596l0.14505-1.0963-1.8557-0.45941"/>
 </g>
 <g fill="#ffdcba">
  <path d="m330.49 490.37q0.0052 0.38098-0.01535 0.6673-0.06271 0.5823-0.14871 1.8281l-0.29941 3.1638q-0.07503 0.68654-0.17788 1.3868-0.48908 2.9514-0.60938 3.9774-0.07211 0.5711-0.10965 0.98031-0.06942 1.0056-0.17552 2.1354-0.0161 0.2235-0.02376 0.48287-0.00317 0.81265-0.02604 1.297-0.00377 0.22876 0.00795 0.38059l0.05633 0.51155q0.0116 0.09978 0.01389 0.4889 0.0054 0.10666 0.02105 0.18824l0.16654 0.43526q0.01814 0.04463 0.0531 0.0818 0.3306 0.216 0.51331-0.28635 0.33163-0.75895 0.56513-1.4866 0.1437-0.3913 0.53563-2.054 0.09407-0.33592 0.22959-0.67086 0.17685-0.43409 0.39428-0.83213 0.13715-0.27293 0.8787-1.4322 0.17-0.28863 0.28546-0.5838 0.18121-0.46509 0.25952-0.90371 0.02512-0.00129 0.13132-1.3182 0.0506-0.68466 0.02933-1.6848 0.00204-0.18686-0.09061-1.6804l-0.03642-1.539q-0.0089-0.25424-0.0745-1.155l-2.3466-2.3708"/>
 </g>
 <g fill="#ffdcba">
  <path d="m333.55 492.65l-8.0509 9.5032q-0.14355 0.18616-0.21865 0.41096-0.16947 0.59866-0.18904 1.8056-0.0209 5.733 0.11474 6.5571 0.2301 0.80923 0.96284 0.98787 0.70676 0.2609 1.1057-0.33638 0.33255-0.40682 0.5015-0.67782l0.75339-1.2872 1.213-1.6793q0.992-1.525 2.6428-3.8451 0.21292-0.32479 0.30768-0.62252 0.2811-0.84278 0.44484-2.4988 0.06694-0.72812 0.03956-2.2995l0.08792-0.88447 0.13682-2.0148q0.07073-1.8006 0.01925-2.6001 0.0026-0.17743 0.11929-0.49107"/>
 </g>
 <g fill="#ffdcba">
  <path d="m362.62 511.84q-2.9637 0.2721-2.9543 0.2857l-4.8347 0.62273q-1.0423 0.16303-3.5734 0.62183-0.94888 0.17224-2.8973 0.6236-0.67545 0.13454-1.31 0.21854-3.056 0.3942-5.8422 0.4579-0.75597 0.06697-1.8567 0.2844l-4.7731 1.1291q-0.73752 0.18526-1.6159 0.50655-2.3214 0.85525-2.9447 1.807-0.84078 0.7991 0.9745 2.3508 1.832 1.3502 3.9924 1.6253 0.6116 0.10657 1.4283 0.10717 1.7463-0.06523 3.1368-0.0529 0.5831-0.0174 1.1347-0.06507 0.60421-0.05093 1.2703-0.14473l2.3889-0.38347 1.4542-0.20123q0.99015-0.1539 2.1389-0.38086 2.7482-0.5614 3.7441-1.0077l3.129-1.4778q0.45392-0.2107 1.6828-0.98557 0.22718-0.13043 0.53196-0.22638l5.5932-5.712"/>
 </g>
 <g fill="#ffdcba">
  <path d="m369.39 508.06l-4.5392 0.9512q-5.8844 1.3814-5.9068 1.3215-3.6116 0.62714-7.6213 1.1395l-7.1608 1.502-5.5146 0.6317q-1.0066 0.13346-1.736 0.31046-0.88891 0.19989-2.2206 0.76834l-4.1939 1.941q-1.0544 0.49525-1.6617 1.1204-1.0704 1.1604-0.10346 1.7487 1.058 0.76724 1.9571 1.044 0.52287 0.1908 2.0473 0.33396 1.9601 0.19404 5.6497-0.22636 5.5668-0.634 8.3982-1.3742 1.4707-0.3509 2.8535-0.73724l8.3247-2.3848q0.8724-0.24967 1.41-0.5177l1.7973-1.2759q0.39988-0.2626 0.83041-0.45094l7.3876-5.843"/>
 </g>
 <g fill="#ffdcba">
  <path d="m341.45 514.36l-2.4689 0.4316-2.4881 0.34913-1.7666 0.32447q-0.13064 0.0331-1.6911 0.20007-1.4605 0.22853-2.1925 0.30603-0.53376 0.08624-1.1512 0.28937-1.0923 0.31097-1.822 1.3619-0.45721 0.67682-0.03049 1.2035 0.42649 0.42417 2.6668 0.80037 1.9644 0.29644 4.4246 0.2586 2.9863-0.03956 6.038-0.3552l2.009-0.26505 0.52914-0.08775q0.3602-0.0696 0.69272-0.1532 1.402-0.38295 1.5975-0.41725l-4.34-4.24"/>
 </g>
 <g fill="#ffdcba">
  <path d="m373.39 458.05q-0.29831 0.20668 0.00616 1.5076l0.88576 3.544q0.7391 4.1076 0.9273 4.8088 1.0524 4.5513 1.1776 4.8005l2.4848 7.8827q0.08184 0.24317 0.55568 1.1526l2.2855 4.3033 3.1867 5.0591q3.3458 4.6839 4.3301 6.4505 1.3449 1.8132 2.0507 2.6175l-17.889-42.124"/>
 </g>
 <g fill="#fffefb">
  <path d="m351.52 504.76l-21.555 10.953q0.76157 0.03397 1.0761 0.01747 0.13478 0.0082 0.91941-0.1042 1.1375 0.05493 2.0149-0.05884 0.61092-0.078 1.0875-0.20606 0.24396-0.0527 1.1179-0.39794 0.12503-0.04516 0.34622-0.08296 1.8414-0.11174 2.2536-0.1819l0.91998-0.126 1.5766-0.2742 1.5942-0.1988 1.9951-0.5038 1.4281-0.22615 1.1649-0.08979q0.29437-0.03096 0.56409-0.09942 0.10553 0.05046 2.4546-1.0092 0.73617-0.35026 0.90176-0.86427 0.22408-0.3713 0.46552-2.1913 0.26276-1.6232 0.11148-3.0409-0.03174-0.58402-0.4346-1.3112"/>
 </g>
 <g fill="#040300">
  <path d="m329.19 379.49q-0.61033 0.33829-1.0317 0.80536-0.31426 0.30704-1.0132 1.5074-0.41259 0.9599-0.06585 1.5226 0.64325 0.58579 1.314 0.64612 0.24655 0.01755 0.5918-0.1001 0.35724-0.09906 1.249-0.48468 0.16393-0.05978 0.33355-0.09854 0.41888-0.1033 1.8244-0.24429 0.52397-0.07074 1.6821 0.62091l1 0.96915q1.0711 0.83587 1.0243 0.85672 1.0489 1.298 1.4261 1.9803 0.36118 0.6373 0.50685 1.3114 0.24303 1.0294 0.274 2.0716 0.02127 0.17547 0.16776 0.6206l1.019-1.8094q-0.05508-0.31646-0.04547-0.63852-0.0108-0.15353 0.16173-1.6627 0.02296-0.43478-0.0355-0.92068 0.0089-0.60654-0.81864-3.4397-0.21601-0.56518-1.416-2.0794-0.58934-0.76368-1.1449-1.1927-0.78027-0.67365-1.2663-0.71317l-0.82315-0.09306-2.403-0.1377-0.31961 0.05205q-0.50714 0.20288-1.5397 0.41141-0.38864 0.10704-0.65118 0.2388"/>
 </g>
 <g fill="#040300">
  <path d="m328.89 380.99q-0.96004 0.46473-2.5189 1.7454l12.146 7.1482q-0.00284-1.0674-0.22339-1.5686-1.3717-3.0016-1.5118-3.1654-0.74002-1.3404-1.6869-2.5149-0.15689-0.2059-0.33435-0.40228l-1.0863-1.1669q-0.65201-0.61753-1.2742-0.6023-1.3096 0.04335-2.1365 0.14005l-1.054 0.25927q-0.1448 0.04019-0.3187 0.12708"/>
 </g>
 <g fill="#040300">
  <path d="m324.28 382.95l13.499 7.0628q-0.4119-1.3669-1.3379-2.2868-0.6888-0.59823-1.9626-1.8213-0.6846-0.6212-1.2113-1.0661l-2.4735-1.9963q-0.2208-0.17556-0.49644-0.3214-0.51015-0.256-1.0488-0.3487-1.5832-0.14447-1.6566-0.09692-0.20134 0.01382-0.39464 0.07159l-0.53002 0.20227q-0.07516 0.0145-0.15528 0.01581-0.3398-0.02603-0.47173-0.00729-0.18881 0.01534-0.44583 0.08398-0.60001 0.16592-1.3064 0.50443"/>
 </g>
 <g fill="#040300">
  <path d="m328.17 383.43q-0.42994-0.12705-0.72708-0.1825l-1.5469-0.22607q-0.36999-0.056-0.87322-0.23169-0.14137-0.03031-0.36106-0.03906-0.4563-0.01088-0.84509 0.0484l-1.1143 0.21102-0.56531 0.1489-0.35043 0.0422q-0.12142 0.04883-0.25214 0.17927l-1.0274 1.1381q-0.24372 0.12189-0.64856 0.57602-1.0432 1.2521-1.1248 1.5938 0.25995-0.00534 0.9537-0.82472l20.52 5.8473q-0.21085-0.38257-0.89508-1.0467-0.22247-0.20895-0.41057-0.34589-0.62315-0.36286-0.7047-0.47113-0.7824-0.9295-0.98464-1.0956l-1.6916-1.4622q-0.95841-1.0198-1.1055-1.0516-0.26252-0.18086-0.7024-0.39726l-1.3451-0.57776q-0.81168-0.51798-1.9748-0.99988-2.2601-0.90036-2.2168-0.83105"/>
 </g>
 <g fill="#040300">
  <path d="m347.92 388.18q0.64822 0.28408 0.94824 0.3167 0.26263 0.0454 1.3293 0.0366l-2.275-0.3529m2.2803 0.35375l4.2054 0.65235q-0.20862-0.1416-0.50415-0.23258l-0.62455-0.09638q-0.6947-0.21737-1.0222-0.27014-0.22414-0.0751-2.0324-0.05356m4.1847 0.65308l1.0637 0.77335q0.11323 0.07501 0.7694 0.8573 0.12954 0.17723 0.24404 0.47869l0.16668 0.63324q0.34788 0.79636 0.33414 0.9278 0.13214 0.79825 0.11094 1.1964 0.00646 0.42261-0.15833 1.1576-0.02157 0.2306-0.00607 0.48722 0.03976 0.78442 0.32443 1.7195 0.03714 0.28467 0.02411 0.57071-0.01209 0.25748-0.06458 0.59628-0.27256 1.1996-0.28229 1.5634l-0.06753 2.6629q0.00393 0.20905-0.2847 1.2472-0.05746 0.29746-0.05314 0.53034 0.0023 0.20804 0.05094 0.4173 0.1984 0.57183 0.27802 1.0572 0.10564 0.36438 0.254 0.38281 0.15704-6.3e-4 0.24017-0.18527l0.17607-0.77323q0.46144-0.87347 0.59972-1.3241l0.20202-0.6361q0.16266-0.85706 0.28198-1.2532l0.42468-1.0565q0.08796-0.25506 0.1308-0.53134 0.07163-0.50936 0.0742-1.4203 0.1226-0.89337 0.43298-2.0705 0.03082-0.15882 0.0365-0.3595-0.185-4.2294-0.29731-4.6936-0.09234-0.718-0.74029-2.2942l-4.2514-0.6595"/>
 </g>
 <g fill="#040300">
  <path d="m350.03 385.94q-0.37589 0.24701-0.3389 0.2919 0.42481-0.17103 1.2804-0.18167 0.19488 0.01416 0.62556 0.18724 0.2706-0.05723 1.3017 0.2765l-0.58837-1.3119-1.0903 0.24384-0.64056 0.19708q-0.11042 0.0166-0.54904 0.29682m2.8707 0.575l5.1887 11.689q0.0532-0.0492 0.0603-0.4763l-0.0283-2.0658q-0.0169-0.65423-0.14017-1.3161-0.07968-0.60148-0.78067-2.9282-0.48026-1.565-0.78348-2.2409-0.50088-1.086-1.2946-1.8021-0.1195-0.09094-0.24532-0.16244l-0.9266-0.49436-1.0461-0.20218"/>
 </g>
 <g fill="#040300">
  <path d="m348.17 387.08l9.2046 4.2732q-0.60489-1.2006-1.1705-2.0038-0.1136-0.15994-0.7782-0.7137l-0.78634-0.64948q-0.1232-0.09626-0.27103-0.16552-0.20511-0.08958-0.37663-0.10923-1.0578-0.03635-1.3226-0.10507-0.27908-0.05067-0.67172-0.19037-0.0643-0.02009-0.39889-0.05333l-0.17984-0.03777q-0.7052-0.23978-0.79074-0.23163-0.08228-0.01288-0.24226 0.0056l-0.49123 0.08943q-0.14704 0.02087-0.26487 0.0192-0.1455-0.0116-0.93353-0.01463-0.08041 0.00465-0.51984-0.11144"/>
 </g>
 <g fill="#91897e">
  <path d="m332.73 554.49l-50.998-16.917-4.5554 0.3501q-4.0396 0.5954-9.3826 3.5779-1.3166 0.87206-2.588 1.9684l-8.4769 7.6201q-2.2313 2.1392-3.6054 6.0879-2.109 4.9858-2.1678 8.1097-0.01762 1.4676 0.9515 2.6103l3.4911 3.8958q0.23977 0.22528 0.65407 0.34259l6.8927 1.5539 3.8252 1.5804q0.81885 0.302 2.1234 0.64205 1.1029 0.27585 1.7874 0.3526 3.0261 0.06562 3.7125 0.28245l6.2785 1.8218q6.3659 1.1074 6.3185 0.9749 8.3442 0.26485 8.0962 0.0303 0.72504-0.08046 1.5377-0.40986 2.1912-1.2631 3.0993-1.5459 3.3496-0.78924 4.5433-1.3292 2.2789-0.84166 7.9609-3.5479 5.4595-1.8262 5.6608-2.0157 7.9371-4.1854 8.8923-4.958 1.7248-1.0476 2.6547-2.7514 2.515-4.6165 3.2956-8.2744"/>
 </g>
 <g fill="#fffefb">
  <path d="m342.79 423.4q-0.14144-0.01096-0.25836 0.00954-0.29507 0.12077-0.72509 0.17577-0.12283 0.02249-0.64725 0.23401-0.06038 0.02768-0.1243 0.07479-0.22891 0.2034-0.28064 0.2309-0.44101 0.1828-0.49921 0.25031-0.30291 0.2456-0.40149 0.42722l-0.22488 0.43203q-0.19891 0.59595-0.24116 0.64737l-0.2819 0.47436q-0.14894 0.28644-0.33622 1.0395-0.04413 0.17331-0.0549 0.29205l-0.07773 1.0313-0.63275 3.2564q0.08584-0.3774 0.2582-0.64014 0.03263-0.08133 0.7287-1.0183 0.8429-1.344 0.93842-1.4391l1.3839-1.8337q0.0733-0.09109 0.17126-0.18896 0.34894-0.29544 0.48829-0.46741l0.71705-0.94145q0.71623-0.7263 0.84325-0.9703 0.10945-0.1905 0.15885-0.50918 0.0526-0.30262-0.0152-0.40582-0.03718-0.05905-0.1089-0.076-0.37408-0.02184-0.77273-0.08474"/>
 </g>
 <g fill="#fffefb">
  <path d="m343.33 422.68q-0.69697-0.0358-1.8068 0.6406-1.109 0.69483-2.0165 1.7249-0.87897 1.0208-1.052 1.8096-0.13306 0.75555 0.53283 0.82864 0.69852 0.04094 1.8092-0.63482 1.1064-0.68974 2.0256-1.7312 0.87878-1.0209 1.0511-1.8099 0.13171-0.75593-0.53519-0.82715"/>
 </g>
 <g fill="#fffefb">
  <path d="m342.08 423.77q-0.49873-0.01405-0.83499 0.03216-0.35068 0.06504-0.87091 0.28374-0.17896 0.07645-0.38459 0.2242-0.10454 0.07415-0.18618 0.14068-0.45368 0.39358-0.52846 0.44174-0.1304 0.10358-0.37087 0.22478-0.05728 0.03733-0.10159 0.0845-0.0517 0.05687-0.10611 0.17534l-0.26423 0.62808q-0.08044 0.19925-0.15764 0.50671-0.06186 0.08579-0.15351 1.4898l4.2811-4.1078q-0.09937-0.11356-0.31909-0.1236"/>
 </g>
 <g fill="#fffefb">
  <path d="m337.93 425.68q-0.15833 0.0778-0.48511 0.22174-0.32693 0.14398-0.53816 0.26676-0.2112 0.1228-0.47316 0.2868-0.26204 0.16403-0.45926 0.3623-0.19721 0.1983-0.51581 0.5224-0.31857 0.32413-0.5361 0.6254-0.21753 0.30123-0.43015 0.55667-0.21264 0.25543-0.42526 0.5108-0.21266 0.25543-0.37942 0.51575-0.16681 0.26034-0.34574 0.54721-0.1789 0.28683-0.2999 0.55207-0.12097 0.26522-0.20336 0.51607-0.08237 0.25083-0.13819 0.51377-0.05587 0.26296-0.15035 0.54031-0.0945 0.27735-0.19614 0.5354-0.10166 0.25803-0.13333 0.46795-0.03168 0.20988-0.02473 0.40537 0.00696 0.1955 0.05253 0.37659 0.04559 0.18109 0.11047 0.35498 0.06488 0.17386 0.12253 0.32843 0.05767 0.15457 0.13464 0.30191 0.077 0.14737 0.13956 0.2561 0.06253 0.10872 0.14441 0.21024 0.08188 0.1015 0.21429 0.24884 0.13239 0.14728 0.2735 0.17304 0.14111 0.02578 0.35465-0.0209 0.21352-0.04664 0.37522-0.08494 0.16167-0.03833 0.36342-0.09266 0.04972-0.0134 0.09232-0.0293 0.13036-0.04863 0.1943-0.1208 0.08484-0.0958 0.18174-0.1993 0.09686-0.10347 0.27282-0.2344 0.176-0.1309 0.328-0.23983 0.15198-0.10895 0.31837-0.28763 0.16635-0.17864 0.33416-0.35889 0.16785-0.18023 0.34417-0.35605 0.17634-0.17587 0.41084-0.5495 0.2345-0.3736 0.34018-0.69818 0.10565-0.32455 0.14535-0.69436 0.03977-0.36981 0.10801-0.66916 0.0682-0.29932 0.15319-0.62756 0.08493-0.32824 0.14777-0.3957l0.07788-4.5378z"/>
 </g>
</svg>
