<?xml version="1.0" encoding="UTF-8"?>
<svg width="500" height="500" version="1.1" viewBox="0 0 500.00001 500.00001" xmlns="http://www.w3.org/2000/svg">
 <g transform="translate(0 -552.36)">
  <rect y="552.36" width="500" height="500" ry="0" fill="#00b2c6"/>
 </g>
 <g transform="translate(-22.114 -2.1104)">
  <g transform="matrix(1.3937 0 0 1.3937 -107.14 -99.261)">
   <path d="m193.55 140.55 157.12-4c4.0467-0.10302 9 6.23 9 9v204.25c0 2.77-2.23 5-5 5h-161.12c-2.77 0-9.0769-5.1516-9-9l4-200.25c0.0553-2.7694 2.2309-4.9295 5-5z" fill="#f1f1f1"/>
   <path d="m189.55 136.55h161.12c2.77 0 5 2.23 5 5v204.25c0 2.77-2.23 5-5 5h-161.12c-2.77 0-5-2.23-5-5v-204.25c0-2.77 2.23-5 5-5z" fill="#cb6565"/>
   <path d="m209.5 136.55h18.5v214.25h-18.5z" fill="#c14a4a"/>
   <path d="m212.25 352.18v15.5h0.2207l6.2793-7.25 6.2793 7.25h0.2207v-15.5z" fill="#ed1e1e"/>
  </g>
 </g>
</svg>
