<?xml version='1.0' encoding='utf-8'?>
<svg xmlns="http://www.w3.org/2000/svg" version="1.1" width="600px" height="976px" viewBox="0 0 600 976"> <g id="layer1"> <g> <g style="fill:rgb(82,91,63); fill-opacity:1.0; stroke-linejoin: miter"> <path d="M488.64902,503.3722L-581.77686,574.22815L-378.83597,820.6397L959.503,837.527L851.5586,571.09265L490.75626,503.7649"/> </g> <g style="fill:rgb(175,158,158); fill-opacity:1.0; stroke-linejoin: miter"> <path d="M592.53143,663.6558L560.778,636.1206L508.20035,585.1849L104.805084,605.74615L186.44203,681.4435L591.68964,663.6928"/> </g> <g style="fill:rgb(0,0,0); fill-opacity:1.0; stroke-linejoin: miter"> <path d="M55.360207,-132.12483Q31.507053,-126.35219,15.072573,-99.46968Q0.78485125,-78.02901,-40.52122,19.656132L-125.39618,142.61331L-88.53045,126.44736L-40.897934,209.97743L-15.141516,244.57425L129.2693,208.70497L141.51027,187.08289L160.00766,163.10217L168.92892,149.0128Q172.45706,142.81346,189.64877,103.229164Q206.2902,71.87466,208.28642,66.3735Q211.05748,58.45119,212.2462,51.33736Q214.88393,22.092962,221.0306,-9.5954Q222.4377,-23.96845,219.32545,-37.99946Q202.97945,-98.13711,168.18721,-118.4346Q146.82977,-131.08115,102.95342,-137.90878Q69.93998,-136.529,56.15885,-132.35652"/> </g> <g style="fill:rgb(255,211,164); fill-opacity:1.0; stroke-linejoin: miter"> <path d="M124.13522,432.4788L12.157263,423.55447L-32.963333,443.46024L-72.52137,504.25043L-41.59966,520.94025L23.375988,536.19867L133.54301,543.49475L152.07707,478.3577L124.180084,432.55252"/> </g> <g style="fill:rgb(255,211,164); fill-opacity:1.0; stroke-linejoin: miter"> <path d="M123.46564,-14.068729Q104.09832,-14.417118,79.60625,-3.5240488Q67.16313,2.033814,50.67674,15.660831Q41.04124,19.72852,37.098976,22.46955Q32.221413,25.584051,27.916998,30.601814Q7.5175495,56.212173,6.952272,107.915306L-19.227787,139.03934L-44.045975,186.25842L-50.479908,237.70914L-14.573857,329.4782L23.17762,377.86017L80.7381,320.46783L137.00551,174.36597L178.55435,112.59232Q197.88545,29.104927,193.71779,11.784915Q192.16725,5.0673842,172.80244,-1.9216924Q138.4552,-14.715275,123.701904,-14.063053"/> </g> <g style="fill:rgb(255,211,164); fill-opacity:1.0; stroke-linejoin: miter"> <path d="M-54.971462,505.77582Q-55.590664,505.66815,-56.850887,506.8604L-53.277584,507.6291Q-53.944515,506.06744,-54.53088,505.8819 M109.74703,507.85675Q98.535965,507.6855,84.48531,511.9812Q78.3456,513.8789,72.70765,516.5495L53.46893,526.6611Q48.54223,528.7553,42.982044,528.74835Q38.42571,528.8099,31.679977,527.3388Q27.73039,526.51117,18.203318,523.68365L-53.104122,507.70026Q-50.31707,511.2303,-47.8406,590.9907Q-13.329261,583.05457,-8.237003,582.21094Q3.8323383,579.84424,8.421696,579.97375Q11.440832,580.1157,12.398108,580.83765L17.353462,587.0414Q19.856668,589.0111,24.994946,590.6737Q38.35967,594.7389,50.155876,593.3529Q55.81262,592.5686,61.406006,589.82324Q63.952576,588.5874,67.13922,586.5951Q84.258995,575.0639,87.35586,573.6303Q93.61446,570.17914,96.97464,570.41925Q99.21103,570.51166,101.140594,572.39264Q107.01932,581.4179,110.153114,583.48175Q113.91691,586.5146,118.18107,587.1385Q120.16404,587.4172,122.24852,587.34296Q134.34679,586.356,134.4315,586.6342Q135.5056,586.6988,136.41154,586.8741L141.68604,588.196L145.12488,588.7413Q150.11218,589.2708,153.74347,588.64154Q160.1637,588.00604,160.10077,579.4382Q176.39986,599.26544,183.60213,605.5865Q191.16237,612.6174,196.80136,612.61554Q201.73575,612.56525,204.11581,607.83685Q205.96176,603.627,202.94705,598.64276L199.25687,593.7576L186.62117,580.987Q176.50227,567.35187,164.46643,555.34314L151.84589,536.1809Q151.37756,534.49146,138.16338,525.18774Q127.80406,513.59094,124.98326,512.24963Q119.08486,508.1103,110.14217,507.86713"/> </g> <g style="fill:rgb(19,90,108); fill-opacity:1.0; stroke-linejoin: miter"> <path d="M-95.68728,109.84078Q-113.545685,110.121605,-117.50879,112.50778Q-141.35553,118.53244,-150.58951,124.135895Q-163.29323,131.30319,-176.10686,160.1107Q-196.64363,206.51622,-200.76118,238.73206Q-202.49922,251.30432,-202.69582,270.30594L-199.5248,336.33917L-55.091084,352.92377L-53.077877,471.34012Q37.569324,461.37308,100.22279,452.78226Q124.94443,470.5845,132.29178,484.09174Q139.57657,496.4322,139.51378,522.86597Q173.42403,512.90894,193.11053,437.8124Q202.81732,402.07898,213.88289,325.78024Q219.89961,284.79755,230.35179,202.44716Q232.14818,182.96716,231.52654,174.52698Q230.39336,152.35211,216.93132,144.6892Q203.95561,135.98924,164.78598,131.80132L132.50154,152.07758Q120.75099,180.87415,109.875984,186.92615Q99.17243,194.24257,70.18267,187.94849Q54.17455,241.72928,28.086527,345.1408L4.348787,270.30264L2.6273813,189.10364L-17.30759,139.94131Q-75.3564,122.47861,-81.636375,119.66922Q-95.85992,114.57999,-95.65261,110.46456"/> </g> <g style="fill:rgb(167,42,0); fill-opacity:1.0; stroke-linejoin: miter"> <path d="M594.4843,-134.65184L526.119,-97.67245L507.08707,-77.213455L490.35574,-50.719685L482.6124,19.476326L485.37534,35.52003Q500.42685,53.32314,514.1777,48.535175L518.2198,47.6866L559.8636,22.43415Q572.0519,80.692604,583.4251,93.29198Q587.7791,98.65898,593.2736,100.78111Q596.4046,102.03294,599.809,102.627304Q619.32306,104.57891,620.82623,105.65276Q627.49506,107.68383,631.903,112.72057Q643.0584,123.65997,655.8968,172.99672Q671.3431,174.01845,679.7236,171.67848Q691.8757,168.25307,693.43243,155.59938Q694.1883,149.48549,693.029,140.63715Q684.5529,94.010544,685.57526,92.203964Q684.898,79.911415,691.5158,77.32523Q697.8836,75.181435,710.7549,80.19962L764.6157,105.584465Q780.64404,112.43487,793.42395,115.70605Q820.931,122.77527,828.27405,112.83526Q832.535,107.55718,832.42706,96.02763Q832.5645,84.36094,828.9088,61.816925Q828.504,26.822767,826.2549,9.41071L828.1107,-14.255988L817.43286,-39.99483L805.4997,-75.215546L787.9522,-88.33481L715.49146,-129.35326L637.43005,-146.95451L594.8869,-134.7672"/> </g> <g style="fill:rgb(255,211,164); fill-opacity:1.0; stroke-linejoin: miter"> <path d="M436.47577,522.2339Q432.97867,520.65344,419.71494,523.1438Q408.35367,525.13135,375.75043,533.37146L272.1024,493.00934L213.16525,530.61316L222.90416,579.71954L235.23045,604.58527L244.4447,616.0163L248.12927,619.2558L256.37903,619.9559Q260.36285,613.5806,261.3977,613.8891L263.4496,619.32294Q263.92847,620.4068,265.65863,620.86273Q267.04816,620.7504,273.4804,621.98566Q278.68567,615.5961,279.25977,615.8077Q279.68988,615.6298,279.77472,616.3525L279.56787,621.49835Q279.7492,622.3786,280.28864,622.6623Q280.9884,623.0246,281.93472,622.9117L291.9224,621.66315L297.13535,617.0076L299.1392,607.1025L310.9786,609.6071L333.52808,611.94086L366.62762,612.0278L382.02808,606.1849L440.53247,604.99005L434.42007,532.9308Q440.8723,523.703,436.7447,522.35583"/> </g> <g style="fill:rgb(255,255,255); fill-opacity:1.0; stroke-linejoin: miter"> <path d="M406.7532,516.6212Q399.202,520.7252,397.96957,528.182Q414.2748,525.5748,419.9219,527.2771Q426.38773,528.8064,427.8317,536.07776Q428.70944,539.95935,428.5887,546.23865L426.71762,606.3792L498.267,603.65594L498.43796,603.6254L486.83517,511.0559L406.87302,516.61304"/> </g> <g style="fill:rgb(255,255,255); fill-opacity:1.0; stroke-linejoin: miter"> <path d="M843.1053,87.20768L690.3892,269.01642L696.2552,274.9533L684.8852,296.77185L741.74615,399.37543L869.7806,107.938225L843.39667,87.4318"/> </g> <g style="fill:rgb(0,53,87); fill-opacity:1.0; stroke-linejoin: miter"> <path d="M864.39886,98.41844L814.23816,187.83342L739.23346,395.21967L664.9403,482.7949Q635.7893,490.25842,459.87848,512.2479Q490.3784,549.59717,493.574,565.0047Q499.23685,580.7576,488.76096,612.6976L612.13873,608.44934L573.20465,661.4565Q560.7676,762.77606,593.7583,786.19666Q617.8623,809.88965,672.59467,804.949L742.0298,771.41016L717.5491,806.15125L657.5516,832.3334L959.6912,833.6222L970.61176,643.8653L968.3732,416.1505Q966.9384,417.7517,967.2823,416.18433L973.01416,319.78967L976.96436,156.87764Q970.2427,144.6996,957.8735,140.88922L907.7614,133.90118Q903.10297,122.21936,864.8527,98.71135"/> </g> <g style="fill:rgb(33,179,213); fill-opacity:1.0; stroke-linejoin: miter"> <path d="M317.75595,469.23398Q313.06866,470.00455,307.3117,477.2758Q306.1244,478.90994,304.93634,481.00665Q299.5672,491.10895,298.4638,492.82745Q296.3169,496.45685,293.0468,501.36908L254.96838,555.87427L274.2975,546.9125Q305.1194,499.73883,312.52325,486.1596Q321.74844,469.96603,317.8682,469.24448"/> </g> <g style="fill:rgb(33,179,213); fill-opacity:1.0; stroke-linejoin: miter"> <path d="M235.51207,585.5556L221.58165,605.40717L219.86015,615.149L228.65941,611.2286L239.16356,596.21796L239.18193,596.1788L234.8892,590.6993L235.51085,585.56537"/> </g> <g style="fill:rgb(255,211,164); fill-opacity:1.0; stroke-linejoin: miter"> <path d="M565.1955,2.2751472Q542.2751,16.0362,535.10284,22.990059Q529.1651,27.59907,514.56696,48.400105L524.3298,112.52384L545.3204,139.52397Q540.43176,200.44278,543.7986,209.5053Q545.8225,217.3167,551.5713,216.1469L556.6168,214.64592L580.9006,204.52359L591.96234,220.73381L616.85944,219.95427L607.9925,235.94682L623.86285,251.52252Q618.41644,265.2425,623.1414,271.26312Q626.11554,276.49347,639.0422,286.20612L654.27924,286.805L710.73584,270.80634L821.3602,138.45972L853.7576,101.81798L832.79474,90.36882L829.23975,102.614426L814.01074,110.40313Q761.4182,70.23062,740.56714,60.843414Q715.8489,49.05898,698.7596,54.839626Q676.1962,62.803192,672.43,92.351Q668.8316,108.39715,688.9709,156.82735L657.88544,165.65498L630.73065,95.61131L583.18964,81.27293L565.2519,2.5228891"/> </g> <g style="fill:rgb(195,198,191); fill-opacity:1.0; stroke-linejoin: miter"> <path d="M-492.86102,308.99536L-464.29413,607.4349L-47.067074,683.76904L96.053314,606.6983L-36.941517,590.8125L-47.672806,347.14044L-382.27112,322.10724L-492.37006,309.0537"/> </g> <g style="fill:rgb(0,0,0); fill-opacity:1.0; stroke-linejoin: miter"> <path d="M56.99487,525.5074L11.096624,521.41425L21.517435,524.71075L39.25841,530.0395L56.970882,525.5135"/> </g> </g> </g> </svg>