<?xml version="1.0" encoding="UTF-8"?>
<svg version="1.1" viewBox="0 0 3000 3000" xmlns="http://www.w3.org/2000/svg">
 <g transform="translate(0,200)">
  <g transform="matrix(1.0714 0 0 1.0714 0 -200)">
   <rect transform="translate(0 1747.6)" y="-1747.6" width="2800" height="2800" fill="#008080"/>
   <path transform="translate(0,-40)" d="m2284.4 2458c0 37.258-375.98 67.461-839.78 67.461s-839.78-30.203-839.78-67.461 375.98-67.461 839.78-67.461 839.78 30.204 839.78 67.461z" fill="#045"/>
   <g transform="matrix(1.1588 0 0 1.1588 -209.29 -182.2)">
    <path d="m1125 1886.4c13.281 16.603 38.287 40.319 82.923 61.131-13.603 27.173-45.152 86.871-66.317 100.63 24.816 48.253 46.855 88.213 27.554 118.54 26.194 6.8933 23.416 6.9146 23.415 6.9146 0 0-28.946 19.289-52.383 9.6385-23.437-9.6506-59.252-13.78-71.66 42.745l-5.5524 22.053s97.883 27.583 216.45-13.777c-20.68-39.981-22.054-56.522-22.054-56.522l13.829-9.6385s-49.65-62.071-63.436-118.6c29.506-26.74 58.653-58.066 74.96-76.113 7.0217 1.7464 14.311 3.4228 21.896 4.9763 48.959 10.028 95.383 10.927 137.4 5.3433-2.7309 23.698-10.558 62.876-33.002 93.399 20.68 37.224 40 60.626 33.106 93.714 16.544 4.1358 28.968 2.7762 28.968 2.7762s-4.7635 25.179-59.298 19.329c-32.899-3.5285-37.247 33.042-41.383 73.022 62.039 16.544 158.12-8.2092 212.36-53.745-33.088-42.738-35.882-48.245-35.883-48.245l16.553-8.2766-90.99-88.213s46.816-67.235 66.108-110.63c25.447-11.396 47.217-25.347 64.536-40.649-125.3 14.97-280.79 1.8087-478.1-29.806z" fill="#28170b"/>
    <path d="m2037.1 1322.9c-11.265-0.062-24.355 1.0569-39.497 3.8239-9.284 60.67-51.306 147.02-182.19 94.762-1.373-6.461-2.7746-12.95-4.2956-19.434-7.5824 6.5265-15.671 13.365-24.463 20.482-9.202 7.4485-19.046 15.185-29.492 23.049-10.446 7.8635-21.5 15.844-33.106 23.887-11.607 8.0426-23.774 16.111-36.459 24.096-12.685 7.9854-25.922 15.88-39.602 23.572-13.68 7.6922-27.838 15.205-42.431 22.368-14.593 7.1626-29.575 13.98-44.997 20.377-7.7113 3.1988-15.565 6.3089-23.468 9.2717-7.9031 2.9633-15.854 5.788-23.939 8.4863-8.0844 2.6978-16.259 5.2445-24.515 7.6478-8.2556 2.4036-16.622 4.6783-25.039 6.7575-8.4167 2.0792-16.891 3.9843-25.458 5.7099-8.5669 1.7252-17.222 3.2672-25.93 4.6097-8.7074 1.3422-17.459 2.4752-26.296 3.4048-8.8371 0.9297-17.759 1.6604-26.716 2.1476-8.9565 0.4875-17.771 0.7416-26.454 0.7859-8.6819 0.044-17.208-0.1526-25.615-0.5239-8.4075-0.3712-16.697-0.917-24.83-1.6762s-16.135-1.7091-23.992-2.8287-15.572-2.4241-23.153-3.8764-15.01-3.0618-22.315-4.8192-14.501-3.6747-21.53-5.7099c-7.0284-2.0346-13.887-4.1583-20.639-6.4431-6.7518-2.2847-13.379-4.7217-19.853-7.2288-6.4744-2.5072-12.818-5.1036-19.015-7.8051-12.393-5.4037-24.234-11.165-35.516-17.182-11.282-6.0169-21.997-12.292-32.164-18.701-10.166-6.4089-19.763-12.958-28.811-19.539-9.048-6.5801-17.531-13.218-25.458-19.748-5.8373-4.8093-11.063-9.465-16.291-14.143-0.4251 2.9131-0.80025 5.862-1.2047 8.8004-25.829 1.3101-147.09 11.231-180.3 83.185-37.223 80.651-15.82 174.38-15.82 174.38s35.836 38.594 108.9 0.6809c-7.3836-54.146-0.49886-107.19 77.056-120.9-0.77511 74.963 6.122 155.81 24.254 241.54 399.81 71.689 645.21 85.482 813.41-22.053 13.789-96.526 20.605-189.39 14.667-282.61 55.938 5.9035 152 7.9202 198.9-38.816 68.506-68.269 72.865-164.33 72.865-164.33s-8.3687-35.128-69.198-35.463z" fill="#502d16"/>
    <path d="m1652.8 1044.4c-14.8 1.496-30.633 2.9358-47.512 4.3478-35.506 2.9702-75.032 5.7585-116.29 8.3289-41.26 2.5704-84.265 4.9393-126.61 7.0718s-84.025 4.0533-122.79 5.7097c-38.762 1.6565-74.571 3.0483-105.08 4.1907-0.9822 0.037-0.653 0.017-1.624 0.052-12.282 24.812-46.781 84.752-79.675 172.92-18.647-11.817-50.19-23.817-72.237 9.9003-22.045 33.716 18.002 54.505 47.302 64.641-13.955 46.958-26.295 99.438-34.678 156.89 5.2283 4.6783 10.454 9.3341 16.291 14.143 7.927 6.5306 16.41 13.168 25.458 19.748 9.0476 6.5805 18.645 13.13 28.811 19.539 10.166 6.4089 20.882 12.684 32.164 18.701 11.281 6.0163 23.122 11.778 35.516 17.182 6.197 2.7015 12.541 5.2979 19.015 7.8051 6.4744 2.507 13.102 4.9439 19.853 7.2288 6.7515 2.2848 13.61 4.4081 20.639 6.4429 7.0288 2.0352 14.225 3.9525 21.53 5.7101 7.305 1.7572 14.734 3.3667 22.315 4.8192 7.5811 1.4523 15.297 2.7568 23.153 3.8764 7.8568 1.1194 15.859 2.0695 23.992 2.8287 8.1324 0.759 16.422 1.3048 24.83 1.6762 8.4075 0.3713 16.933 0.568 25.615 0.5239 8.6823-0.044 17.497-0.2982 26.454-0.786 8.9564-0.4871 17.878-1.218 26.716-2.1475 8.8371-0.9296 17.589-2.0626 26.296-3.4048 8.7073-1.3425 17.362-2.8845 25.93-4.6097 8.5674-1.7258 17.042-3.6307 25.458-5.7099 8.4164-2.0792 16.783-4.3541 25.039-6.7577 8.2561-2.4031 16.431-4.9498 24.515-7.6478 8.085-2.6983 16.036-5.5231 23.939-8.4862 7.9031-2.9628 15.756-6.073 23.468-9.2716 15.422-6.3975 30.404-13.214 44.997-20.377 14.593-7.1632 28.75-14.676 42.431-22.368 13.68-7.6922 26.916-15.587 39.602-23.572 12.685-7.9853 24.852-16.054 36.459-24.096 11.607-8.0427 22.66-16.023 33.106-23.887 10.446-7.8637 20.29-15.6 29.492-23.049 8.7918-7.1165 16.88-13.955 24.463-20.482-10.902-46.474-25.653-93.56-44.945-141.75 27.243-8.838 63.122-28.358 45.364-67.679-19.279-42.69-57.906-23.134-78.994-7.9623-22.25-45.497-48.657-92.11-79.78-140.23z" fill="#ffb380"/>
    <path d="m1622.1 526.01c0.037 0.97106 0.017 0.64184 0.052 1.624 1.1426 30.51 2.5342 66.319 4.1907 105.08 1.6565 38.762 3.5773 80.441 5.7098 122.79 2.1326 42.345 4.5013 85.351 7.0717 126.61 2.5706 41.26 5.3587 80.785 8.329 116.29 1.4119 16.879 2.8519 32.711 4.3478 47.511 4.2153-2.7262 8.3335-5.1111 12.572-7.9097 108.7-71.778 142.24-159.38 128.02-267.47-19.024-144.63-107.21-214.04-167.26-242.95-0.6732-0.32419-2.3032-1.2076-3.0383-1.5717z" fill="#ffb380"/>
    <path transform="matrix(1.8151 .3201 -.32034 1.8137 -5185.1 -1764)" d="m3740.9 984.84c0 10.447-5.4313 18.916-12.131 18.916s-12.131-8.4692-12.131-18.916c0-10.447 5.4313-18.916 12.131-18.916s12.131 8.4692 12.131 18.916z"/>
    <path transform="matrix(1.6763 0 0 1.6763 -4985.1 -434.07)" d="m3735.6 971.89c0 2.7822-1.8871 5.0375-4.215 5.0375-2.328 0-4.2151-2.2554-4.2151-5.0375s1.8871-5.0375 4.2151-5.0375c2.3279 0 4.215 2.2554 4.215 5.0375z" fill="#fff"/>
    <path transform="matrix(-1.8151 .3201 .32034 1.8137 7836.4 -1769.5)" d="m3740.9 984.84c0 10.447-5.4313 18.916-12.131 18.916s-12.131-8.4692-12.131-18.916c0-10.447 5.4313-18.916 12.131-18.916s12.131 8.4692 12.131 18.916z"/>
    <path transform="matrix(-1.6763 0 0 1.6763 7633.7 -438.9)" d="m3735.6 971.89c0 2.7822-1.8871 5.0375-4.215 5.0375-2.328 0-4.2151-2.2554-4.2151-5.0375s1.8871-5.0375 4.2151-5.0375c2.3279 0 4.215 2.2554 4.215 5.0375z" fill="#fff"/>
    <path d="m1208.5 1132.7s17.922-37.913 54.457-19.301c-22.058-27.573-53.767-32.398-54.457 19.301z"/>
    <path d="m1379.4 1096.8s19.301-33.777 44.806-12.408-2.068 39.292-2.068 39.292-7.5826-43.428-42.738-26.884z"/>
    <path d="m1187.8 1273.3s-11.029-31.02-24.816-21.369c-13.787 9.6506 24.816 21.369 24.816 21.369z"/>
    <path d="m1204.1 1271s2.2053-32.848-14.281-29.471c-16.486 3.3775 14.281 29.471 14.281 29.471z"/>
    <path d="m1431.1 1251s-2.2053-32.848 14.281-29.471c16.486 3.3776-14.281 29.471-14.281 29.471z"/>
    <path d="m1452.5 1246s17.588-27.83 28.912-15.381-28.912 15.381-28.912 15.381z"/>
    <path d="m1191.2 1342.2s184.74 90.991 335.01-51.01c-19.301 28.952-45.496 48.253-45.496 48.253s-5.5145 151.65-121.32 159.92c-115.81 8.2719-125.8-127.53-125.8-127.53s-31.02-14.821-42.394-29.641z"/>
    <path d="m1361.7 1420.7c-34.024 0.6076-67.861 7.4337-98.271 22.944 18.031 32.869 55.417 52.583 92.666 49.45 37.768-1.3104 73.106-24.224 90.623-57.674-4.8565-3.996-15.593-5.6222-22.892-7.9098-20.335-5.0145-41.189-7.0773-62.126-6.8098z" fill="#d40000"/>
    <path d="m1454.9 1348.3c-76.968 38.398-154.06 32.119-204.82 20.272l17.025 43.792s63.396 33.047 167.48-5.5548c7.9138-13.415 18.246-44.186 20.309-58.51z" fill="#fff"/>
    <path d="m1497.5 1582.6c-2.931 0.8965-5.848 1.8122-8.8004 2.6715-8.2556 2.4036-16.622 4.6783-25.039 6.7575-8.4167 2.0792-16.891 3.9843-25.458 5.7099-8.5669 1.7252-17.222 3.2672-25.93 4.6097-8.7074 1.3422-17.459 2.4752-26.296 3.4048-8.8371 0.9297-17.759 1.6604-26.716 2.1476-8.9565 0.4875-17.771 0.7416-26.454 0.7859-8.6819 0.044-17.208-0.1526-25.615-0.5239-8.4075-0.3712-16.697-0.917-24.83-1.6762s-16.135-1.7091-23.992-2.8287c-5.9377-0.8462-11.769-1.8397-17.548-2.8812 24.322 46.39 72.486 132.5 122.79 189.58 50.895-72.325 103.12-156.8 133.89-207.75z" fill="#fff"/>
    <path d="m1329.6 1645.3-37.873 45.102c20.196 32.649 43.328 66.559 67.103 94.447 1.5764 1.811 3.1202 3.6392 4.7143 5.4479 3.1755-4.5124 6.3567-9.0792 9.5339-13.672 1.0427-1.5071 2.1004-3.0431 3.143-4.5574 2.148-3.1217 4.2997-6.2295 6.4431-9.3767 2.2579-3.3131 4.5075-6.6182 6.7575-9.9527 0.9131-1.3544 1.8126-2.7291 2.724-4.086 0.5395-0.8028 1.0848-1.6059 1.6237-2.4095 1.4002-2.0894 2.7961-4.1928 4.1907-6.286 11.337-17.015 22.449-34.113 33.159-50.812 0.017-0.02 0.039-0.032 0.052-0.052l-24.882-27.03-23.468-9.6386-53.221-7.1241z" fill="#ccc"/>
    <path d="m1358.7 1608.3-42.064 52.436 24.83 24.777-14.562 58.145c11.854 16.634 24.171 32.554 36.616 46.674 13.135-18.665 26.367-38.123 39.288-57.622l-17.234-49.921 21.372-20.692-48.245-53.798z" fill="#500"/>
    <path d="m824.59 1841.6c-13.132-0.1274-24.496 3.7599-33.001 10.477-11.341 8.9557-17.422 21.577-21.006 33.63-7.1664 24.105-4.924 48.454-4.9239 48.454l25.092-2.0429s-1.4476-21.151 3.9287-39.235c2.6882-9.0421 6.9429-16.695 12.467-21.058 5.5243-4.3626 12.537-6.8636 26.034-4.086 22.623 4.6558 41.816 5.6498 56.888 6.4955 15.072 0.8458 25.851 2.0201 31.011 4.4002 5.1596 2.3803 7.2237 4.1776 8.9575 15.505 1.7339 11.328 0.91206 31.063-3.4048 60.974l24.882 3.562c4.4567-30.881 5.8502-51.989 3.3525-68.308-2.4978-16.319-11.19-28.953-23.258-34.52-12.069-5.5678-24.982-5.8554-40.126-6.7051s-32.649-1.7904-53.221-6.024c-4.7333-0.9742-9.2946-1.4766-13.672-1.5192z" color="#000000" fill="#803300" style="block-progression:tb;text-indent:0;text-transform:none"/>
    <path d="m882.22 1776.6c-20.22 8.7668-39.722 6.467-51.44 3.562l6.1289 21.896s-28.935 2.0829-31.692 42.064c-2.7573 39.981-2.7481 51.03 16.553 50.34 6.8931 17.922 18.57 29.64 33.735 13.096 15.165 20.68 26.226 19.982 40.702 0.681 9.6506 7.5826 25.477 8.9483 28.234-7.5956 2.7573-16.544-2.043-45.521-2.0429-45.521l15.139 3.4573s3.4754-35.852-11-42.745c-14.476-6.8933-43.426-15.82-43.426-15.82z" fill="#ffb380"/>
    <path d="m891.91 1751.7c-37.599 15.825-63.962 10.71-79.361 3.7716l7.0717 21.006s36.094 16.611 71.189-4.3479c1.1182-20.127 0.89664-16.632 1.1-20.429z" fill="#fff"/>
    <path d="m2159.5 1058.4c-24.553-0.6299-45.074 51.071-68.727 98.376-26.884-11.719-53.76 13.079-65.479 44.788-11.718 31.709 42.011 56.574 42.011 56.574l-8.8527 41.592c13.164 1.7021 28.239 6.3331 37.716 17.705 3.776-12.175 8.633-27.996 12.52-41.383 19.99 11.718 40.65 3.4539 57.884-17.915 7.5826 8.2721 20.682 0.6861 34.468-21.372 13.787-22.058 7.578-42.064-8.2764-42.064 8.9613-31.02 0.029-34.496-11.001-36.564 4.8255-24.126-23.468-22.053-23.468-22.053s31.066-70.957 4.8717-77.161c-1.2278-0.2908-2.4592-0.4928-3.6668-0.5238z" fill="#ffb380"/>
    <path d="m2045 1298.9c-7.6111-0.064-12.834 0.6286-12.834 0.6286l-8.6432 23.834c42.767-3.0448 63.809 9.4382 73.913 20.325 0.8211-6.0054 1.9619-12.397 3.6667-18.648-10.9-22.274-39.358-26-56.102-26.139z" fill="#fff"/>
    <path d="m1543 1566.8c-1.7878 0.6889-3.549 1.4209-5.3433 2.0953-2.1634 17.948-2.7558 23.137-5.6049 46.569-2.9854 24.553-5.999 49.281-8.3289 68.151-1.1651 9.4345-2.1488 17.388-2.8811 23.153-0.3661 2.8831-0.6672 5.2353-0.8905 6.9146-0.1508 1.1284-0.1914 1.4623-0.262 1.9382-0.3141 0.096-0.6594 0.2112-1.3096 0.3143-1.7167 0.2724-4.3806 0.4045-7.5432 0.4714-6.3244 0.1341-14.767-0.099-23.206-0.5237-16.878-0.8503-33.683-2.3052-33.682-2.3048l-2.8812-0.262 0.1576 2.881s0.7535 11.932 1.3618 24.463c0.3044 6.2656 0.5448 12.68 0.6811 17.81 0.069 2.5651 0.1173 4.8242 0.1039 6.5479-0.017 1.3847-0.065 2.1141-0.1039 2.5668-0.5299 0.283-1.4708 0.6675-2.6715 1.1002-2.4594 0.8847-6.057 1.958-10.372 3.0905-8.6293 2.265-20.122 4.8484-31.587 7.2812-22.642 4.8052-44.645 8.9053-45.207 9.0099l-97.223-23.101 16.344-37.192 1.9904-4.5572-4.8716 1.0999-57.726 13.043-15.663-144.11c-1.7357-0.4439-3.4656-0.9017-5.186-1.362l16.186 148.82 0.3144 2.7764 2.724-0.5761 55.631-12.572-15.558 35.411-1.2572 2.7762 2.9857 0.6809 99.057 23.52 5.8669 124.2c1.6873 0.1357 3.3495 0.2356 5.0288 0.3667l-5.8669-124.67c3.385-0.6302 22.409-4.1724 43.478-8.6431 11.505-2.4418 23.016-5.0292 31.797-7.3337 4.3903-1.1528 8.1178-2.2666 10.843-3.2479 1.3628-0.4902 2.4294-0.9127 3.3525-1.4143 0.4617-0.2507 0.8904-0.5255 1.3095-0.8906 0.4194-0.3642 0.9437-0.8416 1.1526-1.8858 0.2228-1.1145 0.2481-2.3171 0.2618-4.1382 0.017-1.8211-0.035-4.1065-0.1039-6.705-0.1374-5.1973-0.3756-11.63-0.6811-17.915-0.5397-11.121-1.0654-19.38-1.2047-21.687 2.5142 0.2146 15.408 1.3645 30.958 2.1478 8.4997 0.4278 17.011 0.6635 23.573 0.5237 3.2806-0.07 6.0758-0.2354 8.2241-0.5762 1.0741-0.1703 1.9646-0.325 2.8287-0.681 0.8641-0.3554 2.1238-0.98 2.4619-2.6715 0.124-0.6168 0.2454-1.4972 0.4715-3.1954 0.2262-1.6974 0.5234-4.0261 0.8906-6.9146 0.7334-5.7761 1.7155-13.716 2.881-23.153 2.3309-18.876 5.3436-43.596 8.3289-68.151 3.0144-24.792 3.7518-30.965 5.9718-49.293z" color="#000000" fill="#fff" style="block-progression:tb;text-indent:0;text-transform:none"/>
    <path d="m2150.1 1150.6c-12.487 6.9374-23.212 19.969-32.216 31.22-2.8521-4.1484-9.5071-12.375-21.215-19.015 11.564 8.457 15.25 19.292 16.448 24.934-6.7062 8.2779-12.362 14.562-16.815 14.562-11.029 0-17.22-11.747-22.734-19.329-5.5148-7.5826-4.8445 6.9026-2.7764 16.553 2.068 9.6506-5.5002 23.415-5.5004 23.415 0 0 11.707-8.2251 9.6385-25.458 13.098 22.748 36.879 10.305 36.879 10.305s1.0326 30.665 30.674 14.122c-7.9619 30.429 19.992 22.053 19.992 22.053-5.4783 9.1059 0.2686 12.458 4.1268 14.18 7.5826 8.2721 20.682 0.6861 34.468-21.372 1.195-1.9115 2.242-3.7883 3.143-5.6574-9.1722 9.9321-26.78 27.656-33.134 24.268-10.34-5.5147 4.5226-25.55 18.31-53.812-21.024 41.187-40.712 43.596-43.641 35.324-5.035-9.4989 17.04-42.448 22.531-55.492-5.0962 3.6913-6.7035 6.9484-13.201 17.444-8.9613 14.476-28.438 28.946-36.021 14.47-7.5826-14.476 31.044-62.715 31.044-62.715z" fill="#ff7f2a"/>
    <path d="m675.15 1953.4-20.472 159.88 342.17 46.793 17.548-151.1z" fill="#803300"/>
    <path d="m673.56 1903.7 359.37 52.642-7.7988 64.34-183.27 39.969-181.12-87.1z" fill="#520"/>
    <path d="m828.2 2033.3-7.7988 41.919 32.17 3.8993 4.8742-42.893z"/>
    <path transform="matrix(1.6763 0 0 1.7829 -4985.1 -520.77)" d="m3834.2 748.83c0 35.331-29.162 63.972-65.135 63.972s-65.135-28.641-65.135-63.972 29.162-63.972 65.135-63.972 65.135 28.641 65.135 63.972z" fill="#ff0"/>
    <path d="m1369.4 816.79c-0.5627-0.0151-1.1061 5e-3 -1.6762 0.0523-2.2794 0.18694-4.6263 0.89006-6.8621 2.1477-4.2071 2.3665-6.7341 6.2996-8.2766 10.581-1.5665-0.83722-3.1225-1.7044-4.8193-2.2001-4.5656-1.3338-9.6482-1.196-14.196 1.362-4.5593 2.5647-7.3271 6.8612-8.6955 11.524-0.3277 1.1164-0.39 2.3043-0.5763 3.4573-3.8002-0.44054-7.9218-3e-3 -12.205 2.5668-10.725 6.4347-14.025 18.589-10.058 28.968 3.9672 10.379 15.04 19.028 31.744 19.591 10.599 0.35772 19.887 9.788 26.454 19.644 2.0185 3.0295 3.7333 6.0136 5.1858 8.748 1.604-0.52309 3.1958-1.1313 4.767-1.7286-1.5769-3.0275-3.4873-6.3814-5.7622-9.7957-6.9389-10.414-17.121-21.445-30.487-21.896-15.082-0.50904-24.043-7.9815-27.239-16.344-3.1964-8.3621-0.8104-17.576 7.9622-22.839 3.5182-2.1109 6.4421-2.3982 9.1147-2.043-0.018 2.064 0.064 4.0913 0.3666 6.0765 0.7166 4.6886 2.2475 9.0282 4.3479 12.205 1.0502 1.5886 2.2495 2.8766 3.7716 3.7716 1.522 0.89499 3.4786 1.2851 5.2906 0.68098 1.7794-0.59306 3.143-2.0328 3.8241-3.6144 0.681-1.5816 0.8361-3.3003 0.681-5.0812-0.3107-3.5618-1.8413-7.4408-4.3479-10.896-2.0872-2.877-5.0356-5.1982-8.486-6.7574 0.1575-1.1061 0.1706-2.2751 0.4715-3.3002 1.099-3.745 3.0989-6.7687 6.3383-8.5909 3.2513-1.8288 6.7513-1.933 10.319-0.89051 1.712 0.50006 3.3966 1.316 5.0288 2.3049-0.6155 3.5926-0.8536 7.2531-0.4191 10.634 0.5897 4.5841 1.8929 8.6249 4.1384 11.367 1.1228 1.3711 2.6071 2.519 4.505 2.7239 1.8978 0.20497 3.7876-0.69706 5.2383-2.1477 2.9671-2.9672 3.3337-7.3325 2.1478-11.262-1.1863-3.9299-3.7626-7.8095-7.1241-11.105-0.9149-0.89675-2.0122-1.6143-3.0384-2.4096 0.017-0.0322-0.017-0.0727 0-0.10476 1.1918-3.8624 3.2811-7.0447 6.4955-8.8528 3.3272-1.8715 6.3224-1.9644 9.2194-0.89051 2.8973 1.0739 5.7039 3.4951 7.91 6.9146 4.4123 6.8389 6.3108 17.562 2.6716 28.025v0.0523c-4.2758 12.362-0.5676 29.11 3.8762 43.059 1.2554 3.9401 2.5139 7.3758 3.7193 10.529 1.4295-0.93559 2.8589-1.8793 4.243-2.8811-1.0593-2.8287-2.1059-5.912-3.143-9.1671-4.3177-13.553-7.4014-29.858-3.9287-39.916v-0.0523c4.1595-11.958 2.1409-24.102-3.1954-32.373-2.668-4.1356-6.2014-7.3592-10.372-8.9052-1.5641-0.57975-3.2358-0.8999-4.9242-0.94289zm-13.567 21.163c0.1458 0.13645 0.3295 0.22759 0.4715 0.36668 2.8528 2.797 5.0119 6.1244 5.8669 8.9575 0.8549 2.8331 0.529 4.8139-0.8906 6.2336-0.7427 0.74277-1.0052 0.69688-1.1524 0.68099-0.1475-0.0151-0.554-0.15959-1.1524-0.89052-1.1971-1.4618-2.5309-4.8545-3.0383-8.8004-0.2687-2.0904-0.2799-4.3227-0.1039-6.5479zm-26.873 12.415c1.7748 1.1415 3.3927 2.5457 4.6622 4.2954 2.0021 2.7598 3.1973 6.055 3.4049 8.4337 0.104 1.1894-0.034 2.0873-0.262 2.6192-0.2289 0.53184-0.3714 0.70005-0.7856 0.83813-0.3814 0.12706-0.6288 0.12924-1.2049-0.20954-0.5761-0.3388-1.333-1.0993-2.0953-2.2525-1.5249-2.3064-2.938-6.0772-3.5621-10.162-0.1782-1.1668-0.1039-2.3635-0.1576-3.5621z" color="#000000" fill="#f60" style="block-progression:tb;text-indent:0;text-transform:none"/>
    <path d="m1402.9 949.9c-1.3948 0.45791-2.7646 1.0389-4.0859 1.8334-0.1307 0.0783-0.239 0.18129-0.3666 0.26191 1.5177-0.65691 3.0037-1.3554 4.4525-2.0953zm21.372 8.748c-7.687 8.0028-19.19 14.276-32.373 17.339 4.895 7.7583 15.684 9.8994 24.306 4.7145 8.0415-4.8361 11.354-14.338 8.067-22.053z" fill="#4d4d4d"/>
    <path d="m1429.7 921.56c-4.7591 17.196-26.669 32.472-51.021 36.092-8.9687 1.3332-16 0.0595-21.163-2.462-1.2121 8.5204 5.817 25.333 28.234 22.001 33.882-5.0365 59.389-31.701 43.95-55.631z" fill="#520"/>
    <path d="m1425.5 899.56c-2.942 19.293-29.501 37.586-56.103 41.54-9.9987 1.4863-17.257 0.62421-22.525-1.4144-1.1533 8.2931 9.2523 21.319 31.797 17.967 34.601-5.1434 64.348-33.774 46.831-58.093z" fill="#333"/>
    <path d="m1420.9 881.85c-19.537 27.735-50.766 45.904-86.118 46.516 3.1401 7.0284 11.608 16.158 34.678 12.729 34.794-5.172 69.585-34.84 51.441-59.245z" fill="#1a1a1a"/>
    <path d="m1429.7 921.56c-4.7591 17.196-26.669 32.472-51.021 36.092-8.9687 1.3332-16 0.0595-21.163-2.462-1.2121 8.5204 5.817 25.333 28.234 22.001 33.882-5.0365 59.389-31.701 43.95-55.631z" fill="#1a1a1a"/>
    <path d="m1292.9 905s-66.29-43.868-48.743-111.13c17.547-67.265 88.712-80.913 98.46-66.29 9.7487 14.623-38.019 20.472-56.541 42.894s-45.818 64.34 6.8239 134.53z" fill="#fff"/>
    <path d="m1233.5 951.79s-46.793 36.07-38.994 46.793c7.7988 10.723 38.994-46.793 38.994-46.793z" fill="#ff0"/>
    <path d="m1171.1 872.14s-53.768 24.485-48.612 36.701c5.1564 12.216 48.612-36.701 48.612-36.701z" fill="#ff0"/>
    <path d="m1137.9 800.84s-58.731 6.4202-57.659 19.636c1.0727 13.216 57.659-19.636 57.659-19.636z" fill="#ff0"/>
    <path d="m1147.8 704.17s-47.5-35.134-55.679-24.698c-8.1792 10.436 55.679 24.698 55.679 24.698z" fill="#ff0"/>
    <path d="m1203.4 642.26s-23.34-54.276-35.662-49.379c-12.322 4.8964 35.662 49.379 35.662 49.379z" fill="#ff0"/>
    <path d="m1357.1 606.04s32.583-46.132 22.327-57.772c-10.257-11.64-22.327 57.772-22.327 57.772z" fill="#ff0"/>
    <path d="m1281.9 604.28s3.4192-56.375-11.428-60.873c-14.848-4.4975 11.428 60.873 11.428 60.873z" fill="#ff0"/>
    <path d="m1425.4 648.77s41.267-38.56 33.586-52.039c-7.6813-13.479-33.586 52.039-33.586 52.039z" fill="#ff0"/>
    <path d="m1463.4 739.18s56.477-0.49326 59.935-15.617c3.4583-15.124-59.935 15.617-59.935 15.617z" fill="#ff0"/>
    <path d="m1472.8 835.8s51.454 23.288 60.948 11.019c9.494-12.27-60.948-11.019-60.948-11.019z" fill="#ff0"/>
    <path d="m1622.2 526c0.019 0.48535 0 0.65072 0 0.8125 15.055 12.219 34.456 32.176 55.063 64.406-25.589 33.731-26.748 162.83 15.125 250.06-24.426-32.568-44.205-59.311-46.531-96.531-2.3263 48.851 18.617 105.86 57 150.06-30.241-16.284-41.875-37.219-41.875-37.219s1.155 72.094 38.375 130.25c-21.517 26.435-37.328 44.866-47.625 56.562 0.05 0.4945 0.1065 1.0079 0.1563 1.5 4.2153-2.7262 8.324-5.1076 12.562-7.9062 108.7-71.778 142.25-159.38 128.03-267.47-19.024-144.63-107.2-214.05-167.25-242.97-0.6732-0.32419-2.2961-1.1984-3.0313-1.5625z"/>
   </g>
  </g>
 </g>
</svg>
