<?xml version="1.0" encoding="UTF-8"?>
<svg enable-background="new 0 0 1920 730" version="1.1" viewBox="0 0 1920 730" xml:space="preserve" xmlns="http://www.w3.org/2000/svg">
<style type="text/css">
	.st0{fill:#6976AB;}
	.st1{fill-rule:evenodd;clip-rule:evenodd;fill:#B11B14;}
	.st2{fill-rule:evenodd;clip-rule:evenodd;fill:#ECB1AF;}
	.st3{fill-rule:evenodd;clip-rule:evenodd;fill:#955F44;}
	.st4{fill-rule:evenodd;clip-rule:evenodd;fill:#CC6864;}
	.st5{fill-rule:evenodd;clip-rule:evenodd;fill:#40678B;}
	.st6{fill-rule:evenodd;clip-rule:evenodd;fill:#1432B1;}
	.st7{fill-rule:evenodd;clip-rule:evenodd;fill:#7E3C1B;}
	.st8{fill-rule:evenodd;clip-rule:evenodd;fill:#E4908C;}
	.st9{fill:#534741;}
	.st10{fill:#F2F2F2;}
	.st11{fill:#C7B299;}
	.st12{fill:#998675;}
	.st13{fill:#004E29;}
	.st14{fill:#7BE7DF;}
	.st15{fill:#00A99D;}
	.st16{fill:#DC424C;}
	.st17{fill:#42DCD1;}
	.st18{fill:#5D0006;}
	.st19{fill:#B6000C;}
	.st20{fill:#26756F;}
	.st21{fill:#08615B;}
	.st22{fill:#567D6E;}
	.st23{fill:#341C2D;}
	.st24{fill:#4E6161;}
	.st25{fill:#CDABC3;}
	.st26{fill:#1C3434;}
	.st27{fill:#574251;}
	.st28{fill:#2C4242;}
	.st29{fill:#DFDBDB;}
	.st30{fill:#ABCDCD;}
	.st31{fill:#9A9090;}
</style>
<rect class="st22" x=".1" y="-.3" width="1919.9" height="730.3"/>
<path class="st23" d="m1455 728.7s-84.9 0-84.9-1.1c0-41.1 5.3-184.3-9.1-198.6-12.6-12.6-36.7-40-36.7-61.1-2.5-7.1-13.6-29.7-18.6-34.7-12.8-29 23.7-9.2 28.8 5.9 2.4 6.5 5.2 12.1 8.4 18.2 17.5 32.5 14.5-24.6 11.4-34.4-39.8-97.9-14.9-111.9 12.7-21.4 1.4 4.6 1.1 7.3 3.7 9.9s2.4 2.8 4.5 2.8c2.2 0 3.7-2.2 3.5-5.8-1.4-25 0.1-48.7 1.3-73.8 1-20 17.2-20.8 18.6-3.7 2.1 26.9 1.4 54 4.1 82.5 1.6 6.9 8.1 8.5 13.4-7.3 19.8-92.6 41.1-79.5 38.2-64.3-4.4 23.5-12.1 45-20.2 73.5 0 0-0.5 9.2 1.2 9.2s2.3-0.2 3-0.9c12.5-12.5 25-48.2 36.5-51 1.5-0.4 4 1.6 5.4 3 8 8-19.2 46.9-22.7 54.9l-2.6 9.6v2.8c-0.7 21.3-9.7 54-16.4 70.6 0 1.7-1.9 5.6-1.9 7.3v11.7c0 1.5 1.5 29.1 1.5 29.1 6.5 55.4 14 111.2 17.6 166.9"/>
<path class="st24" d="m890.3 728.7s87.9 0 87.9-1.2c0-42.5-5.5-190.8 9.4-205.7 13-13 38-41.4 38-63.3 2.6-7.4 14.1-30.7 19.3-35.9 13.3-30-24.5-9.6-29.8 6.1-2.5 6.7-5.4 12.5-8.7 18.8-18.1 33.7-15-25.4-11.8-35.6 41.2-101.3 15.5-115.9-13.2-22.1-1.5 4.8-1.1 7.6-3.8 10.3s-2.5 2.9-4.7 2.9-3.8-2.2-3.6-6c1.5-25.9-0.1-50.5-1.3-76.5-1-20.7-17.9-21.5-19.2-3.8-2.2 27.9-1.5 55.9-4.2 85.4-1.6 7.1-8.4 8.8-13.9-7.6-20.7-95.8-42.7-82.2-39.8-66.5 4.5 24.4 12.5 46.6 20.9 76.1 0 0 0.5 9.5-1.3 9.5s-2.4-0.2-3.1-0.9c-13-12.9-25.8-49.9-37.8-52.8-1.6-0.4-4.1 1.7-5.6 3.1-8.3 8.3 19.9 48.5 23.5 56.9l2.6 10v2.9c0.8 22.1 10.1 55.9 17 73.1 0 1.8 2 5.8 2 7.6v12.1c0 1.6-1.6 30.2-1.6 30.2-6.8 57.4-14.5 115.1-18.2 172.8"/>
<path class="st25" d="m621.7 728.7s87.9 0 87.9-1.2c0-42.5-5.5-190.8 9.4-205.7 13-13 38-41.4 38-63.3 2.6-7.4 14.1-30.7 19.3-35.9 13.3-30-24.5-9.6-29.8 6.1-2.5 6.7-5.4 12.5-8.7 18.8-18.1 33.7-15-25.4-11.9-35.6 41.2-101.3 15.5-115.9-13.2-22.1-1.5 4.8-1.1 7.6-3.8 10.3s-2.5 2.9-4.7 2.9-3.8-2.2-3.6-6c1.5-25.9-0.1-50.5-1.3-76.5-1-20.7-17.9-21.5-19.2-3.8-2.2 27.9-1.5 55.9-4.2 85.4-1.6 7.1-8.4 8.8-13.9-7.6-20.5-95.9-42.5-82.3-39.6-66.6 4.5 24.4 12.5 46.6 20.9 76.1 0 0 0.5 9.5-1.3 9.5s-2.4-0.2-3.1-0.9c-13-12.9-25.8-49.9-37.8-52.8-1.6-0.4-4.1 1.7-5.6 3.1-8.3 8.3 19.9 48.5 23.5 56.9l2.6 10v2.9c0.8 22.1 10.1 55.9 17 73.1 0 1.8 2 5.8 2 7.6v12.1c0 1.6-1.6 30.2-1.6 30.2-6.8 57.4-14.5 115.1-18.3 172.8"/>
<path class="st26" d="m402.1 728.7s71.9 0 71.9-1c0-34.8-4.5-156.1 7.7-168.2 10.6-10.6 31.1-33.8 31.1-51.7 2.1-6 11.5-25.1 15.8-29.3 10.9-24.6-20-7.8-24.4 5-2.1 5.5-4.4 10.2-7.1 15.4-14.8 27.6-12.3-20.8-9.7-29.1 33.7-82.9 12.6-94.8-10.8-18.1-1.2 3.9-0.9 6.2-3.1 8.4s-2 2.4-3.8 2.4-3.1-1.8-2.9-4.9c1.2-21.2-0.1-41.3-1.1-62.5-0.8-17-14.6-17.6-15.7-3.1-1.8 22.8-1.2 45.7-3.5 69.8-1.3 5.8-6.9 7.2-11.3-6.2-16.8-78.4-34.8-67.3-32.4-54.5 3.7 19.9 10.2 38.1 17.1 62.2 0 0 0.4 7.8-1 7.8-1.5 0-2-0.2-2.5-0.7-10.6-10.6-21.1-40.8-30.9-43.2-1.3-0.3-3.4 1.4-4.6 2.6-6.8 6.8 16.3 39.7 19.2 46.5l2.2 8.2v2.4c0.6 18.1 8.2 45.7 13.9 59.8 0 1.5 1.7 4.8 1.7 6.2v9.9c0 1.3-1.3 24.7-1.3 24.7-5.5 47-11.9 94.2-14.9 141.3"/>
<path class="st23" d="m982.4 728.7s117.5 0 117.5-1.6c0-56.9-7.3-255.3 12.6-275.2 17.4-17.4 50.8-55.3 50.8-84.6 3.5-9.9 18.9-41.1 25.8-48 17.8-40.2-32.8-12.8-39.9 8.2-3.4 9-7.3 16.8-11.7 25.2-24.3 45.1-20.1-34-15.9-47.6 55.1-135.6 20.7-155.1-17.6-29.6-2 6.4-1.5 10.2-5.1 13.8s-3.3 3.9-6.3 3.9-5.1-3-4.8-8.1c2-34.7-0.1-67.5-1.8-102.3-1.3-27.7-23.9-28.8-25.7-5.1-2.9 37.3-1.9 74.8-5.7 114.3-2.2 9.5-11.3 11.7-18.5-10.2-27.5-128.3-56.9-110.2-52.9-89.1 6.1 32.6 16.7 62.4 27.9 101.8 0 0 0.7 12.7-1.7 12.7s-3.2-0.3-4.1-1.2c-17.3-17.3-34.6-66.8-50.5-70.6-2.1-0.5-5.5 2.2-7.5 4.2-11.1 11.1 26.6 64.9 31.5 76.1l3.5 13.3v3.9c1 29.5 13.5 74.8 22.7 97.8 0 2.4 2.7 7.8 2.7 10.2v16.2c0 2.1-2.1 40.4-2.1 40.4-9.1 76.8-19.4 154-24.4 231.2"/>
<path class="st27" d="m489.5 728.7s117.5 0 117.5-1.6c0-56.9-7.3-255.3 12.6-275.2 17.4-17.4 50.8-55.3 50.8-84.6 3.5-9.9 18.9-41.1 25.8-48 17.8-40.2-32.8-12.8-39.9 8.2-3.4 9-7.3 16.8-11.7 25.2-24.2 45.1-20.1-34-15.9-47.6 55.1-135.6 20.7-155.1-17.7-29.6-2 6.4-1.5 10.2-5.1 13.8s-3.3 3.9-6.3 3.9-5.1-3-4.8-8.1c2-34.7-0.1-67.5-1.8-102.3-1.3-27.7-23.9-28.8-25.7-5.1-2.9 37.3-1.9 74.8-5.7 114.3-2.2 9.5-11.3 11.7-18.5-10.2-27.5-128.3-56.9-110.2-52.9-89.1 6.1 32.6 16.7 62.4 27.9 101.8 0 0 0.7 12.7-1.7 12.7s-3.2-0.3-4.1-1.2c-17.3-17.3-34.6-66.8-50.5-70.6-2.1-0.5-5.5 2.2-7.5 4.2-11.1 11.1 26.6 64.9 31.5 76.1l3.5 13.3v3.9c1 29.5 13.5 74.8 22.7 97.8 0 2.4 2.7 7.8 2.7 10.2v16.2c0 2.1-2.1 40.4-2.1 40.4-9.1 76.8-19.4 154-24.4 231.2"/>
<path class="st28" d="m280.3 728.7s96.1 0 96.1-1.3c0-46.6-6-208.8 10.3-225.1 14.2-14.2 41.6-45.3 41.6-69.2 2.9-8.1 15.5-33.6 21.1-39.3 14.5-32.9-26.8-10.5-32.6 6.7-2.7 7.3-5.9 13.7-9.5 20.6-19.8 36.9-16.5-27.8-13-38.9 45.1-110.9 16.9-126.8-14.4-24.2-1.6 5.3-1.2 8.3-4.2 11.3-2.9 2.9-2.7 3.2-5.1 3.2s-4.1-2.5-3.9-6.6c1.6-28.4-0.1-55.2-1.5-83.7-1.1-22.7-19.5-23.6-21-4.2-2.4 30.5-1.6 61.2-4.6 93.4-1.8 7.8-9.2 9.6-15.2-8.3-22.5-104.9-46.5-90.1-43.3-72.9 5 26.7 13.7 51 22.8 83.3 0 0 0.6 10.4-1.4 10.4s-2.6-0.2-3.4-1c-14.2-14.2-28.3-54.6-41.3-57.7-1.7-0.4-4.5 1.8-6.1 3.4-9.1 9.1 21.8 53.1 25.7 62.2l2.9 10.9v3.2c0.8 24.2 11 61.2 18.6 80 0 2 2.2 6.4 2.2 8.3v13.2c0 1.7-1.7 33-1.7 33-7.4 62.8-15.9 126-20 189.1"/>
<path class="st29" d="m1221.4 728.7s96.1 0 96.1-1.3c0-46.6-6-208.8 10.3-225 14.2-14.2 41.6-45.3 41.6-69.2 2.9-8.1 15.5-33.6 21.1-39.3 14.5-32.9-26.8-10.5-32.6 6.7-2.7 7.3-5.9 13.7-9.5 20.6-19.8 36.9-16.5-27.8-13-38.9 45.1-110.9 16.9-126.8-14.4-24.2-1.6 5.3-1.2 8.3-4.2 11.3-2.9 2.9-2.7 3.2-5.1 3.2s-4.2-2.5-3.9-6.6c1.6-28.4-0.1-55.2-1.5-83.7-1.1-22.7-19.5-23.6-21-4.2-2.4 30.5-1.6 61.2-4.6 93.4-1.8 7.8-9.2 9.6-15.2-8.3-22.5-104.9-46.5-90.1-43.3-72.9 5 26.7 13.7 51 22.8 83.3 0 0 0.6 10.4-1.4 10.4s-2.6-0.2-3.4-1c-14.2-14.2-28.3-54.6-41.3-57.7-1.7-0.4-4.5 1.8-6.1 3.4-9.1 9.1 21.8 53.1 25.7 62.2l2.9 10.9v3.2c0.8 24.2 11 61.2 18.6 80 0 2 2.2 6.4 2.2 8.3v13.2c0 1.7-1.7 33-1.7 33-7.4 62.8-15.9 126-20 189"/>
<path class="st24" d="m1649.3 728.7s-113.5 0-113.5-1.5c0-55 7.1-246.5-12.1-265.7-16.8-16.8-49.1-53.4-49.1-81.7-3.4-9.5-18.2-39.7-24.9-46.4-17.2-38.8 31.7-12.4 38.5 7.9 3.2 8.7 7 16.2 11.3 24.3 23.4 43.5 19.4-32.9 15.3-46-53.3-130.9-20-149.7 17-28.6 1.9 6.2 1.4 9.8 4.9 13.3s3.2 3.8 6.1 3.8 4.9-2.9 4.6-7.8c-1.9-33.5 0.1-65.2 1.7-98.8 1.3-26.8 23.1-27.8 24.9-4.9 2.8 36 1.9 72.3 5.5 110.3 2.1 9.2 10.9 11.3 17.9-9.8 26.5-123.9 54.9-106.4 51.1-86.1-5.9 31.5-16.1 60.2-27 98.3 0 0-0.7 12.3 1.6 12.3s3.1-0.3 4-1.2c16.7-16.7 33.4-64.5 48.8-68.2 2-0.5 5.3 2.2 7.2 4 10.7 10.7-25.7 62.7-30.4 73.5l-3.4 12.9v3.8c-1 28.5-13 72.3-22 94.5 0 2.3-2.6 7.5-2.6 9.8v15.6c0 2 2 39 2 39 8.7 74.2 18.7 148.8 23.6 223.2"/>
<path class="st30" d="m921.9 728.7s-129.6 0-129.6-1.7c0-62.8 8.1-281.6-13.9-303.5-19.2-19.2-56.1-61-56.1-93.4-3.9-10.9-20.8-45.3-28.5-52.9-19.6-44.3 36.2-14.1 44 9.1 3.7 9.9 8 18.5 12.9 27.8 26.7 49.7 22.2-37.5 17.5-52.5-60.8-149.6-22.8-171 19.5-32.7 2.2 7.1 1.6 11.2 5.6 15.2s3.6 4.3 6.9 4.3 5.6-3.3 5.3-8.9c-2.2-38.2 0.1-74.5 2-112.8 1.5-30.6 26.4-31.8 28.4-5.6 3.2 41.1 2.1 82.5 6.3 126 2.4 10.5 12.4 12.9 20.5-11.2 30.3-141.5 62.7-121.5 58.4-98.3-6.7 35.9-18.4 68.8-30.8 112.3 0 0-0.8 14 1.9 14 2.6 0 3.5-0.3 4.5-1.3 19.1-19.1 38.1-73.7 55.8-77.9 2.3-0.5 6.1 2.5 8.2 4.6 12.2 12.2-29.4 71.6-34.7 83.9l-3.9 14.7v4.3c-1.1 32.6-14.8 82.5-25.1 107.9 0 2.6-3 8.6-3 11.2v17.8c0 2.3 2.3 44.5 2.3 44.5 10 84.7 21.4 169.9 26.9 255"/>
<path class="st31" d="m1135.2 728.7s71.9 0 71.9-1c0-34.8-4.5-156.1 7.7-168.2 10.6-10.6 31.1-33.8 31.1-51.7 2.2-6 11.5-25.1 15.8-29.3 10.9-24.6-20-7.8-24.4 5-2 5.5-4.4 10.2-7.1 15.4-14.8 27.6-12.3-20.8-9.7-29.1 33.7-82.9 12.6-94.8-10.8-18.1-1.2 3.9-0.9 6.2-3.1 8.4s-2 2.4-3.8 2.4-3.1-1.8-2.9-4.9c1.2-21.2-0.1-41.3-1.1-62.5-0.8-17-14.6-17.6-15.7-3.1-1.8 22.8-1.2 45.7-3.5 69.8-1.3 5.8-6.9 7.2-11.3-6.2-16.8-78.4-34.8-67.3-32.4-54.5 3.7 19.9 10.2 38.1 17.1 62.2 0 0 0.4 7.8-1 7.8-1.5 0-2-0.2-2.5-0.7-10.6-10.6-21.1-40.8-30.9-43.2-1.3-0.3-3.4 1.4-4.6 2.6-6.8 6.8 16.3 39.7 19.2 46.5l2.2 8.2v2.4c0.6 18.1 8.2 45.7 13.9 59.8 0 1.5 1.7 4.8 1.7 6.2v9.9c0 1.3-1.3 24.7-1.3 24.7-5.5 47-11.8 94.2-14.9 141.3"/>
</svg>
