<?xml version='1.0' encoding='utf-8'?>
<svg xmlns="http://www.w3.org/2000/svg" id="Layer_1" data-name="Layer 1" viewBox="0 0 450 450"><defs><style>.cls-1{fill:#aeb7a5;}.cls-2{fill:#d6dbd2;}.cls-3{fill:#859378;}.cls-4{fill:#f4d3b8;}.cls-5{fill:#f2caad;}.cls-6{fill:#f1c9a5;}.cls-7{fill:#3d1c0f;}.cls-8{fill:#ee2a7b;}.cls-9{fill:#733578;}.cls-10{fill:#ddac8c;opacity:0.1;isolation:isolate;}.cls-11{fill:#388ebf;}.cls-12{fill:#2e150b;}.cls-13{fill:#b80308;}.cls-14{fill:#654521;}.cls-15{fill:#ff9800;}.cls-16{fill:#8bc34a;}.cls-17{fill:#85562b;}.cls-18{fill:#976c4b;}.cls-19{fill:#262421;}.cls-20{fill:#fff;}.cls-21{fill:#ca9063;}.cls-22{fill:#056c8e;}.cls-23{fill:#6bbfb0;}.cls-24{fill:#fae43e;}.cls-25{fill:#b3b10a;}.cls-26{fill:#172d39;}.cls-27{fill:#b2a1a1;}.cls-28{fill:#1c4760;}.cls-29{fill:#d1c6c6;}.cls-30{fill:#334a1e;}.cls-31{fill:#d5c4b7;}</style></defs><title>round-02</title><rect class="cls-1" width="450" height="450"/><polygon class="cls-2" points="318.2 0 131.8 0 0 131.8 0 318.2 131.8 450 318.2 450 450 318.2 450 131.8 318.2 0"/><polygon class="cls-3" points="283.19 96.98 174.11 96.98 96.98 174.11 96.98 283.19 174.11 360.31 283.19 360.31 360.31 283.19 360.31 174.11 283.19 96.98"/><path class="cls-4" d="M85.36,195.5C77,200,72,228.93,72,228.93s5.49,28.82,13.91,33.24c11.67,3.24,26.51,5.9,26.51,5.9l-.61-78.85s-15.88,2-26.41,6.29Z" transform="translate(-1.79)"/><path class="cls-4" d="M71.93,228.95S77,200,85.33,195.52c10.54-4.31,26.41-6.29,26.41-6.29l.3,39.43Z" transform="translate(-1.79)"/><rect class="cls-4" x="54.63" y="222.14" width="26.07" height="15.77" transform="translate(-3.17 0.41) rotate(-0.34)"/><rect class="cls-4" x="54.81" y="221.14" width="25.99" height="7.85" transform="translate(-3.46 0.51) rotate(-0.43)"/><path class="cls-5" d="M67,236.85c4-1.44,6.23-7.12,6.22-11.35a14.64,14.64,0,0,0-.73-4.45l-17.64.13.12,15.71,12-.11Z" transform="translate(-1.79)"/><path class="cls-4" d="M38.33,209c-16.23.13-25.38,9.25-25.3,20.35s9.37,20.13,25.6,20S68,240.08,67.88,228.94,54.56,208.88,38.33,209Z" transform="translate(-1.79)"/><path class="cls-6" d="M49.59,212c-.38,3.67-4.5,6.17-9.21,5.58s-8.25-4-7.85-7.71,4.5-6.16,9.19-5.55S50,208.34,49.59,212Z" transform="translate(-1.79)"/><path class="cls-4" d="M38.33,209c-16.23.13-25.38,9.25-25.3,20.35l54.85-.42C67.78,217.83,54.56,208.88,38.33,209Z" transform="translate(-1.79)"/><path class="cls-7" d="M60.88,242.2a22,22,0,0,1-16.23,3.29c-9.25-1.86-10.9-6.69-15-6.66,9.51-8.14-1.58-11.55,4-22.57,2.2-3.9,16.89-6.86,22.32-3.41-9-16.38-44.81-11-48.4,9C.09,263,59.21,276.07,60.88,242.2Z" transform="translate(-1.79)"/><path class="cls-8" d="M23.1,229.3a21.1,21.1,0,0,1,17.1-21A21.19,21.19,0,1,0,40.51,250,21.09,21.09,0,0,1,23.1,229.3Z" transform="translate(-1.79)"/><path class="cls-8" d="M76.77,247c3.21-2.86,11.57-12.2,11.53-18.18-.06-7.85-10.92-20.57-10.92-20.57l-1.09,3.18a32.22,32.22,0,0,0-2.73,9.92c10.09,7.73.26,15.42.24,15.48a36.6,36.6,0,0,0,3,10.2Z" transform="translate(-1.79)"/><path class="cls-9" d="M85.36,195.5c-2.83,1.54-5.27,5.87-7.28,10.91a23.46,23.46,0,0,1,.34,45c2.07,5,4.6,9.32,7.44,10.79,11.67,3.24,26.51,5.9,26.51,5.9l-.6-78.88s-15.88,2-26.41,6.29Z" transform="translate(-1.79)"/><path class="cls-6" d="M197.76,368.08C201.82,375.92,228.3,381,228.3,381s26.55-4.69,30.73-12.47c3.13-10.81,5.75-24.54,5.75-24.54l-72.43-.52S193.94,358.22,197.76,368.08Z" transform="translate(-1.79)"/><path class="cls-6" d="M228.3,381s-26.48-5.07-30.54-12.91c-3.82-9.87-5.4-24.63-5.4-24.63l36.21.26L228.3,381Z" transform="translate(-1.79)"/><rect class="cls-6" x="216.18" y="377.6" width="24.16" height="14.42" transform="translate(-159.97 610.28) rotate(-89.59)"/><rect class="cls-6" x="212.57" y="381.19" width="24.16" height="7.21" transform="translate(-163.54 606.66) rotate(-89.59)"/><path class="cls-10" d="M235.48,385.74c-1.27-3.73-6.51-5.89-10.32-5.93a12.8,12.8,0,0,0-4.06.64L221,396.83l14.41.12.08-11.2Z" transform="translate(-1.79)"/><path class="cls-6" d="M209.51,412c-.11,15.08,8.14,23.72,18.37,23.79s18.6-8.43,18.76-23.52c.14-20.3-8.1-27.39-18.35-27.43S209.65,392.53,209.51,412Z" transform="translate(-1.79)"/><path class="cls-6" d="M212.4,401.55c3.37.35,5.62,4,5,8.11s-3.81,7.15-7.14,6.73-5.59-4-5-8.11S209.05,401.16,212.4,401.55Z" transform="translate(-1.79)"/><path class="cls-6" d="M250.8,408.63c.53,4.12-1.75,7.73-5.11,8s-6.51-2.78-7.06-6.86,1.75-7.73,5.11-8S250.26,404.51,250.8,408.63Z" transform="translate(-1.79)"/><path class="cls-6" d="M209.51,412c-.11,15.08,8.14,23.72,18.37,23.79l.37-51C218,384.75,209.65,392.53,209.51,412Z" transform="translate(-1.79)"/><path class="cls-11" d="M197.76,368.08c2.62,5,14.39,8.9,22.55,11.06a8,8,0,1,1,16,.12c8.19-2,20-5.74,22.7-10.74,3.13-10.81,5.75-24.54,5.75-24.54l-72.43-.52S193.94,358.22,197.76,368.08Z" transform="translate(-1.79)"/><path class="cls-12" d="M207.59,434.48c2.57,4.17,15.3,6.92,28.33,5.59a.42.42,0,0,1,.08-.18c15.84-3.81,15-17.53,10.38-24.93-.08-2.21-.18-4.68-.34-7.67,0,0-2.29,4.34-3.52,12.7a10.87,10.87,0,0,1-.67,1.19c-7.56-7-16.48-8-28.28.23-.24-6.88-2.21-11.18-4.55-14.36-.27,2.06-.53,4-.74,5.68-4.19,7.26-3.05,17.92-.62,21.8Z" transform="translate(-1.79)"/><path class="cls-6" d="M152.87,107.41c-8.42-2.67-30.73,12.46-30.73,12.46S106.69,142,109.23,150.41c5.43,9.87,13.3,21.41,13.3,21.41L174.13,121S162.53,111.71,152.87,107.41Z" transform="translate(-1.79)"/><path class="cls-6" d="M122.11,119.86s22.31-15.14,30.73-12.46c9.67,4.28,21.24,13.59,21.24,13.59L148.28,146.4Z" transform="translate(-1.79)"/><rect class="cls-6" x="112.26" y="105.09" width="14.42" height="24.16" transform="translate(-49.65 117.59) rotate(-44.59)"/><rect class="cls-6" x="118.43" y="102.56" width="7.21" height="24.16" transform="translate(-47.14 118.66) rotate(-44.59)"/><path class="cls-10" d="M113.71,121.6c3.53,1.74,8.76-.43,11.49-3.11a12.8,12.8,0,0,0,2.42-3.32l-11.5-11.66-10.25,10.07,7.86,8Z" transform="translate(-1.79)"/><path class="cls-6" d="M113.54,84.68c-10.63-10.75-22.49-11-29.81-3.83S76.55,100,87.11,110.69c14.25,14.46,25.08,13.62,32.38,6.44S127.19,98.53,113.54,84.68Z" transform="translate(-1.79)"/><path class="cls-6" d="M118.84,94.12c-2.66,2.13-6.82,1.13-9.27-2.2s-2.37-7.74.28-9.84,6.8-1.1,9.27,2.2S121.5,92,118.84,94.12Z" transform="translate(-1.79)"/><path class="cls-6" d="M86.68,116.25c-3.28-2.49-4.23-6.7-2.07-9.29s6.56-2.63,9.85-.14,4.23,6.7,2.07,9.29S90,118.76,86.68,116.25Z" transform="translate(-1.79)"/><path class="cls-6" d="M113.54,84.68c-10.63-10.75-22.49-11-29.81-3.83l35.78,36.3C126.77,109.95,127.19,98.53,113.54,84.68Z" transform="translate(-1.79)"/><path class="cls-13" d="M152.87,107.41c-5.42-1.71-16.45,3.84-23.77,8.12a8,8,0,1,1-11.41,11.24c-4.35,7.23-10.09,18.21-8.46,23.65,5.43,9.87,13.3,21.41,13.3,21.41L174.13,121S162.53,111.71,152.87,107.41Z" transform="translate(-1.79)"/><path class="cls-12" d="M99,67.41C94.18,66.3,83.25,73.34,75,83.5a.42.42,0,0,1,.11.17c-8.51,13.89,1.85,23,10.31,25,1.61,1.49,3.45,3.17,5.67,5.19,0,0-1.44-4.69-6.49-11.48-.13-.43-.25-.87-.37-1.32,10.27-.42,17.32-6,19.83-20.16,5,4.69,9.47,6.34,13.35,6.93-1.3-1.64-2.4-3.2-3.5-4.54-2.15-8.1-10.52-14.83-15-15.88Z" transform="translate(-1.79)"/><path class="cls-14" d="M337.16,348.09c7.07-4.93-.78,5.29-.44,6.11a83,83,0,0,0,5.56,10.64c-.68,1-1.21,5.38-1.88,6.34-3.07-2.86-4.42-11.11-4.53-14-.13-2.23.34-7.38,1.29-9.13Z" transform="translate(-1.79)"/><path class="cls-14" d="M343.87,336.46l-5.38-11.72a11.88,11.88,0,0,0,.43-1.35c2.47,1.56,6.17,1.39,6.94,5.26a2.55,2.55,0,0,0,1.75,1.55c4.62.3,4.5,5.08,7.06,7.28.1,0-.26.6-.39.92-2.61.43-5.22.87-7.82,1.28-1.31-.71-1.68-2.2-2.63-3.23Z" transform="translate(-1.79)"/><path class="cls-4" d="M306.65,353c8.69,2.3,30.69-14.19,30.69-14.19S352,315.49,349,307c-6-9.77-14.56-21.18-14.56-21.18l-50.05,54.36s12.26,8.89,22.3,12.8Z" transform="translate(-1.79)"/><path class="cls-4" d="M337.34,338.74s-22,16.48-30.69,14.19c-10-3.89-22.3-12.8-22.3-12.8l25-27.18,28,25.76Z" transform="translate(-1.79)"/><rect class="cls-4" x="335.88" y="330.12" width="14.72" height="24.63" transform="translate(-142.96 362.94) rotate(-47.36)"/><rect class="cls-4" x="337.07" y="332.81" width="7.36" height="24.63" transform="translate(-145.74 361.98) rotate(-47.36)"/><path class="cls-5" d="M348.88,337.67c-3.68-1.57-8.92.85-11.59,3.75A13.19,13.19,0,0,0,335,344.9l12.3,11.33,10-10.83Z" transform="translate(-1.79)"/><path class="cls-4" d="M347.84,374.2c11.32,10.42,23.48,10.12,30.57,2.42s6.39-19.83-4.93-30.26-26.23-12.65-33.31-5S336.54,363.73,347.84,374.2Z" transform="translate(-1.79)"/><path class="cls-6" d="M342,364.82c2.62-2.26,7.09-1.32,10,2.15s3.12,8.08.52,10.34-7.09,1.32-10-2.15S339.36,367.07,342,364.82Z" transform="translate(-1.79)"/><path class="cls-4" d="M370.33,337.66c3.66,2.65,5,7,3,9.73s-6.69,2.92-10.34.33-5-7-3-9.73S366.67,335.06,370.33,337.66Z" transform="translate(-1.79)"/><path class="cls-4" d="M347.84,374.2c11.32,10.42,23.48,10.12,30.57,2.42L340.17,341.4C333.09,349.05,336.54,363.73,347.84,374.2Z" transform="translate(-1.79)"/><path class="cls-15" d="M345.55,323.26c-4-.14-15.82.85-19.62,5-5,5.41-5.62,21.13-5.62,21.13l2.81-1.48a29.26,29.26,0,0,0,8.25-5c-2-11.83,9.69-10.72,9.69-10.72A32.54,32.54,0,0,0,345.55,323.26Z" transform="translate(-1.79)"/><path class="cls-16" d="M306.65,353c2.94.77,7.41-.59,12-2.73a21.88,21.88,0,0,1,28.48-31c1.78-4.78,2.76-9.34,1.76-12.19-6-9.77-14.56-21.18-14.56-21.18l-50,54.31s12.26,8.89,22.3,12.8Z" transform="translate(-1.79)"/><path class="cls-17" d="M375.34,377c2.66.73,6.64-.42,8.73,1.46-6.16,6.78-15.93,10.59-23.79,6.77-1.06-.51-2.14-1-3.23-1.51-2.64-2-8.1-1.66-9.51-5.39a6.24,6.24,0,0,1,6.2-1.93c2.74.75,5.57,1.23,8.35,1.86A19.9,19.9,0,0,0,375.34,377Z" transform="translate(-1.79)"/><path class="cls-17" d="M375.12,377.25c4.69,1.33,5.56,4.15,8.94,1.22,1.47-1.26,2.92-5.17,3.52-6.94a26.11,26.11,0,0,0,.17-16.37,36.15,36.15,0,0,0-11.12-16.6c-5.57-4.65-12.56-5.8-18.34-9.53-4.32-2.79-8.35-9.62-12.72-11.71-1.13-.48-2.84-.4-3.75-.86a2.5,2.5,0,0,1-1.54.85,8.61,8.61,0,0,0-2.36-3.05c-5.32-3-11.25-6.76-16.88-8.72-4.73-1.65-3.83-1.09-7.65,3.06,7.3,1.08,13.55,8.14,19.62,11.65,6.25,3.67,10.76,9,16.37,13.88,3.1,2.7-1.07,1,4.07,3.2,2.54,1.09,6.53,1.65,9.19,2.14,5.76,1,4.9.27,7.89,5.15,3.29,5.4,4.09,7,2.51,13.35-1.61,6.65-5.32,14.28,2.07,19.24,2.62.73-2.08-1.39,0,0Z" transform="translate(-1.79)"/><path class="cls-6" d="M373,262.26c8.05-4.55,12.34-32.47,12.34-32.47s-6-27.58-14.25-31.68c-11.44-2.85-25.91-5.1-25.91-5.1l2.25,75.82S362.78,266.6,373,262.26Z" transform="translate(-1.79)"/><path class="cls-6" d="M385.3,229.78S381,257.7,373,262.26c-10.18,4.37-25.56,6.63-25.56,6.63L346.24,231l39-1.16Z" transform="translate(-1.79)"/><rect class="cls-6" x="376.61" y="222.11" width="25.3" height="15.12" transform="translate(-8.43 11.66) rotate(-1.7)"/><rect class="cls-6" x="376.72" y="229.67" width="25.3" height="7.56" transform="translate(-8.54 11.66) rotate(-1.7)"/><path class="cls-10" d="M390,222.09c-3.86,1.47-5.93,7-5.81,11.05a13.61,13.61,0,0,0,.82,4.21l17.18-.5-.45-15.12Z" transform="translate(-1.79)"/><path class="cls-6" d="M418.45,248.25c15.79-.47,24.51-9.44,24.19-20.17s-9.52-19.15-25.34-18.69c-21.25.63-28.37,9.54-28,20.3S398.09,248.85,418.45,248.25Z" transform="translate(-1.79)"/><path class="cls-6" d="M407.35,243.76c.27-3.53,4-6.05,8.32-5.56s7.62,3.69,7.36,7.24-4,6.05-8.32,5.54-7.62-3.67-7.35-7.22Z" transform="translate(-1.79)"/><path class="cls-6" d="M413.4,207c4.29-.7,8.16,1.53,8.63,5s-2.64,6.94-6.91,7.67-8.16-1.55-8.64-5.06,2.64-6.92,6.91-7.64Z" transform="translate(-1.79)"/><path class="cls-6" d="M418.45,248.25c15.79-.47,24.51-9.44,24.19-20.17l-53.36,1.57C389.6,240.39,398.09,248.85,418.45,248.25Z" transform="translate(-1.79)"/><path class="cls-18" d="M373,262.26c4.69-2.68,8.12-13.27,10.14-21.64l-12.59-10.36,12-11.09c-2.53-8.19-6.54-18.62-11.41-21-11.44-2.85-25.91-5.1-25.91-5.1l2.25,75.82S362.78,266.6,373,262.26Z" transform="translate(-1.79)"/><path class="cls-19" d="M409.2,212.14s19.34-1.23,17.36,11.27c-4.69,0-2.3,7.58-2.3,7.58s5.29,9.9,16.05,8.31c7.63-15.39-2.09-26.92-6.56-29.49S416.58,206.24,409.2,212.14Z" transform="translate(-1.79)"/><path class="cls-19" d="M435.91,237.52c-5.45-3.65-11.89,7.94-24.74,8.32,6.75,4.31,28.31,8.52,29.16-6.53A32.63,32.63,0,0,0,435.91,237.52Z" transform="translate(-1.79)"/><path class="cls-20" d="M368.35,244.17l7.56-8.64-5.38-5.33,13.29,8.74a5.12,5.12,0,0,1-3.45,4.13c-5.08.5-12,1.08-12,1.08Z" transform="translate(-1.79)"/><polygon class="cls-21" points="344.39 227.98 344.47 230.95 368.75 230.23 371.47 227.18 344.39 227.98"/><path class="cls-20" d="M367.52,216.41l8.06,8.18-5,5.66,12.74-9.51a5.12,5.12,0,0,0-3.69-3.94c-5.1-.17-12.06-.36-12.06-.36Z" transform="translate(-1.79)"/><path class="cls-6" d="M105,302.25c-2.55,8.89,13.95,31.81,13.95,31.81s23.6,15.52,32.36,12.63c10.17-6,22.06-14.52,22.06-14.52l-54.72-52.54S109.22,292,105,302.25Z" transform="translate(-1.79)"/><path class="cls-6" d="M119,334.06S102.47,311.11,105,302.25c4.2-10.26,13.6-22.64,13.6-22.64L146,305.86l-27,28.18Z" transform="translate(-1.79)"/><rect class="cls-6" x="103.56" y="329.36" width="25.3" height="15.12" transform="translate(-209.13 187.48) rotate(-46.18)"/><rect class="cls-6" x="100.83" y="330.52" width="25.3" height="7.56" transform="translate(-208.08 184.7) rotate(-46.18)"/><path class="cls-10" d="M121,342.84c1.73-3.75-.68-9.17-3.6-12a13.61,13.61,0,0,0-3.55-2.43L102,340.83l10.91,10.47Z" transform="translate(-1.79)"/><path class="cls-6" d="M82.36,344.12C71.42,355.51,71.49,368,79.2,375.45s20.24,7,31.18-4.42c14.72-15.33,13.53-26.68,5.79-34.11S96.46,329.42,82.36,344.12Z" transform="translate(-1.79)"/><path class="cls-6" d="M93.42,339.55c2.26,2.7,1.36,7.08-2,9.8s-8,2.71-10.32,0-1.36-7.08,2.06-9.78,8-2.73,10.31,0Z" transform="translate(-1.79)"/><path class="cls-6" d="M114.86,370c-2.56,3.53-6.9,4.62-9.69,2.46s-3-6.81-.44-10.31,6.91-4.61,9.71-2.44S117.42,366.51,114.86,370Z" transform="translate(-1.79)"/><path class="cls-6" d="M82.36,344.12C71.42,355.51,71.49,368,79.2,375.45l37-38.53C108.45,329.51,96.46,329.42,82.36,344.12Z" transform="translate(-1.79)"/><path class="cls-22" d="M105,302.25c-1.48,5.19,3.5,15.16,7.93,22.55l16.25-1.43-.76,16.29c7.56,4.11,17.74,8.68,22.85,7,10.17-6,22.06-14.52,22.06-14.52L118.6,279.61S109.22,292,105,302.25Z" transform="translate(-1.79)"/><path class="cls-19" d="M114.29,363.38s-13,14.47-20.39,4.15c3.35-3.28-3.67-7-3.67-7S79.52,357.14,73,365.82c5.34,16.34,20.4,17.75,25.36,16.49S113.14,372.74,114.29,363.38Z" transform="translate(-1.79)"/><path class="cls-19" d="M77.42,364c6.45-1.2,2.92-14,11.83-23.27-7.83,1.65-26.17,13.76-16.24,25.13a32.63,32.63,0,0,0,4.41-1.82Z" transform="translate(-1.79)"/><path class="cls-20" d="M121,311.92l.66,11.46,7.57,0-15.6,3a5.12,5.12,0,0,1-.45-5.37c3.27-3.91,7.82-9.19,7.82-9.19Z" transform="translate(-1.79)"/><polygon class="cls-23" points="146.35 307.95 144.2 305.88 127.39 323.41 127.58 327.49 146.35 307.95"/><path class="cls-20" d="M141,331.16,129.53,331l-.35-7.57-2.43,15.72a5.12,5.12,0,0,0,5.39.22c3.76-3.45,8.87-8.2,8.87-8.2Z" transform="translate(-1.79)"/><ellipse class="cls-7" cx="370.12" cy="96.96" rx="27.23" ry="27.03" transform="translate(35.18 285.12) rotate(-44.14)"/><path class="cls-6" d="M356.65,154.13c2.83-8.67-12.66-31.85-12.66-31.85s-22.69-16.14-31.44-13.58c-10.2,5.52-22.24,13.55-22.24,13.55l52.09,53.68S352.17,164.07,356.65,154.13Z" transform="translate(-1.79)"/><path class="cls-6" d="M344,122.28s15.44,23.17,12.62,31.84c-4.51,10-14.21,21.82-14.21,21.82l-26-26.81Z" transform="translate(-1.79)"/><rect class="cls-6" x="334.38" y="112.11" width="24.96" height="14.91" transform="translate(12.88 275.3) rotate(-44.14)"/><rect class="cls-6" x="336.97" y="118.49" width="24.96" height="7.47" transform="translate(11.76 277.85) rotate(-44.14)"/><path class="cls-10" d="M342.29,113.55c-1.82,3.66.37,9.05,3.14,11.91a13.49,13.49,0,0,0,3.39,2.54L361,116.21l-10.38-10.69Z" transform="translate(-1.79)"/><path class="cls-6" d="M380.47,113.68c11.17-10.85,11.57-23.18,4.2-30.78s-19.7-7.58-30.88,3.27-14.3,25.81-6.91,33.4S369.29,124.52,380.47,113.68Z" transform="translate(-1.79)"/><path class="cls-6" d="M369.89,118.29c-2.15-2.73-1.13-7,2.26-9.5s7.9-2.3,10.11.43,1.13,7-2.26,9.5S372,121,369.89,118.29Z" transform="translate(-1.79)"/><path class="cls-6" d="M348.81,86.63c2.58-3.33,6.86-4.22,9.55-2s2.73,6.76.13,10.13-6.86,4.22-9.54,2-2.68-6.76-.1-10.09Z" transform="translate(-1.79)"/><path class="cls-6" d="M380.47,113.68c11.17-10.85,11.57-23.18,4.2-30.78l-37.79,36.67C354.24,127.16,369.29,124.52,380.47,113.68Z" transform="translate(-1.79)"/><path class="cls-7" d="M388.84,80.34c-8-8.21-24.35-6.77-33.06,1.63l0,.1,3.29,3.4,8.69-2.68L360,86.45l4.18,2.93,5.6-4.45-5.17,5,2.89,2.41,6.78-3.63-5.13,5,3.65,3.54,4.63-4.48-3.17,5.74,4.4,4.43,4-2.87-2.13,6.94,4.18,4.76,0-.1c8.61-8.36,12.06-23.12,4.1-31.33Z" transform="translate(-1.79)"/><path class="cls-7" d="M362.61,74s5.48-14-5.87-15.35-16.48,24.85-24.93,14.16c-.3,7,6.26,9.77,14.7,2.36s9.12-1,9.12-1" transform="translate(-1.79)"/><path class="cls-7" d="M393.8,109.5s6.4.89-1.26,9.08-5.09,14.85,1.91,14.76c-10.4-8.74,16-13.11,14.9-24.48s-15.17-6.32-15.17-6.32" transform="translate(-1.79)"/><path class="cls-24" d="M381.38,85.16c6.89,7.1,8.51,17,4.29,23.42a13.35,13.35,0,0,0,2.24-1.74c6.36-6.18,5.27-17.63-2.48-25.62s-19.17-9.43-25.51-3.3a13.35,13.35,0,0,0-1.81,2.2C364.68,76.17,374.49,78.05,381.38,85.16Z" transform="translate(-1.79)"/><path class="cls-25" d="M356.65,154.13c.76-2.29.22-5.6-1-9.21-4.45-3.15-11.11-9.1-18.14-16.35s-12.77-14.08-15.8-18.62c-3.58-1.29-6.85-1.93-9.17-1.24-10.2,5.52-22.24,13.55-22.24,13.55l52.09,53.68S352.17,164.07,356.65,154.13Z" transform="translate(-1.79)"/><path class="cls-6" d="M266.83,86.67c-4.58-8.37-33.31-13.22-33.31-13.22S205,79.16,200.62,87.65c-3.1,11.73-5.64,26.68-5.64,26.68l78.3-1.18s-2.1-15.92-6.44-26.5Z" transform="translate(-1.79)"/><path class="cls-6" d="M233.52,73.43s28.72,4.87,33.31,13.22c4.34,10.56,6.44,26.5,6.44,26.5l-39.16.59-.6-40.3Z" transform="translate(-1.79)"/><rect class="cls-6" x="225.66" y="56.3" width="15.6" height="26.12" transform="translate(-2.8 3.5) rotate(-0.86)"/><rect class="cls-6" x="233.45" y="56.24" width="7.79" height="26.12" transform="translate(-2.79 3.56) rotate(-0.86)"/><path class="cls-10" d="M225.65,68.5c1.46,4,7.13,6.21,11.31,6.16a13.6,13.6,0,0,0,4.36-.79L241,56.16l-15.6.24.18,12.11Z" transform="translate(-1.79)"/><path class="cls-6" d="M253.06,39.51c-.25-16.31-9.36-25.45-20.44-25.28S212.72,23.81,213,40.11c.35,21.9,9.42,29.38,20.49,29.21S253.38,60.53,253.06,39.51Z" transform="translate(-1.79)"/><path class="cls-6" d="M250.19,50.87c-3.63-.33-6.14-4.2-5.61-8.66s3.93-7.81,7.56-7.5,6.14,4.2,5.61,8.66S253.83,51.2,250.19,50.87Z" transform="translate(-1.79)"/><path class="cls-6" d="M209.47,43.15c-.68-4.44,1.72-8.39,5.34-8.82s7.13,2.82,7.78,7.24-1.72,8.39-5.34,8.82S210.11,47.57,209.47,43.15Z" transform="translate(-1.79)"/><path class="cls-6" d="M253.06,39.51c-.25-16.31-9.36-25.45-20.44-25.28l.79,55.08c11.08-.17,19.92-8.79,19.61-29.81Z" transform="translate(-1.79)"/><path class="cls-26" d="M266.83,86.67c-2.67-4.89-13.59-8.58-22.19-10.8l-10.54,37.91L222.48,76.18c-8.53,2.48-19.32,6.51-21.86,11.47-3.1,11.73-5.64,26.68-5.64,26.68l78.3-1.18s-2.1-15.92-6.44-26.5Z" transform="translate(-1.79)"/><polygon class="cls-27" points="220.32 76.21 232.33 113.74 242.88 75.87 231.96 88.7 220.32 76.21"/><path class="cls-28" d="M232.5,112,217.44,95.76a.53.53,0,0,1,.19-.86L222,93.16a.54.54,0,0,0,.22-.84l-9.57-12a.54.54,0,0,1,.08-.76l.14-.08c.9-.35,2.51-1,3.36-1.32a43.15,43.15,0,0,1,5.48-1.8.53.53,0,0,1,.63.35l11,34.74a.53.53,0,0,1-.89.52Z" transform="translate(-1.79)"/><path class="cls-29" d="M219.58,91.48,228,83.38a.06.06,0,0,1,.06,0l5.46,5s.12,0,0-.07l-7.78-13.06-.06,0L221,76.52l0,.06c-.25,4.88-1.34,13.57-1.49,14.8a.06.06,0,0,0,.06.06l0,0Z" transform="translate(-1.79)"/><path class="cls-19" d="M255,35.82s-3.62-2.63-5,5.31c.38-7.45-.13-17.72-6.21-19.49-3.27,6.1-16.48,10.17-25.24,8.15-4.34.32-.72,1.87-3.42,14,.05-5.49,0-8.85-3.48-7.72-1.11-11.52,5-26.23,22-26.48S256.48,20.78,255,35.85Z" transform="translate(-1.79)"/><path class="cls-28" d="M235.5,111.86l14.56-16.7a.53.53,0,0,0-.22-.86l-4.41-1.61a.54.54,0,0,1-.24-.83l9.2-12.28a.54.54,0,0,0-.1-.76l-.14-.08c-.94-.34-2.54-.93-3.4-1.23a43.15,43.15,0,0,0-5.55-1.59.53.53,0,0,0-.64.39h0l-10,35.05a.52.52,0,0,0,.88.49Z" transform="translate(-1.79)"/><path class="cls-29" d="M247.83,91l-8.63-7.79a.06.06,0,0,0-.06,0l-5.28,5.17s-.1,0-.08,0L241.16,75h0l4.75,1.13.06,0c.39,4.88,1.74,13.51,1.93,14.74,0,0,0,.1-.09.06Z" transform="translate(-1.79)"/><polygon class="cls-30" points="278.29 108.81 179.01 108.81 108.81 179.01 108.81 278.29 179.01 348.49 278.29 348.49 348.49 278.29 348.49 179.01 278.29 108.81"/><polygon class="cls-30" points="278.29 108.81 179.01 108.81 108.81 179.01 108.81 278.29 179.01 348.49 278.29 348.49 348.49 278.29 348.49 179.01 278.29 108.81"/><polygon class="cls-31" points="270.46 127.72 186.84 127.72 127.72 186.84 127.72 270.46 186.84 329.58 270.46 329.58 329.58 270.46 329.58 186.84 270.46 127.72"/></svg>