<?xml version="1.0" encoding="UTF-8"?>
<svg data-name="Layer 1" viewBox="0 0 1920 1920" xmlns="http://www.w3.org/2000/svg">
 <defs>
  <style>.cls-1{fill:#c1272d;}.cls-2{fill:#f1c9a5;}.cls-3{fill:#ddac8c;opacity:0.1;isolation:isolate;}.cls-4{fill:#388ebf;}.cls-5{fill:#2e150b;}.cls-6{fill:#3d1c0f;}.cls-7{fill:#fae43e;}.cls-8{fill:#ff00e1;}.cls-9{fill:#976c4b;}.cls-10{fill:#262421;}.cls-11{fill:#fff;}.cls-12{fill:#ca9063;}.cls-13{fill:#654521;}.cls-14{fill:#f4d3b8;}.cls-15{fill:#f2caad;}.cls-16{fill:#ff9800;}.cls-17{fill:#4fc14c;}.cls-18{fill:#85562b;}.cls-19{fill:#2be4ed;}.cls-20{fill:#77363e;}.cls-21{fill:#172d39;}.cls-22{fill:#b2a1a1;}.cls-23{fill:#1c4760;}.cls-24{fill:#d1c6c6;}.cls-25{fill:#e06cd2;}.cls-26{fill:#e8c44f;}.cls-27{fill:#75ea7e;}.cls-28{fill:#b3b10a;}.cls-29{fill:#8bc34a;}.cls-30{fill:#ee2a7b;}.cls-31{fill:#733578;}</style>
 </defs>
 <rect class="cls-1" width="1920" height="1920"/>
 <path class="cls-2" d="M938.08,322.43C917.23,300.85,826,310,826,310s-81.94,41.09-88,70.5c.29,38.26,5.1,85.57,5.1,85.57l236.49-68.7S960.1,350.86,938.08,322.43Z"/>
 <rect class="cls-2" transform="translate(-50.38 241.24) rotate(-16.2)" x="797.9" y="256.56" width="49.03" height="82.13"/>
 <path class="cls-3" d="M798,301.59c7.76,10.92,26.92,12.88,39.39,9.26a43.51,43.51,0,0,0,12.6-6L834.5,251.36,787.42,265,798,301.59Z"/>
 <path class="cls-2" d="m857.14 190.79c-14.31-49.25-49.56-69.36-83-59.65s-52.38 45.56-38.07 94.86c19.25 66.28 53 81.29 86.44 71.59s53.1-43.23 34.63-106.8z"/>
 <path class="cls-2" d="m857.84 227.64c-11.3 2-22.22-7.66-24.15-21.57s5.45-27 16.75-29 22.12 7.69 24.15 21.57-5.44 27.01-16.75 29z"/>
 <path class="cls-2" d="m725.87 241.86c-5.75-12.92-1.81-26.88 8.83-31.15s23.92 2.58 29.68 15.49 1.81 26.88-8.83 31.15-23.93-2.58-29.68-15.49z"/>
 <path class="cls-2" d="m857.14 190.79c-14.31-49.25-49.56-69.36-83-59.65l48.34 166.41c33.44-9.71 53.13-43.19 34.66-106.76z"/>
 <path class="cls-4" d="m938.08 322.43c-13.44-13.86-55.54-15-84.21-14.12a27.31 27.31 0 0 1 -52.29 15.19c-24.7 14.59-59.62 38.14-63.54 57 0.29 38.26 5.1 85.57 5.1 85.57l236.49-68.7s-19.53-46.51-41.55-74.94z"/>
 <path class="cls-5" d="M841.55,115.67C829,104.6,785,108,743.8,125a1.43,1.43,0,0,1,.08.68c-47.92,27.8-31.73,71.8-9.57,91.36,2.41,7.07,5.2,15.08,8.58,24.68,0,0,3.25-16.35-.9-44.79.27-1.49.65-3,1-4.54,31.4,15.35,61.49,10,91.91-28.23,7.5,22.17,18.07,34.28,28.77,42.34-1.12-7.09-2.12-13.38-3.11-19.21,6.66-27.7-7.47-61.35-19-71.64Z"/>
 <ellipse class="cls-6" transform="translate(-417.01 578.81) rotate(-64.73)" cx="248.15" cy="618.41" rx="93.24" ry="93.92"/>
 <path class="cls-2" d="m449.11 592.59c-31.43 1.41-87.51 79.41-87.51 79.41s-24.6 92.83-5.68 118c30.22 26.24 70.74 55.38 70.74 55.38l110.16-233.38c0.06-0.11-50.18-17-87.71-19.41z"/>
 <path class="cls-2" d="M361.6,672s56.08-78,87.51-79.38C486.76,595,536.82,612,536.82,612L481.75,728.69,361.6,672Z"/>
 <rect class="cls-2" transform="translate(-402.15 697.67) rotate(-64.73)" x="323.65" y="623.06" width="51.42" height="86.11"/>
 <rect class="cls-2" transform="translate(-388.53 695.98) rotate(-64.73)" x="341.94" y="611.47" width="25.78" height="86.11"/>
 <path class="cls-3" d="M335.53,688c14,1.46,28.8-12.18,34.65-24.58a46.55,46.55,0,0,0,4-14L321.4,624.48,299.45,671Z"/>
 <path class="cls-2" d="M289.56,564.73c-48.6-22.94-88.9-9.22-104.47,23.77s-.56,72.82,48,95.76S333.81,699,349.38,666,338.17,587.67,289.56,564.73Z"/>
 <path class="cls-2" d="m317.32 593.3c-6.21 10.26-21.19 12.13-33.39 4.25s-17-22.74-10.87-33.18c6.21-10.26 21.19-12.13 33.39-4.25 12.26 8.06 17.08 22.88 10.87 33.18z"/>
 <path class="cls-2" d="m240.66 699.79c-13.9-4.29-22-17-18-28.36s18.51-17 32.53-12.69 22 17 17.94 28.48c-4.1 11.26-18.57 16.86-32.47 12.57z"/>
 <path class="cls-2" d="m289.56 564.73c-48.6-22.94-88.9-9.22-104.47 23.77l164.29 77.5c15.62-32.93-11.21-78.33-59.82-101.27z"/>
 <path class="cls-6" d="M171.8,578.12c-16.86,35.71,7.67,86.86,45.36,104.65l.37.18,7-14.75-19.21-24.84L226.49,664l4.4-17-21.14-12.71,22.44,10.59,4.26-12.24-20.08-17.52,22.5,10.47,7-16.1L225.77,600l22.4,3.3,8.94-19.58L243,574.3l25-1.55,10.3-19.25-.37-.18c-37.44-17.68-89.3-10.92-106.16,24.79Z"/>
 <path class="cls-6" d="m240.88 538.41s-33.4-39.42 2-56.66 81.52 62.74 97.14 18.41c8.79 22.49-9.55 38.86-45.33 24.09s-30.88 7-30.88 7"/>
 <path class="cls-6" d="M183,670.61s-51.66-.73-42.45,37.58,100.25,23.07,76,63.3c23-7.51,23.93-32.07-10.21-50.31s-14.25-28.26-14.25-28.26"/>
 <path class="cls-7" d="m196.38 596.4c14.57-30.87 44.55-48.11 70.44-42.26a46.05 46.05 0 0 0 -8.34 -5.15c-27.65-13.05-63.32 4.37-79.71 39.09s-7.18 73.33 20.47 86.39a46.05 46.05 0 0 0 9.27 3.16c-20.91-16.39-26.71-50.36-12.13-81.23z"/>
 <path class="cls-8" d="m449.11 592.59c-8.33 0.31-18.32 6.06-28.57 14.26-4.8 18.2-15.93 46.91-30.8 78.41s-30 58.33-41 73.61c0.17 13.12 2.09 24.49 7.14 31.12 30.22 26.24 70.74 55.38 70.74 55.38l110.2-233.37c0.06-0.11-50.18-17-87.71-19.41z"/>
 <path class="cls-2" d="m688 402.36c-28.27-13.58-114.23 28.55-114.23 28.55s-65.26 70.05-60.54 101c14.22 37.36 36 82 36 82l206.57-153.1c0.12-0.16-36.02-38.55-67.8-58.45z"/>
 <path class="cls-2" d="m573.75 430.91s86-42.05 114.23-28.55c31.88 19.85 67.94 58.29 67.94 58.29l-103.29 76.55-78.81-106.34z"/>
 <rect class="cls-2" transform="translate(-138.92 419.45) rotate(-36.54)" x="540.11" y="377.22" width="51.26" height="85.76"/>
 <rect class="cls-2" transform="translate(-132.35 424.08) rotate(-36.54)" x="563.22" y="369.59" width="25.63" height="85.76"/>
 <path class="cls-3" d="M543.24,432.78c11.53,7.88,31,2.92,42-5.24a46.15,46.15,0,0,0,10.14-10.46l-34.65-46.75-41.18,30.52Z"/>
 <path class="cls-2" d="M560.91,302.93C529,259.92,487.18,253,458,274.69s-34.8,63.69-2.92,106.71c42.91,57.89,81.48,60.36,110.7,38.71S602,358.38,560.91,302.93Z"/>
 <path class="cls-2" d="M569.9,342.48c-10.34,6.08-24.45.54-31.6-12.38s-4.49-28.36,5.91-34.49,24.45-.54,31.53,12.43,4.56,28.31-5.85,34.44Z"/>
 <path class="cls-2" d="m456 396.83c-10.34-10.55-11.54-25.66-2.72-33.78s24.43-6.1 34.72 4.38 11.48 25.71 2.65 33.83-24.36 6.05-34.65-4.43z"/>
 <path class="cls-2" d="M560.91,302.93C529,259.92,487.18,253,458,274.69L565.74,420.1C594.91,398.38,602,358.38,560.91,302.93Z"/>
 <path class="cls-9" d="m688 402.36c-16.48-7.89-52.64 3.12-79.85 13.7l-4.44 55.09-54-11.78c-18 23-39.1 54.35-36.34 72.41 14.22 37.36 36 82 36 82l206.57-153.1s-36.16-38.42-67.94-58.32z"/>
 <path class="cls-10" d="m478.41 398.71s-41-51.51-2.36-70.37c9.06 13.08 25.54-8.3 25.54-8.3s17.31-33.89-8-60.74c-57.63 8.6-70.84 58-69.5 75.41s23.58 54.78 54.32 64z"/>
 <path class="cls-10" d="M497.14,275.13c.38,22.25,45.13,17.71,71.07,52.71-1-27.12-31.12-95.26-74.65-68.48a110.61,110.61,0,0,0,3.58,15.77Z"/>
 <path class="cls-11" d="m646.58 450.2l-38.66-4.3-4.42 25.28-1.42-53.9a17.37 17.37 0 0 1 18.21 1.56c11.23 13.16 26.3 31.36 26.3 31.36z"/>
 <polygon class="cls-12" points="644.48 543.24 652.56 537.25 603.56 471.13 589.78 469.45"/>
 <path class="cls-11" d="m571 506.25 7.09-38.25l25.47 3.12-51.16-17a17.37 17.37 0 0 0 -3.8 17.88c9.4 14.49 22.4 34.25 22.4 34.25z"/>
 <path class="cls-13" d="m1580.3 718.49c-9.59-26.82 16.19 7.11 19.08 6.73 13.19-1.66 26-5 38.78-8.51 2.5 3 16.09 8.52 18.59 11.51-11.79 7.31-39.28 4.43-48.48 2.33-7.25-1.71-23.24-7.51-28-12.06z"/>
 <path class="cls-13" d="M1543,695.89c-14,2.35-28.06,4.64-42.06,7-1.34-.86-2.62-1.75-3.93-2.55,7.1-6.51,9.78-18.49,22.82-17.54,2.06.14,5.74-2.26,6.47-4.24,5-14.48,20.08-9.92,29.38-16.21.32-.2,1.75,1.23,2.64,1.92-.89,8.7-1.78,17.41-2.71,26-3.4,3.57-8.49,3.45-12.6,5.58Z"/>
 <path class="cls-14" d="M1569.28,820c14.9-25.73-18.62-110.21-18.62-110.21s-61.47-66.84-91.16-64.67c-36.38,10.76-80.2,28.06-80.2,28.06L1509.15,880s39-31.38,60.13-60Z"/>
 <path class="cls-14" d="m1550.7 709.79s33.48 84.41 18.62 110.21c-21.12 28.65-60.13 60-60.13 60l-64.92-103.42 106.44-66.82z"/>
 <rect class="cls-14" transform="translate(-134.83 937.81) rotate(-32.12)" x="1520.8" y="678.76" width="81.41" height="48.66"/>
 <path class="cls-15" d="m1551.1 680.87c-8.32 10.41-5 29.2 1.86 40.18a43.58 43.58 0 0 0 9.12 10.39l46.8-29.38-25.9-41.22-31.91 20z"/>
 <path class="cls-14" d="m1672.7 707c43.08-27 52.67-66.08 34.29-95.36s-57.71-37.61-100.78-10.57-63.13 72.65-44.75 101.93 68.16 31.06 111.24 4z"/>
 <path class="cls-2" d="m1637.8 717.74c-5-10.31 2-23.69 15.46-29.84s28.49-2.94 33.41 7.31-2 23.63-15.46 29.84-28.5 2.95-33.41-7.31z"/>
 <path class="cls-14" d="m1589.6 595c11.51-9.46 26.56-9.87 33.59-1s3.51 23.84-7.94 33.26-26.56 9.87-33.59 1-3.5-23.79 7.94-33.26z"/>
 <path class="cls-14" d="m1672.7 707c43.08-27 52.67-66.08 34.29-95.36l-145.54 91.36c18.37 29.3 68.17 31.06 111.25 4z"/>
 <path class="cls-16" d="m1508.4 670.17c-4 12.78-11 51.2-1.16 66.87 12.94 20.61 62.52 36.29 62.52 36.29l-2.29-10.2a96.72 96.72 0 0 0 -8.87 -30.67c-39.5-3.75-25.77-40.2-25.77-40.2-4.86-6.56-15.65-16.51-24.43-22.09z"/>
 <path class="cls-17" d="M1569.28,820c5-8.7,4.53-24.15,1.66-40.69a72.32,72.32,0,0,1-74-117.87c-13.69-9.84-27.36-16.92-37.37-16.19-36.38,10.76-80.2,28.06-80.2,28.06L1509.15,880s39-31.38,60.13-60Z"/>
 <path class="cls-13" d="M1705.69,621.87c4.65-7.84,4.34-21.61,12.23-26.56,16.34,25.45,19.93,60,.93,81.75-2.54,2.94-5,5.94-7.61,9-8.78,6.68-12.34,24.39-25.44,25.63-4.35-5.5-4.42-15.31-.76-21.45,4.76-8.09,8.76-16.69,13.2-25a65.77,65.77,0,0,0,7.43-43.33Z"/>
 <path class="cls-18" d="M1706.26,622.77c8.33-13.82,18.07-14.12,11.67-27.46-2.74-5.8-13.94-13.8-19.08-17.28a86.31,86.31,0,0,0-52-14.76c-21.76.69-44.74,8.57-62.6,21-19.68,13.7-29.39,35-46.34,50.21-12.66,11.35-37.94,18.27-48.4,30.39-2.63,3.08-3.75,8.71-6,11.21a8.26,8.26,0,0,1,1.4,5.65,28.46,28.46,0,0,0-11.79,4.89c-14.27,14.33-31.25,29.91-42.47,46.26-9.4,13.69-6.81,11.25,3.11,27,9.78-22.34,37.73-36.13,54.31-52.35,17.14-16.75,38.16-26.46,58.49-40.12,11.29-7.53,2.36,4.33,13.78-10.26,5.6-7.19,10.92-19.39,14.8-27.46,8.28-17.46,5.11-15.38,23.26-20.69,20.08-5.8,25.89-6.94,44.76,3.58,19.83,10.91,40.9,29.37,63.17,10.1,4.63-7.74-6.25,5.44,0,0Z"/>
 <path class="cls-14" d="M1232.72,384.61c-7.47-28.81-91.3-65.86-91.3-65.86s-91.53-5.07-111.27,17.12c-18.61,32.94-37.84,75.93-37.84,75.93l239.57,57.64s5.88-49.64.84-84.83Z"/>
 <path class="cls-14" d="M1141.43,318.68s83.82,37.12,91.3,65.86c5.09,35.26-.84,84.83-.84,84.83l-119.78-28.82,29.32-121.87Z"/>
 <rect class="cls-14" transform="translate(578.89 1347.3) rotate(-76.47)" x="1103.8" y="281.74" width="81.2" height="49.11"/>
 <rect class="cls-14" transform="translate(585.25 1361.1) rotate(-76.47)" x="1115.7" y="296.91" width="81.2" height="24.52"/>
 <path class="cls-15" d="m1121.2 297.69c1.37 13.21 17 24.35 29.72 27.41a45.75 45.75 0 0 0 13.93 1.08l12.9-53.61-47.75-11.49-8.81 36.61z"/>
 <path class="cls-14" d="m1227.2 231.83c11.86-49.31-8.89-83.93-42.76-92.08s-68.1 13.25-80 62.55 6 95.91 39.87 104.06 71.02-25.22 82.89-74.53z"/>
 <path class="cls-14" d="m1227.2 231.83c11.86-49.31-8.89-83.93-42.76-92.08l-40.08 166.62c33.88 8.08 70.97-25.23 82.84-74.54z"/>
 <path class="cls-6" d="m1109.6 275.19s-10.38-25 2.24-51.69 28.51-28 31.54-40.58c17.5 34.94 36.2 3.89 65.43 29 10.16 9.61 8.07 56.38-6.49 70.24 56.48-15.08 67-127.61 9-153.55-118.83-53.4-203.19 115.94-101.75 146.54z"/>
 <path class="cls-19" d="M1177.13,170.3c31.66,7.62,52.53,36.55,50.7,67.67a65.23,65.23,0,0,0,3.74-11c8.45-35.11-13.5-70.5-49.06-79.05s-71.2,13-79.65,48.09a65.23,65.23,0,0,0-1.65,11.45,65.88,65.88,0,0,1,75.93-37.2Z"/>
 <path class="cls-19" d="M1083,319.72c6.23,11.9,28.28,44.29,46.45,48.66,23.84,5.74,70.59-17.61,70.59-17.61l-8.83-5.71c-10.78-8.45-21.54-13.59-28-15.77-31,24.78-46.94-10.81-47-10.83-8.18-1.21-23-.84-33.17,1.25Z"/>
 <path class="cls-20" d="M1232.72,384.61c-2.56-9.71-13.83-20.42-27.58-30.27a73.3,73.3,0,0,1-136.65-32.88c-16.8,2.51-31.71,6.91-38.33,14.41-18.61,32.94-37.84,75.93-37.84,75.93l239.57,57.64s5.88-49.64.84-84.83Z"/>
 <path class="cls-2" d="m1478.2 555.17c5.75-29.55-54.3-99.22-54.3-99.22s-80.9-43.64-108.57-31.72c-31.24 22.3-67.44 53.45-67.44 53.45l192.6 154.84s27-42.9 37.71-77.35z"/>
 <path class="cls-2" d="m1423.9 456s60 69.68 54.3 99.22c-10.72 34.4-37.71 77.35-37.71 77.35l-96.3-77.42 79.71-99.15z"/>
 <rect class="cls-2" transform="translate(187.23 1282.6) rotate(-51.2)" x="1390.8" y="421.3" width="82.42" height="49.25"/>
 <rect class="cls-2" transform="matrix(.63 -.78 .78 .63 184.81 1292.9)" x="1400.4" y="441.31" width="82.42" height="24.59"/>
 <path class="cls-3" d="m1414.7 428.11c-4.51 12.69 4.88 29.55 15.07 37.74a42.93 42.93 0 0 0 12.18 6.87l35-43.57-38.38-30.86-23.94 29.78z"/>
 <path class="cls-2" d="m1539.7 412.91c32.25-40.11 28.52-80.66 1.27-102.57s-67.66-16.84-99.91 23.27c-43.37 53.95-36.3 90.34-9 112.25s66.12 18.75 107.68-33z"/>
 <path class="cls-2" d="m1509.9 434.71c-8.18-8.11-6.47-22.59 3.82-32.33s25.29-11.07 33.52-2.92 6.47 22.59-3.82 32.33-25.39 11.03-33.52 2.92z"/>
 <path class="cls-2" d="m1426.5 334c7.3-12.14 21.07-16.92 30.75-10.68s11.65 21.22 4.35 33.36-21.07 16.92-30.75 10.68-11.65-21.22-4.35-33.36z"/>
 <path class="cls-2" d="M1539.71,412.91c32.25-40.11,28.52-80.66,1.27-102.57L1432,445.86c27.25,21.91,66.12,18.75,107.68-33Z"/>
 <path class="cls-21" d="m1478.2 555.17c3.33-17.26-15.73-48.21-32.16-71l-101.82 70.84 47.31-114.66c-25.74-11.15-60.07-23.12-76.2-16.16-31.24 22.3-67.44 53.45-67.44 53.45l192.6 154.84s27-42.9 37.71-77.35z"/>
 <polygon class="cls-22" points="1390.6 439.73 1344.2 555.11 1446.1 484.34 1393.7 493.49"/>
 <path class="cls-23" d="M1343.8,547.56,1340,477.75a1.67,1.67,0,0,1,2.21-1.69l14.11,4.57a1.69,1.69,0,0,0,2.21-1.61l.92-48.44a1.69,1.69,0,0,1,2.21-1.61c2.92,1,8.13,2.61,10.84,3.56a136.19,136.19,0,0,1,16.91,6.82,1.66,1.66,0,0,1,.83,2.13L1347,548.06a1.66,1.66,0,0,1-3.21-.5Z"/>
 <path class="cls-24" d="M1353.64,471.65l36.62-2.66a.18.18,0,0,1,.19.15l3.11,23.13c0,.17.32.18.3,0l7.39-47.39c0-.08,0-.17-.1-.16l-14-6.41s-.13,0-.21.07c-10.45,11.38-30.55,30.24-33.41,32.94a.2.2,0,0,0,.12.33Z"/>
 <path class="cls-10" d="m1551.8 407.79s-3.45-13.7-22.91 2.75c15.95-17.35 35.35-43.31 24.17-59.84-20.23 8.21-60.52-8.48-77.73-31-11.15-8-5.59 3.12-36.51 27.14 11.19-13.25 17.84-21.52 7.1-25.77 20.52-30.22 64.94-53.69 106.83-20 42.06 33.66 33 73.2-0.94 106.76z"/>
 <path class="cls-23" d="M1351.34,553.31l69-11.25a1.67,1.67,0,0,0,1.18-2.52l-7.49-12.8a1.69,1.69,0,0,1,1.09-2.51l47.11-11.31a1.69,1.69,0,0,0,1.09-2.51c-1.57-2.65-4.3-7.38-5.8-9.82a136.19,136.19,0,0,0-10.3-15.05,1.66,1.66,0,0,0-2.26-.35l-94.81,65.08a1.66,1.66,0,0,0,1.18,3Z"/>
 <path class="cls-24" d="M1423.35,527.39l-5.27-36.33a.18.18,0,0,0-.19-.15l-23.26,1.93c-.17,0-.24-.27-.07-.29l44.7-17.4c.08,0,.17,0,.18.07l9.27,12.3s.06.12,0,.22c-8.86,12.65-23,36.33-25,39.71-.11.14-.33.12-.35,0Z"/>
 <path class="cls-2" d="m1002.5 1597.6c20.86 21.59 112.06 12.38 112.06 12.38s81.94-41.09 88-70.5c-0.29-38.26-5.1-85.57-5.1-85.57l-236.46 68.7s19.48 46.56 41.5 74.99z"/>
 <rect class="cls-2" transform="translate(-408.2 376.34) rotate(-16.2)" x="1093.6" y="1581.3" width="49.03" height="82.13"/>
 <path class="cls-3" d="m1142.5 1618.4c-7.76-10.92-26.92-12.88-39.39-9.26a43.51 43.51 0 0 0 -12.6 6l15.54 53.48 47.08-13.68-10.62-36.56z"/>
 <path class="cls-2" d="m1083.4 1729.2c14.31 49.25 49.56 69.36 83 59.65s52.4-45.57 38.09-94.82c-19.25-66.28-53-81.29-86.44-71.59s-53.09 43.19-34.65 106.76z"/>
 <path class="cls-2" d="m1082.7 1692.4c11.3-2 22.22 7.66 24.15 21.57s-5.45 27-16.75 29-22.12-7.69-24.15-21.57 5.44-27.01 16.75-29z"/>
 <path class="cls-2" d="m1214.7 1678.1c5.75 12.92 1.81 26.88-8.83 31.15s-23.92-2.58-29.68-15.49-1.81-26.88 8.83-31.15 23.97 2.58 29.68 15.49z"/>
 <path class="cls-2" d="m1083.4 1729.2c14.31 49.25 49.56 69.36 83 59.65l-48.34-166.41c-33.44 9.71-53.1 43.19-34.66 106.76z"/>
 <path class="cls-25" d="m1002.5 1597.6c13.44 13.86 55.54 15 84.21 14.12a27.31 27.31 0 0 1 52.29 -15.19c24.7-14.59 59.62-38.14 63.54-57-0.29-38.26-5.1-85.57-5.1-85.57l-236.44 68.65s19.48 46.56 41.5 74.99z"/>
 <path class="cls-5" d="M1099,1804.33c12.51,11.07,56.58,7.68,97.75-9.34a1.43,1.43,0,0,1-.08-.68c47.92-27.8,31.73-71.8,9.57-91.36-2.41-7.07-5.2-15.08-8.58-24.68,0,0-3.25,16.35.9,44.79-.27,1.49-.65,3-1,4.54-31.4-15.35-61.49-10-91.91,28.23-7.5-22.17-18.07-34.28-28.77-42.34,1.12,7.09,2.12,13.38,3.11,19.21-6.66,27.7,7.47,61.35,19,71.64Z"/>
 <path class="cls-2" d="m1587.5 1058.7c25.87-15.22 38.29-106 38.29-106s-20.75-89.28-47.92-102c-37.27-8.68-84.38-15.1-84.38-15.1l11.38 246s49.83-8.15 82.63-22.9z"/>
 <rect class="cls-2" transform="matrix(1 -.05 .05 1 -42.24 76.73)" x="1597.7" y="927.57" width="82.13" height="49.03"/>
 <path class="cls-3" d="m1640.6 927.46c-12.44 5-18.83 23.15-18.23 36.13a43.51 43.51 0 0 0 2.89 13.66l55.63-2.57-2.27-49-38 1.76z"/>
 <path class="cls-2" d="m1734.4 1010.9c51.23-2.37 79-31.93 77.43-66.68s-32-61.62-83.26-59.25c-68.95 3.19-91.45 32.5-89.85 67.26s29.56 61.73 95.68 58.67z"/>
 <path class="cls-2" d="m1698.5 1002.9c0.71-11.45 12.65-19.81 26.63-18.42s25 11.62 24.25 23.08-12.66 19.7-26.63 18.42-24.96-11.63-24.25-23.08z"/>
 <path class="cls-2" d="m1715.6 871.29c13.9-2.57 26.56 4.54 28.21 15.88s-8.11 22.65-22 25.22-26.56-4.54-28.21-15.88 8.09-22.65 22-25.22z"/>
 <path class="cls-2" d="m1734.4 1010.9c51.23-2.37 79-31.93 77.43-66.68l-173.11 8c1.62 34.81 29.56 61.74 95.68 58.68z"/>
 <path class="cls-26" d="m1587.5 1058.7c16.62-9.82 27.63-50.47 33.46-78.56a27.31 27.31 0 0 1 -2.52 -54.39c-8.39-27.43-23.11-66.9-40.57-75.14-37.27-8.68-84.38-15.1-84.38-15.1l11.38 246s49.83-8.06 82.63-22.81z"/>
 <path class="cls-5" d="M1811.13,1013.32c13.69-9.57,20.72-53.2,13.82-97.22a1.43,1.43,0,0,1-.68-.08c-15.8-53.1-62.37-47.67-86.58-30.71-7.43.68-15.87,1.53-26,2.56,0,0,15.14,7,43.76,9.62,1.39.61,2.78,1.34,4.17,2.07-22.28,26.93-24.15,57.43,5.91,96-23.31,2.1-37.56,9.54-47.91,18,7.15.57,13.51,1.07,19.41,1.48,25.37,13,61.4,7.11,74.11-1.73Z"/>
 <path class="cls-2" d="m422.57 1076.9l11.38-246s-47.11 6.42-84.38 15.1c-27.17 12.77-47.92 102-47.92 102s12.42 90.82 38.29 106c32.8 14.83 82.63 22.9 82.63 22.9z"/>
 <rect class="cls-2" transform="translate(-671.01 1192.1) rotate(-87.35)" x="264.21" y="906.35" width="49.03" height="82.13"/>
 <path class="cls-3" d="M286.87,922.79l-38-1.76-2.27,49,55.63,2.57a43.51,43.51,0,0,0,2.89-13.66c.6-13-5.8-31.14-18.23-36.13Z"/>
 <path class="cls-2" d="m288.67 947.52c1.61-34.76-20.9-64.07-89.85-67.26-51.23-2.37-81.65 24.5-83.26 59.25s26.2 64.31 77.43 66.68c66.13 3.07 94.07-23.91 95.68-58.67z"/>
 <path class="cls-2" d="m204.73 1021.3c-14 1.28-25.91-7-26.63-18.42s10.17-21.81 24.25-23.08 25.91 7 26.63 18.42-10.16 21.81-24.25 23.08z"/>
 <path class="cls-2" d="m233.91 891.84c-1.66 11.35-14.31 18.45-28.21 15.88s-23.78-13.88-22-25.22 14.31-18.45 28.21-15.88 23.77 13.77 22 25.22z"/>
 <path class="cls-2" d="m288.67 947.52l-173.11-8c-1.61 34.76 26.2 64.31 77.43 66.68 66.13 3.06 94.07-23.92 95.68-58.68z"/>
 <path class="cls-27" d="m422.57 1076.9l11.38-246s-47.11 6.42-84.38 15.1c-17.46 8.24-32.17 47.7-40.57 75.14a27.31 27.31 0 0 1 -2.52 54.39c5.83 28.09 16.84 68.74 33.46 78.56 32.8 14.74 82.63 22.81 82.63 22.81z"/>
 <path class="cls-5" d="M116.32,1008.65c12.71,8.84,48.74,14.69,74.11,1.73,5.9-.41,12.26-.9,19.41-1.48-10.35-8.51-24.59-16-47.91-18,30.05-38.53,28.19-69,5.91-96,1.39-.73,2.78-1.45,4.17-2.07,28.62-2.63,43.76-9.62,43.76-9.62-10.13-1-18.57-1.88-26-2.56-24.21-17-70.77-22.39-86.58,30.71a1.43,1.43,0,0,1-.68.08c-6.9,44,.13,87.65,13.82,97.22Z"/>
 <ellipse class="cls-6" transform="translate(-179.08 2251.2) rotate(-64.73)" cx="1686.6" cy="1266.9" rx="93.24" ry="93.92"/>
 <path class="cls-2" d="m1485.6 1292.7c31.43-1.38 87.51-79.38 87.51-79.38s24.58-92.86 5.68-118c-30.22-26.24-70.74-55.38-70.74-55.38l-110.16 233.35c-0.06 0.11 50.18 17.01 87.71 19.41z"/>
 <path class="cls-2" d="m1573.1 1213.4s-56.08 78-87.51 79.38c-37.65-2.46-87.72-19.42-87.72-19.42l55.09-116.68 120.15 56.72z"/>
 <rect class="cls-2" transform="translate(-193.95 2132.4) rotate(-64.73)" x="1559.7" y="1176.2" width="51.42" height="86.11"/>
 <rect class="cls-2" transform="translate(-207.57 2134.1) rotate(-64.73)" x="1567" y="1187.8" width="25.78" height="86.11"/>
 <path class="cls-3" d="m1599.2 1197.3c-14-1.46-28.8 12.18-34.65 24.58a46.55 46.55 0 0 0 -4 14l52.82 24.93 21.95-46.5z"/>
 <path class="cls-2" d="m1645.2 1320.6c48.6 22.94 88.9 9.22 104.47-23.77s0.56-72.82-48-95.76-100.68-14.78-116.25 18.2 11.17 78.38 59.78 101.33z"/>
 <path class="cls-2" d="m1617.4 1292c6.21-10.26 21.19-12.13 33.39-4.25s17 22.74 10.87 33.18c-6.21 10.26-21.19 12.13-33.39 4.25-12.29-8.03-17.08-22.89-10.87-33.18z"/>
 <path class="cls-2" d="m1694.1 1185.5c13.9 4.29 22 17 18 28.36s-18.51 17-32.53 12.69-22-17-17.94-28.48c4.1-11.26 18.57-16.86 32.47-12.57z"/>
 <path class="cls-2" d="m1645.2 1320.6c48.6 22.94 88.9 9.22 104.47-23.77l-164.29-77.56c-15.57 32.99 11.21 78.38 59.82 101.33z"/>
 <path class="cls-6" d="M1762.94,1307.2c16.86-35.71-7.67-86.86-45.36-104.65l-.37-.18-7,14.75,19.21,24.84-21.2-20.62-4.4,17,21.14,12.71-22.44-10.59-4.26,12.24,20.08,17.52-22.5-10.47-7,16.1,20.09,9.48-22.4-3.3-8.94,19.58,14.07,9.37-25,1.55-10.3,19.25.37.18c37.44,17.68,89.3,10.92,106.16-24.79Z"/>
 <path class="cls-6" d="m1693.9 1346.9s33.4 39.42-2 56.66-81.52-62.74-97.14-18.41c-8.79-22.49 9.55-38.86 45.33-24.09s30.88-7 30.88-7"/>
 <path class="cls-6" d="m1751.7 1214.7s51.66 0.73 42.45-37.58-100.25-23.07-76-63.3c-23 7.51-23.93 32.07 10.21 50.31s14.25 28.26 14.25 28.26"/>
 <path class="cls-7" d="m1738.4 1288.9c-14.57 30.87-44.55 48.11-70.44 42.26a46.05 46.05 0 0 0 8.34 5.15c27.65 13.05 63.32-4.37 79.71-39.09s7.18-73.33-20.47-86.39a46.05 46.05 0 0 0 -9.27 -3.16c20.91 16.39 26.71 50.36 12.13 81.23z"/>
 <path class="cls-28" d="m1485.6 1292.7c8.33-0.31 18.32-6.06 28.57-14.26 4.8-18.2 15.93-46.91 30.8-78.41s30-58.33 41-73.61c-0.17-13.12-2.09-24.49-7.14-31.12-30.22-26.24-70.74-55.38-70.74-55.38l-110.16 233.35c-0.1 0.13 50.14 17.03 87.67 19.43z"/>
 <path class="cls-2" d="m1252.6 1517.6c28.27 13.58 114.23-28.55 114.23-28.55s65.26-70.05 60.54-101c-14.22-37.36-36-82-36-82l-206.57 153.1c-0.15 0.16 35.99 38.55 67.8 58.45z"/>
 <path class="cls-2" d="m1366.8 1489.1s-86 42.05-114.23 28.55c-31.88-19.85-67.94-58.29-67.94-58.29l103.34-76.55 78.82 106.34z"/>
 <rect class="cls-2" transform="matrix(.8 -.6 .6 .8 -622.8 1113.5)" x="1349.2" y="1457" width="51.26" height="85.76"/>
 <rect class="cls-2" transform="translate(-629.37 1108.9) rotate(-36.54)" x="1351.7" y="1464.6" width="25.63" height="85.76"/>
 <path class="cls-3" d="m1397.3 1487.2c-11.53-7.88-31-2.92-42 5.24a46.15 46.15 0 0 0 -10.14 10.46l34.65 46.75 41.18-30.52z"/>
 <path class="cls-2" d="m1379.7 1617.1c31.88 43 73.72 49.9 102.94 28.24s34.8-63.69 2.92-106.71c-42.91-57.89-81.48-60.36-110.7-38.71s-36.25 61.73 4.84 117.18z"/>
 <path class="cls-2" d="M1370.68,1577.52c10.34-6.08,24.45-.54,31.6,12.38s4.49,28.36-5.91,34.49-24.45.54-31.53-12.43-4.56-28.31,5.85-34.44Z"/>
 <path class="cls-2" d="m1484.6 1523.2c10.34 10.55 11.54 25.66 2.72 33.78s-24.43 6.1-34.72-4.38-11.48-25.71-2.65-33.83 24.36-6.05 34.65 4.43z"/>
 <path class="cls-2" d="m1379.7 1617.1c31.88 43 73.72 49.9 102.94 28.24l-107.77-145.41c-29.17 21.72-36.26 61.72 4.83 117.17z"/>
 <path class="cls-9" d="m1252.6 1517.6c16.48 7.89 52.64-3.12 79.85-13.7l4.44-55.09 54 11.78c18-23 39.1-54.35 36.34-72.41-14.22-37.36-36-82-36-82l-206.57 153.1s36.13 38.42 67.94 58.32z"/>
 <path class="cls-10" d="m1462.2 1521.3s41 51.51 2.36 70.37c-9.06-13.08-25.54 8.3-25.54 8.3s-17.31 33.89 8 60.74c57.63-8.6 70.84-58 69.5-75.41s-23.59-54.78-54.32-64z"/>
 <path class="cls-10" d="M1443.44,1644.87c-.38-22.25-45.13-17.71-71.07-52.71,1,27.12,31.12,95.26,74.65,68.48a110.61,110.61,0,0,0-3.58-15.77Z"/>
 <path class="cls-11" d="M1294,1469.8l38.66,4.3,4.42-25.28,1.42,53.9a17.37,17.37,0,0,1-18.21-1.56c-11.23-13.16-26.3-31.36-26.3-31.36Z"/>
 <polygon class="cls-12" points="1296.1 1376.8 1288 1382.8 1337 1448.9 1350.8 1450.6"/>
 <path class="cls-11" d="m1369.6 1413.8l-7.14 38.24-25.47-3.12 51.16 17a17.37 17.37 0 0 0 3.82 -17.87c-9.39-14.52-22.35-34.28-22.35-34.28z"/>
 <path class="cls-13" d="m360.29 1201.5c9.59 26.82-16.19-7.11-19.08-6.73-13.19 1.66-26 5-38.78 8.51-2.5-3-16.09-8.52-18.59-11.51 11.79-7.31 39.28-4.43 48.48-2.33 7.25 1.71 23.24 7.51 28 12.06z"/>
 <path class="cls-13" d="M397.57,1224.11c14-2.35,28.06-4.64,42.06-7,1.34.86,2.62,1.75,3.93,2.55-7.1,6.51-9.78,18.49-22.82,17.54-2.06-.14-5.74,2.26-6.47,4.24-5,14.48-20.08,9.92-29.38,16.21-.32.2-1.75-1.23-2.64-1.92.89-8.7,1.78-17.41,2.71-26,3.4-3.57,8.49-3.45,12.6-5.58Z"/>
 <path class="cls-14" d="M371.3,1100c-14.9,25.73,18.62,110.21,18.62,110.21s61.47,66.84,91.16,64.67c36.38-10.76,80.2-28.06,80.2-28.06L431.43,1040s-39,31.38-60.13,60Z"/>
 <path class="cls-14" d="m389.92 1210.2s-33.48-84.41-18.62-110.21c21.12-28.65 60.13-60 60.13-60l64.92 103.42-106.44 66.82z"/>
 <rect class="cls-14" transform="translate(-588.98 387.8) rotate(-32.12)" x="338.39" y="1192.6" width="81.41" height="48.66"/>
 <path class="cls-15" d="M389.46,1239.13c8.32-10.41,5-29.2-1.86-40.18a43.58,43.58,0,0,0-9.12-10.39l-46.8,29.38,25.87,41.21,31.91-20Z"/>
 <path class="cls-14" d="m267.89 1213c-43.08 27-52.67 66.08-34.29 95.36s57.71 37.61 100.78 10.57 63.13-72.65 44.75-101.93-68.13-31.06-111.24-4z"/>
 <path class="cls-2" d="m302.78 1202.3c5 10.31-2 23.69-15.46 29.84s-28.49 2.94-33.41-7.31 2-23.63 15.46-29.84 28.49-2.95 33.41 7.31z"/>
 <path class="cls-14" d="m351 1325c-11.51 9.46-26.56 9.87-33.59 1s-3.51-23.84 7.94-33.26 26.56-9.87 33.59-1 3.48 23.79-7.94 33.26z"/>
 <path class="cls-14" d="m267.89 1213c-43.08 27-52.67 66.08-34.29 95.36l145.53-91.36c-18.37-29.3-68.13-31.06-111.24-4z"/>
 <path class="cls-16" d="m432.16 1249.8c4-12.78 11-51.2 1.16-66.87-12.94-20.61-62.52-36.29-62.52-36.29l2.29 10.2a96.72 96.72 0 0 0 8.87 30.67c39.5 3.75 25.77 40.2 25.77 40.2 4.83 6.56 15.64 16.51 24.43 22.09z"/>
 <path class="cls-29" d="M371.3,1100c-5,8.7-4.53,24.15-1.66,40.69a72.32,72.32,0,0,1,74,117.87c13.69,9.84,27.36,16.92,37.37,16.19,36.38-10.76,80.2-28.06,80.2-28.06L431.43,1040s-39,31.38-60.13,60Z"/>
 <path class="cls-13" d="M234.89,1298.13c-4.65,7.84-4.34,21.61-12.23,26.56-16.34-25.45-19.93-60-.93-81.75,2.54-2.94,5-5.94,7.61-9,8.78-6.68,12.34-24.39,25.44-25.63,4.35,5.5,4.42,15.31.76,21.45-4.76,8.09-8.76,16.69-13.2,25a65.77,65.77,0,0,0-7.43,43.33Z"/>
 <path class="cls-18" d="M234.32,1297.23c-8.33,13.82-18.07,14.12-11.67,27.46,2.74,5.8,13.94,13.8,19.08,17.28a86.31,86.31,0,0,0,52,14.76c21.76-.69,44.74-8.57,62.6-21,19.68-13.7,29.39-35,46.34-50.21,12.66-11.35,37.94-18.27,48.4-30.39,2.63-3.08,3.75-8.71,6-11.21a8.26,8.26,0,0,1-1.4-5.65,28.46,28.46,0,0,0,11.79-4.89c14.27-14.33,31.25-29.91,42.47-46.26,9.4-13.69,6.81-11.25-3.11-27-9.78,22.34-37.73,36.13-54.31,52.35-17.14,16.75-38.16,26.46-58.49,40.12-11.29,7.53-2.36-4.33-13.78,10.26-5.6,7.19-10.92,19.39-14.8,27.46-8.28,17.46-5.11,15.38-23.26,20.69-20.08,5.8-25.89,6.94-44.76-3.58-19.83-10.91-40.9-29.37-63.17-10.1-4.63,7.74,6.25-5.44,0,0Z"/>
 <path class="cls-14" d="m707.86 1535.4c7.47 28.81 91.3 65.86 91.3 65.86s91.53 5.07 111.27-17.12c18.61-32.94 37.84-75.93 37.84-75.93l-239.57-57.63s-5.88 49.64-0.84 84.83z"/>
 <path class="cls-14" d="M799.15,1601.32s-83.82-37.12-91.3-65.86c-5.09-35.26.84-84.83.84-84.83l119.78,28.82-29.32,121.87Z"/>
 <rect class="cls-14" transform="translate(-958.97 2010.4) rotate(-76.47)" x="755.6" y="1589.2" width="81.2" height="49.11"/>
 <rect class="cls-14" transform="translate(-965.33 1996.5) rotate(-76.47)" x="743.65" y="1598.6" width="81.2" height="24.52"/>
 <path class="cls-15" d="M819.39,1622.31c-1.37-13.21-17-24.35-29.72-27.41a45.75,45.75,0,0,0-13.93-1.08l-12.9,53.61,47.74,11.49,8.81-36.61Z"/>
 <path class="cls-14" d="m713.34 1688.2c-11.86 49.31 8.89 83.93 42.76 92.08s68.1-13.25 80-62.55-6-95.91-39.87-104.06-71.02 25.22-82.89 74.53z"/>
 <path class="cls-14" d="m713.34 1688.2c-11.86 49.31 8.89 83.93 42.76 92.08l40.09-166.62c-33.89-8.08-70.98 25.23-82.85 74.54z"/>
 <path class="cls-6" d="m831 1644.8s10.38 25-2.24 51.69-28.51 28-31.54 40.58c-17.5-34.94-36.2-3.89-65.43-29-10.16-9.61-8.07-56.38 6.49-70.24-56.48 15.08-67 127.61-9 153.55 118.83 53.4 203.19-115.94 101.75-146.54z"/>
 <path class="cls-30" d="M763.45,1749.7c-31.66-7.62-52.53-36.55-50.7-67.67a65.23,65.23,0,0,0-3.74,11c-8.45,35.11,13.5,70.5,49.06,79.05s71.2-13,79.65-48.09a65.23,65.23,0,0,0,1.65-11.45,65.88,65.88,0,0,1-75.93,37.2Z"/>
 <path class="cls-30" d="m857.55 1600.3c-6.23-11.9-28.28-44.29-46.45-48.66-23.84-5.74-70.59 17.61-70.59 17.61l8.83 5.71c10.78 8.45 21.54 13.59 28 15.77 31-24.78 46.94 10.81 47 10.83 8.18 1.21 23 0.84 33.17-1.25z"/>
 <path class="cls-31" d="m707.86 1535.4c2.56 9.71 13.83 20.42 27.58 30.27a73.3 73.3 0 0 1 136.65 32.88c16.8-2.51 31.71-6.91 38.33-14.41 18.61-32.94 37.84-75.93 37.84-75.93l-239.56-57.63s-5.88 49.64-0.84 84.83z"/>
 <path class="cls-2" d="m462.37 1364.8c-5.75 29.55 54.3 99.22 54.3 99.22s80.9 43.64 108.57 31.72c31.24-22.3 67.44-53.45 67.44-53.45l-192.6-154.84s-27 42.9-37.71 77.35z"/>
 <path class="cls-2" d="m516.68 1464s-60-69.68-54.3-99.22c10.72-34.4 37.71-77.35 37.71-77.35l96.3 77.42-79.71 99.15z"/>
 <rect class="cls-2" transform="matrix(.63 -.78 .78 .63 -958.94 946.85)" x="467.36" y="1449.5" width="82.42" height="49.25"/>
 <rect class="cls-2" transform="translate(-956.52 936.53) rotate(-51.2)" x="457.8" y="1454.1" width="82.42" height="24.59"/>
 <path class="cls-3" d="m525.85 1491.9c4.51-12.69-4.88-29.55-15.07-37.74a42.93 42.93 0 0 0 -12.18 -6.87l-35 43.57 38.4 30.86 23.94-29.78z"/>
 <path class="cls-2" d="m400.87 1507.1c-32.25 40.11-28.52 80.66-1.27 102.57s67.66 16.84 99.91-23.27c43.37-53.95 36.3-90.34 9-112.25s-66.12-18.75-107.68 33z"/>
 <path class="cls-2" d="m430.71 1485.3c8.18 8.11 6.47 22.59-3.82 32.33s-25.29 11.07-33.52 2.92-6.47-22.59 3.82-32.33 25.35-11.03 33.52-2.92z"/>
 <path class="cls-2" d="m514.11 1586c-7.3 12.14-21.07 16.92-30.75 10.68s-11.65-21.22-4.35-33.36 21.07-16.92 30.75-10.68 11.65 21.22 4.35 33.36z"/>
 <path class="cls-2" d="m400.87 1507.1c-32.25 40.11-28.52 80.66-1.27 102.57l109-135.52c-27.25-21.91-66.12-18.75-107.68 33z"/>
 <path class="cls-21" d="M462.37,1364.83c-3.33,17.26,15.73,48.21,32.16,71l101.82-70.84L549,1479.6c25.74,11.15,60.07,23.12,76.2,16.16,31.24-22.3,67.44-53.45,67.44-53.45l-192.6-154.84s-27,42.9-37.71,77.35Z"/>
 <polygon class="cls-22" points="549.97 1480.3 596.39 1364.9 494.48 1435.7 546.86 1426.5"/>
 <path class="cls-23" d="M596.78,1372.44l3.83,69.81a1.67,1.67,0,0,1-2.21,1.69l-14.11-4.57a1.69,1.69,0,0,0-2.21,1.61l-.92,48.44A1.69,1.69,0,0,1,579,1491c-2.92-1-8.13-2.61-10.84-3.56a136.19,136.19,0,0,1-16.91-6.82,1.66,1.66,0,0,1-.83-2.13l43.2-106.58a1.66,1.66,0,0,1,3.21.5Z"/>
 <path class="cls-24" d="M586.94,1448.35,550.33,1451a.18.18,0,0,1-.19-.15L547,1427.73c0-.17-.32-.18-.3,0l-7.39,47.39c0,.08,0,.17.1.16l14,6.41s.13,0,.21-.07c10.45-11.38,30.55-30.24,33.41-32.94a.2.2,0,0,0-.12-.33Z"/>
 <path class="cls-10" d="M388.76,1512.21s3.45,13.7,22.91-2.75c-15.95,17.35-35.35,43.31-24.17,59.84,20.23-8.21,60.52,8.48,77.73,31,11.15,8,5.59-3.12,36.51-27.14-11.19,13.25-17.84,21.52-7.1,25.77-20.52,30.22-64.94,53.69-106.83,20-42.06-33.66-33-73.2.94-106.76Z"/>
 <path class="cls-23" d="M589.25,1366.69l-69,11.25a1.67,1.67,0,0,0-1.18,2.52l7.49,12.8a1.69,1.69,0,0,1-1.09,2.51l-47.11,11.31a1.69,1.69,0,0,0-1.09,2.51c1.57,2.65,4.3,7.38,5.8,9.82a136.19,136.19,0,0,0,10.3,15.05,1.66,1.66,0,0,0,2.26.35l94.81-65.08a1.66,1.66,0,0,0-1.18-3Z"/>
 <path class="cls-24" d="M517.23,1392.61l5.27,36.33a.18.18,0,0,0,.19.15l23.26-1.93c.17,0,.24.27.07.29l-44.7,17.4c-.08,0-.17,0-.18-.07l-9.27-12.3s-.06-.12,0-.22c8.86-12.65,23-36.33,25-39.71.11-.14.33-.12.35,0Z"/>
 <circle class="cls-11" cx="979.63" cy="958.54" r="576.99"/>
 <circle class="cls-16" cx="979.63" cy="958.54" r="541.36"/>
</svg>
