<?xml version="1.0" encoding="UTF-8"?>
<svg width="210mm" height="297mm" version="1.1" viewBox="0 0 744.09448819 1052.3622047" xmlns="http://www.w3.org/2000/svg">
 <defs>
  <filter id="a" x="-.046895" y="-.083269" width="1.0938" height="1.1665" color-interpolation-filters="sRGB">
   <feGaussianBlur stdDeviation="11.924311"/>
  </filter>
 </defs>
 <g stroke-linecap="round">
  <path transform="matrix(-.52236 0 0 .52236 -698.51 374.27)" d="m-354.74 676.72c0 94.906-125.12 171.84-279.47 171.84-80.092 0-121.1 0.3877-184.76-28.849-37.17-17.069-69.352-28.606-135.12-8.0004-38.558 12.08 37.331-77.677 40.416-134.99 5.0998-94.771 125.12-171.84 279.47-171.84s279.47 76.937 279.47 171.84z" filter="url(#a)" opacity=".28" stroke="#000" stroke-width="12.614"/>
  <path transform="matrix(.31685 0 0 .31685 -446.79 468.3)" d="m-354.74 676.72c0 94.906-125.12 171.84-279.47 171.84-80.092 0-121.1 0.3877-184.76-28.849-37.17-17.069-69.352-28.606-135.12-8.0004-38.558 12.08 37.331-77.677 40.416-134.99 5.0998-94.771 125.12-171.84 279.47-171.84s279.47 76.937 279.47 171.84z" filter="url(#a)" opacity=".28" stroke="#000" stroke-width="12.614"/>
  <path d="m-229.33 437.36c0 94.906-125.12 171.84-279.47 171.84-80.092 0-121.1 0.3877-184.76-28.849-37.17-17.069-69.352-28.606-135.12-8.0004-38.558 12.08 37.331-77.677 40.416-134.99 5.0998-94.771 125.12-171.84 279.47-171.84s279.47 76.937 279.47 171.84z" filter="url(#a)" opacity=".28" stroke="#000" stroke-width="12.614"/>
  <path d="m-250.17 423.36c0 92.784-121.7 168-271.83 168-77.902 0-117.78 0.37903-179.71-28.204-36.153-16.687-67.456-27.966-131.43-7.8215-37.504 11.81 36.311-75.94 39.311-131.97 4.9604-92.651 121.7-168 271.83-168s271.83 75.216 271.83 168z" fill="#fff" stroke="#529aff" stroke-width="12.3"/>
  <circle cx="-596.46" cy="422.66" r="15.79" stroke="#000" stroke-width="4.9799"/>
  <circle cx="-532.82" cy="424.78" r="15.79" stroke="#000" stroke-width="4.9799"/>
  <circle cx="-469.18" cy="426.9" r="15.79" stroke="#000" stroke-width="4.9799"/>
  <path d="m-527.45 717.76c0 51.153 67.096 92.62 149.86 92.62 42.948 0 64.936 0.20896 99.077-15.549 19.932-9.1997 37.189-15.418 72.458-4.3121 20.676 6.5109-20.018-41.866-21.672-72.759-2.7347-51.079-67.096-92.62-149.86-92.62s-149.86 41.467-149.86 92.62z" fill="#fff" stroke="#6dff56" stroke-width="6.7811"/>
  <circle transform="scale(-1,1)" cx="336.53" cy="717.37" r="8.7052" stroke="#000" stroke-width="2.7455"/>
  <circle transform="scale(-1,1)" cx="371.62" cy="718.54" r="8.7052" stroke="#000" stroke-width="2.7455"/>
  <circle transform="scale(-1,1)" cx="406.7" cy="719.71" r="8.7052" stroke="#000" stroke-width="2.7455"/>
  <path d="m-569.79 676.72c0 28.161-36.939 50.991-82.505 50.991-23.645 0-35.75 0.11505-54.546-8.5604-10.973-5.0648-20.474-8.4882-39.891-2.374-11.383 3.5845 11.021-23.049 11.931-40.056 1.5056-28.121 36.939-50.991 82.505-50.991s82.505 22.829 82.505 50.991z" fill="#fff" stroke="#ffb04f" stroke-width="3.7333"/>
  <g transform="matrix(.30352 0 0 .30352 -466.95 537.01)" stroke="#000" stroke-width="4.9799">
   <circle cx="-685.11" cy="459.6" r="15.79"/>
   <circle cx="-621.47" cy="461.72" r="15.79"/>
   <circle cx="-557.83" cy="463.84" r="15.79"/>
  </g>
 </g>
</svg>
